<?xml version="1.0" encoding="UTF-8" standalone="no"?>
<!-- Generator: Adobe Illustrator 19.0.0, SVG Export Plug-In . SVG Version: 6.00 Build 0)  -->

<svg
   version="1.1"
   id="Layer_1"
   x="0px"
   y="0px"
   viewBox="0 0 32 32"
   style="enable-background:new 0 0 32 32;"
   xml:space="preserve"
   sodipodi:docname="favicon.svg"
   inkscape:version="1.3 (0e150ed6c4, 2023-07-21)"
   xmlns:inkscape="http://www.inkscape.org/namespaces/inkscape"
   xmlns:sodipodi="http://sodipodi.sourceforge.net/DTD/sodipodi-0.dtd"
   xmlns="http://www.w3.org/2000/svg"
   xmlns:svg="http://www.w3.org/2000/svg"><defs
   id="defs1" /><sodipodi:namedview
   id="namedview1"
   pagecolor="#ffffff"
   bordercolor="#000000"
   borderopacity="0.25"
   inkscape:showpageshadow="2"
   inkscape:pageopacity="0.0"
   inkscape:pagecheckerboard="0"
   inkscape:deskcolor="#d1d1d1"
   inkscape:zoom="24.96875"
   inkscape:cx="16"
   inkscape:cy="16"
   inkscape:window-width="1920"
   inkscape:window-height="1005"
   inkscape:window-x="0"
   inkscape:window-y="0"
   inkscape:window-maximized="1"
   inkscape:current-layer="Layer_1" />&#10;<g
   id="XMLID_2_"
   transform="matrix(1.0702341,0,0,1.0702341,-1.0702341,-1.0842809)">&#10;	<path
   id="XMLID_16_"
   d="m 24,12.2 c 0,3.8 0,6.5 0,9.2 0,0.3 0,0.3 -0.2,0.3 -5,0 -10.1,0 -15.1,0 -0.1,0 -0.2,0 -0.3,-0.2 0,0 -0.1,-0.1 -0.1,-0.1 C 8.1,21.3 8,21.2 8,21 8,18.9 8,16.7 8,14.6 8,12.9 8,11.3 8,9.6 8,8 8,6.5 8,4.9 8,4.8 8,4.7 8.1,4.6 8.2,4.5 8.3,4.6 8.4,4.7 8.5,4.9 8.6,5 8.7,5.2 c 0,0.1 0.1,0.1 0.1,0.2 0.2,0.1 0.4,0.3 0.6,0.4 0.3,0.3 0.6,0.7 0.9,1 0.2,0.3 0.5,0.5 0.7,0.8 0.1,0.1 0.1,0.1 0.2,0.2 0,0 0.1,0.1 0.1,0.1 0.1,0.3 0.4,0.4 0.6,0.6 0.3,0.3 0.6,0.5 0.7,0.9 0.2,0.2 0.2,0.5 0.2,0.7 0,2.3 0,4.6 0,6.9 0,0.2 0,0.2 0.2,0.2 0.4,0 0.8,0 1.2,0 0.1,0 0.2,0 0.2,-0.2 0,-2.4 0,-4.8 0,-7.2 0,-0.3 0.1,-0.3 0.3,-0.3 0.9,0 1.7,0 2.6,0 0.2,0 0.3,0.1 0.3,0.2 0,0 0,0.1 0.1,0.1 0.2,0.1 0.2,0.2 0.2,0.4 0,0.6 0,1.2 0,1.8 0,1.7 0,3.3 0,5 0,0.1 0,0.2 0.2,0.2 0.4,0 0.8,0 1.2,0 0.2,0 0.2,-0.1 0.2,-0.3 0,-1.7 0,-3.5 0,-5.2 0,-0.8 0,-1.6 0,-2.4 C 19.5,9 19.7,8.9 19.8,8.8 19.9,8.7 20,8.7 20,8.6 20.2,8.4 20.3,8.2 20.5,8 20.7,7.8 20.8,7.7 21,7.5 21.2,7.3 21.4,7 21.6,6.8 21.7,6.7 21.9,6.6 22,6.4 c 0.2,-0.2 0.3,-0.3 0.5,-0.5 0.3,-0.4 0.7,-0.8 1,-1.1 0,0 0.1,-0.1 0.1,-0.1 0.1,-0.1 0.2,-0.1 0.3,0.1 0,0 0.1,0.1 0.1,0.1 0.1,0.1 0.1,0.2 0.1,0.3 -0.1,2.7 -0.1,5.4 -0.1,7 z" />&#10;	<path
   id="XMLID_9_"
   d="m 20.4,26.4 c -0.1,0.1 -0.2,0.3 -0.2,0.4 -0.1,0.3 -0.4,0.5 -0.6,0.8 0,0 -0.1,0 -0.1,0 -0.1,-0.1 -0.2,-0.1 -0.3,-0.2 -0.3,-0.3 -0.5,-0.6 -0.8,-0.9 -0.1,-0.2 -0.3,-0.4 -0.2,-0.7 0,-0.1 0,-0.3 0,-0.4 0,0 0,0 0,0 0,0 0,0.1 0,0.1 0,0.2 0,0.3 0,0.5 0,0.2 -0.1,0.4 -0.1,0.5 -0.1,0.1 -0.1,0.3 -0.2,0.4 -0.2,0.3 -0.4,0.5 -0.7,0.7 -0.2,0.1 -0.3,0.2 -0.5,0.2 -0.1,0 -0.1,0 -0.2,-0.1 0,-0.1 -0.1,-0.1 -0.1,-0.2 -0.1,-0.1 -0.2,-0.2 -0.2,-0.2 0,-0.1 0.1,-0.2 0.2,-0.2 0.2,-0.1 0.4,-0.3 0.6,-0.5 0.1,-0.1 0.1,-0.2 0.1,-0.3 0,0 0,-0.1 0.1,-0.1 0.1,-0.2 0,-0.4 -0.2,-0.5 -0.4,-0.2 -0.6,-0.5 -0.8,-0.8 0,0 -0.1,-0.1 -0.1,-0.1 0,0 0,0.1 -0.1,0.1 -0.1,0.1 -0.1,0.2 -0.2,0.3 -0.1,0.1 -0.1,0.2 0,0.3 0.1,0.2 0.3,0.5 0.4,0.7 0.1,0.2 0,0.3 0,0.5 -0.1,0.2 -0.1,0.3 -0.2,0.4 -0.1,0.1 -0.2,0.2 -0.3,0.3 0,0 -0.1,0 -0.1,0 -0.1,0.2 -0.3,0.3 -0.5,0.4 0,0 -0.1,0 -0.1,0 -0.3,-0.1 -0.6,-0.3 -0.7,-0.6 0,0 -0.1,-0.1 -0.1,-0.1 -0.4,-0.4 -0.5,-0.8 -0.4,-1.3 0,-0.1 0.1,-0.2 0.2,-0.3 0,0 0.1,-0.1 0.1,-0.1 0.2,-0.2 0.2,-0.2 0,-0.4 -0.1,-0.1 -0.2,-0.3 -0.2,-0.5 0,-0.2 0,-0.4 0.1,-0.7 0,0 0,0 0,-0.1 0.2,-0.2 0.4,-0.5 0.6,-0.7 0.1,-0.1 0.2,0 0.3,0 0.1,0 0.2,0.1 0.2,0.1 0.3,0.2 0.5,0.4 0.6,0.8 0,0.1 0.2,0.2 0.2,0.3 0,-0.4 0.2,-0.7 0.3,-1.1 0,0 0,-0.1 0.1,-0.1 0.2,0 0.3,0 0.5,0 0.2,0 0.5,0.1 0.7,-0.1 0,0 0.1,0 0.2,0 0,0 0.1,0.1 0.1,0.1 0,0.1 0,0.1 0,0.2 0,0 0.1,0 0.1,0 0.1,0 0.1,0 0.1,0.1 0,0 0,0.1 0,0.1 0,0.1 -0.1,0.3 -0.1,0.4 0,0.1 -0.1,0.2 -0.2,0.2 -0.2,0 -0.5,0 -0.7,0 -0.1,0 -0.1,0 -0.2,0 0,0.1 0.1,0.2 0.2,0.2 0.3,0 0.5,0.3 0.7,0.5 0.1,0.1 0.2,0.3 0.3,0.5 0,-0.1 0.1,-0.1 0.1,-0.2 0.1,-0.4 0.3,-0.8 0.4,-1.1 0.1,-0.1 0.2,-0.3 0.3,-0.4 0.2,-0.2 0.4,-0.5 0.6,-0.7 0,0 0.1,-0.1 0.1,-0.1 0.2,-0.1 0.3,0 0.2,0.3 0,0 0,0 0.1,0 0.2,0.1 0.3,0.2 0.1,0.4 -0.1,0.1 -0.2,0.3 -0.3,0.4 0,0 0,0.1 0,0.2 0.2,0.2 0.3,0.4 0.5,0.6 0.1,0.2 0.2,0.4 0.3,0.6 0,0 0,0 0.1,0.1 0,-0.1 0,-0.1 0,-0.2 0,-0.8 0,-1.5 0,-2.3 0,-0.1 0,-0.2 0.2,-0.2 0.6,-0.2 1.3,-0.1 1.9,-0.1 0.7,0 1.3,0 2,0 0.1,0 0.2,0 0.3,0 0,0 0.1,0 0.1,0 0,0 0.1,-0.1 0,-0.1 -0.1,-0.1 0,-0.3 0,-0.4 0,-0.1 0,-0.2 0,-0.3 0,-0.3 0,-0.5 0,-0.8 0,-0.4 -0.2,-0.7 -0.1,-1.1 0.1,-0.5 0.1,-1 0.1,-1.4 0,-2.3 0,-4.7 0,-7 0,-0.2 0,-0.4 0,-0.6 0,-0.2 0,-0.4 0,-0.6 0,-0.1 0.1,-0.1 0.2,-0.1 1.8,0 3.6,0 5.3,-0.1 0.2,0 0.2,0.1 0.3,0.2 0,0 0,0.1 0,0.1 0.1,0.1 0.1,0.2 0.1,0.3 0,2.7 0,5.4 0,8 0,0.2 0,0.2 -0.2,0.2 -0.3,0 -0.6,0 -0.9,0 -0.2,0 -0.3,0.1 -0.3,0.3 0,0.5 0,0.9 0,1.4 0,0.2 0,0.2 -0.2,0.2 -0.5,0 -1.1,0 -1.6,0 -0.3,0 -0.4,0.2 -0.3,0.4 0,0.1 0,0.3 0,0.4 0,0.1 0,0.1 0,0.2 0.1,0.2 0.3,0.4 0.4,0.6 0.2,0.2 0.5,0.3 0.7,0.4 0.5,0.1 0.9,0.1 1.4,0.2 0.1,0 0.1,0 0.2,0 0,0 0.1,0 0.1,0.1 0,0.2 0.1,0.2 0.2,0.3 0,0 0.1,0.2 0.1,0.2 -0.1,0.2 -0.1,0.4 -0.2,0.5 -0.1,0.3 -0.3,0.5 -0.4,0.8 0,0 0,0 0,0 -0.1,0.2 -0.3,0.3 -0.4,0.5 -0.2,0.3 -0.4,0.5 -0.6,0.7 -0.2,0.2 -0.4,0.3 -0.6,0.5 -0.1,0.1 -0.2,0.1 -0.3,0.2 -0.2,0.1 -0.4,0.3 -0.7,0.4 -0.2,0.1 -0.4,0.1 -0.5,0.2 -0.3,0.1 -0.5,0.1 -0.8,0.2 -0.8,0.2 -1.6,0 -2.4,0 -0.9,0 -1.7,0 -2.6,0 -0.2,0 -0.4,-0.1 -0.4,-0.3 0,0 -0.1,-0.1 -0.1,-0.1 -0.1,-0.1 -0.1,-0.1 -0.1,-0.3 0.1,-0.1 0,-0.3 0,-0.4 z m 8.9,-12.3 c 0,-0.1 0.1,-0.1 0,0 0,-0.1 0.1,-0.1 0.1,-0.2 0,-0.5 0,-0.9 0,-1.4 0,-0.1 0,-0.1 0,-0.1 0,0 -0.1,-0.1 -0.1,-0.1 -0.2,0.1 -0.3,-0.1 -0.5,0 0,0 -0.1,0 -0.1,0 0,0 -0.1,0 -0.1,0 -0.3,0 -0.6,0 -0.8,0 0,0 -0.1,0 -0.1,0.1 0,0 0,0.1 0,0.1 0,0 0,0 0.1,0.1 0.4,0.4 0.8,0.9 1.3,1.3 0,-0.1 0.1,0 0.2,0.2 z M 19.1,25 c 0,0 -0.1,0 0,0 -0.1,0.1 -0.1,0.1 -0.1,0.2 0,0.1 0,0.2 0,0.3 0,0.3 0.1,0.6 0.3,0.8 0,0 0,0.1 0.1,0.1 0.1,0.1 0.2,0.2 0.3,0 0.2,-0.3 0.2,-0.5 0,-0.9 -0.1,-0.1 -0.2,-0.2 -0.3,-0.2 -0.2,-0.1 -0.3,-0.1 -0.3,-0.3 z m -4.6,0.8 c 0,0 0,0 0,0 0,0.1 0,0.3 0.1,0.4 0.1,0.1 0.2,0.2 0.4,0.3 0.1,0.1 0.2,0.1 0.3,0 0.1,-0.1 0.1,-0.4 0,-0.5 -0.2,-0.2 -0.3,-0.3 -0.5,-0.5 -0.1,-0.1 -0.2,0 -0.2,0.1 -0.1,0.1 -0.1,0.1 -0.1,0.2 z m 0.8,-1.5 c 0,-0.1 0,-0.1 -0.1,-0.2 -0.1,-0.1 -0.2,-0.2 -0.4,-0.3 -0.1,-0.1 -0.2,0 -0.2,0 0,0.1 -0.1,0.2 0,0.3 0.1,0.1 0.3,0.2 0.4,0.4 0,0 0.1,0 0.1,0 0.1,0 0.1,-0.1 0.2,-0.2 z m 4.7,2 c -0.1,0.2 -0.2,0.3 -0.3,0.4 0,0 0,0.1 0,0.1 0,0 0.1,0 0.1,0 0,0 0,-0.1 0.1,-0.1 0,0 0,-0.1 0.1,-0.1 0.1,0 0,-0.1 0,-0.3 z" />&#10;	<path
   id="XMLID_6_"
   d="m 7.1,16.6 c 0,1.9 0,3.8 0,5.7 0,0.3 0.1,0.4 0.4,0.4 0.5,0 1,0 1.5,0 0.7,0 1.5,0 2.2,0 0,0 0.1,0 0.1,0 0.1,0 0.1,0 0.1,0.2 0,0.1 0,0.2 0.1,0.2 0.1,0.1 0.1,0.2 0.1,0.3 0,1.3 0,2.6 0,3.9 0,0.2 -0.1,0.3 -0.3,0.3 -1.6,0 -3.2,0 -4.7,0.1 -0.1,0 -0.2,0 -0.2,-0.1 0,0 0,0 -0.1,0 -0.2,0 -0.4,0 -0.6,-0.1 C 5.6,27.5 5.5,27.4 5.3,27.4 5,27.2 4.6,27.1 4.3,26.9 4.1,26.8 3.9,26.7 3.7,26.5 3.5,26.3 3.2,26.1 3,25.9 2.8,25.6 2.5,25.4 2.3,25.1 2.1,24.8 1.9,24.4 1.7,24.1 1.5,23.8 1.4,23.5 1.3,23.2 1.2,23 1.3,22.8 1.5,22.8 c 0.7,0 1.4,0 2.2,0 0.2,0 0.4,0 0.6,0 0.1,0 0.1,0 0.2,-0.1 C 4.6,22.4 4.5,22 4.4,21.8 4.3,21.6 4.2,21.4 4,21.4 3.8,21.3 3.7,21.2 3.5,21.1 3.3,21 3.1,20.9 2.9,21 2.7,21 2.7,21 2.6,20.8 c 0,0 -0.1,-0.1 -0.1,-0.1 -0.1,0 -0.1,-0.1 -0.1,-0.2 0,-0.3 0,-0.7 0,-1 0,-0.3 -0.1,-0.3 -0.3,-0.3 -0.2,0 -0.3,0 -0.5,0 -0.1,0 -0.2,0 -0.2,-0.2 0,-0.1 -0.1,-0.1 -0.1,-0.2 -0.2,-0.1 -0.2,-0.2 -0.2,-0.4 0,-0.6 0,-1.2 0,-1.8 0,-1.8 0,-3.7 -0.1,-5.5 0,-0.2 0,-0.5 0.1,-0.7 0,-0.4 0.1,-0.4 0.2,-0.4 0.7,0 1.5,0 2.2,0 1,0 2.1,0 3.1,0 0.1,0 0.2,0 0.2,0.2 0,0.1 0.1,0.1 0.1,0.2 0.1,0.1 0.1,0.2 0.1,0.3 0,1.4 0,2.9 0,4.3 0.1,0.6 0.1,1.1 0.1,1.6 z M 2.7,12.3 c 0,0.1 0,0.1 0,0.2 0,0.5 0,0.9 0,1.4 0,0.2 0,0.2 0.2,0.2 0.5,0 1,0 1.5,0 0,0 0.1,0 0.1,0 0,0 0.1,0 0.1,-0.1 0,0 0,-0.1 0,-0.1 C 4.5,13.8 4.4,13.7 4.3,13.6 3.8,13.2 3.4,12.7 2.9,12.3 c -0.1,0.1 -0.1,0 -0.2,0 z" />&#10;	<path
   id="XMLID_5_"
   d="m 7.1,7 c 0,0.6 0,1.3 0,1.9 0,0.2 -0.1,0.3 -0.3,0.2 -0.1,0 -0.1,0 -0.2,0 -1,0 -1.9,0 -2.9,0 C 3.1,9.1 2.6,9 2,9 1.8,9 1.7,9 1.6,8.8 1.6,8.8 1.5,8.7 1.5,8.7 1.4,8.7 1.3,8.7 1.3,8.6 1.3,8.5 1.3,8.4 1.3,8.3 1.5,8 1.6,7.7 1.8,7.4 1.9,7.1 2.1,6.8 2.3,6.6 2.6,6.2 2.9,5.9 3.2,5.6 3.4,5.4 3.6,5.3 3.9,5.2 4.1,5 4.4,4.8 4.7,4.7 4.7,4.6 4.9,4.6 5,4.6 5.3,4.5 5.5,4.5 5.8,4.4 6,4.4 6.2,4.3 6.3,4.3 c 0.1,0 0.2,0 0.2,0 0.1,0 0.1,0.1 0.2,0.1 0,0.1 0.1,0.2 0.2,0.2 C 7,4.8 7,4.9 7,5 7,5.6 7,6.3 7.1,7 7,7 7,7 7.1,7 Z" />&#10;	<path
   id="XMLID_4_"
   d="m 25.5,4.3 c 0.3,0.1 0.6,0.1 0.8,0.2 0.2,0.1 0.4,0.1 0.6,0.2 0.3,0.1 0.5,0.2 0.8,0.3 0.3,0.1 0.5,0.3 0.7,0.5 0.3,0.3 0.6,0.5 0.9,0.8 0.3,0.3 0.6,0.7 0.8,1.1 0.1,0.3 0.3,0.6 0.4,0.9 0.1,0.2 0.2,0.4 0.2,0.5 0,0.2 -0.1,0.3 -0.3,0.3 -0.2,0 -0.5,0 -0.7,0 -1.4,0 -2.8,0 -4.2,0.1 -0.1,0 -0.3,0 -0.3,-0.2 0,-0.1 -0.1,-0.1 -0.2,-0.2 0,-0.1 0,-0.2 0,-0.3 0,0 0,-0.1 0,-0.2 0,-1.2 0,-2.3 0,-3.5 0,-0.1 0,-0.1 0,-0.2 -0.1,-0.3 0,-0.4 0.3,-0.4 0.1,0.1 0.2,0.1 0.2,0.1 z" />&#10;	<path
   id="XMLID_3_"
   d="m 13.7,24.5 c 0,0.3 0,0.6 0,0.9 0,0.2 -0.1,0.3 0,0.5 0,0 0,0.1 0,0.1 0,0 0,0.1 0,0.1 0,0.1 0,0.3 0.1,0.4 0,0.1 0,0.2 0.1,0.4 0,0 0,0.1 0,0.1 -0.1,0.1 0,0.2 0.1,0.2 0.1,0 0.2,0.1 0.1,0.2 0,0.1 -0.1,0.1 -0.2,0.1 -0.3,0 -0.6,0 -0.9,0 -0.2,0 -0.2,0 -0.1,-0.2 0,0 0,-0.1 0,-0.1 -0.2,-0.1 -0.1,-0.2 -0.1,-0.4 0,-0.1 0,-0.2 0,-0.3 0,-0.8 0,-1.5 0,-2.3 0,-0.2 -0.1,-0.3 -0.1,-0.5 0,0 -0.1,-0.1 -0.1,-0.1 -0.1,0 -0.2,-0.1 -0.2,-0.2 0,-0.1 0.1,-0.2 0.2,-0.3 0.2,-0.1 0.4,-0.2 0.6,-0.3 0.1,-0.1 0.2,-0.1 0.3,0 0,0 0,0 0,0 0,0.2 0,0.3 0.2,0.3 0,0 0,0.1 0,0.2 0,0.5 0,0.9 0,1.2 z" />&#10;</g>&#10;</svg>
