<?xml version="1.0" encoding="utf-8"?>
<!-- Generator: Adobe Illustrator 19.0.0, SVG Export Plug-In . SVG Version: 6.00 Build 0)  -->
<svg version="1.1" id="Layer_1_xA0_Image_1_" xmlns="http://www.w3.org/2000/svg" xmlns:xlink="http://www.w3.org/1999/xlink"
	 x="0px" y="0px" viewBox="0 0 355 256" style="enable-background:new 0 0 355 256;" xml:space="preserve">
<g>
	<path d="M242.2,66.7c0,28.8,0,48.9,0,69.1c0,1.9,0,1.9-1.9,1.9c-39.7,0-79.4,0-119,0c-1.1,0-2,0-2-1.5c0-0.4-0.5-0.9-0.9-1
		c-1.3-0.5-1.6-1.4-1.6-2.7c0-15.9,0.1-31.9,0.1-47.8c0-12.4-0.1-24.9-0.2-37.3c-0.1-11.8-0.3-23.5-0.4-35.3c0-0.7-0.3-1.6,0.6-2
		c1-0.5,1.8-0.1,2.5,0.6c1.1,1.1,2.1,2.4,3.1,3.6c0.4,0.4,0.7,0.9,1.1,1.3c1.3,1.2,2.6,2.2,3.8,3.5c2.3,2.4,4.5,4.9,6.8,7.3
		c1.9,1.9,3.8,3.8,5.7,5.7c0.4,0.4,1,0.8,1.5,1.2c0.3,0.3,0.7,0.5,0.9,0.8c1.2,2,3,3.2,4.6,4.8c2.1,2,4.8,3.5,5.7,6.5
		c1.7,1.4,1.3,3.4,1.3,5.3c0,17.2,0.1,34.4,0.1,51.6c0,1.7,0.1,1.8,1.8,1.8c3.1,0,6.2,0,9.3,0c1,0,1.3-0.4,1.3-1.4
		c-0.1-18-0.1-36-0.1-54.1c0-1.9,0.6-2.6,2.5-2.6c6.9,0,13.7,0,20.6,0c1.2,0,2,0.4,2,1.7c0,0.3,0.2,0.6,0.4,0.7
		c1.3,0.6,1.5,1.8,1.5,3.1c0,4.6,0,9.1,0,13.7c0,12.5,0,25,0,37.4c0,1,0.4,1.5,1.4,1.5c3.1,0,6.2,0,9.3,0c1.3,0,1.8-0.7,1.8-2.2
		c0-13,0-26,0-39c0-5.9,0.1-11.8,0-17.6c0-2,1.2-2.8,2.4-3.8c0.6-0.5,1.4-0.9,2-1.5c1.3-1.4,2.5-3,3.9-4.4c1.3-1.3,2.7-2.4,4-3.6
		c1.6-1.6,3.1-3.4,4.7-5.1c0.9-1,2.1-1.7,3-2.7c1.3-1.2,2.7-2.4,3.7-3.8c2.2-3.3,5.3-5.7,7.9-8.5c0.3-0.3,0.6-0.6,1-0.9
		c1.1-0.8,1.8-0.6,2.4,0.6c0.2,0.4,0.4,0.8,0.8,1c1.1,0.5,1.1,1.3,1.1,2.3C242.5,34.9,242.3,55.1,242.2,66.7z"/>
	<path d="M214.1,172.9c-0.6,1.1-1.3,2.1-1.8,3.3c-1.2,2.4-3.4,3.8-5.1,5.7c-0.2,0.2-0.8,0.2-1.1,0.1c-0.8-0.5-1.6-1-2.2-1.7
		c-2.1-2.3-4.3-4.5-6.1-7c-1.1-1.5-2.2-3.2-1.9-5.4c0.1-1,0-2,0-2.9c-0.1,0-0.3,0-0.4,0c-0.1,0.2-0.2,0.4-0.2,0.6
		c0,1.3,0,2.6,0.1,3.9c0.1,1.5-0.4,2.8-1,4.1c-0.5,1-0.8,2-1.5,2.9c-1.4,2.1-3.1,3.7-5.2,5.2c-1.2,0.9-2.3,1.2-3.7,1.1
		c-0.7,0-1-0.3-1.3-1c-0.2-0.6-0.6-1-1-1.5c-0.5-0.6-1.5-1.2-1.4-1.6c0.1-0.7,0.9-1.5,1.6-1.8c1.9-0.7,3.2-2,4.4-3.4
		c0.6-0.7,0.8-1.7,1.2-2.5c0.1-0.3,0.2-0.7,0.4-1c0.6-1.2,0-3.3-1.2-3.9c-2.8-1.4-4.6-3.8-6.6-6c-0.2-0.2-0.5-0.4-0.8-0.6
		c-0.1,0.3-0.3,0.6-0.4,0.8c-0.4,0.7-0.7,1.5-1.3,2c-0.7,0.7-0.7,1.2-0.1,2c1.2,1.7,2.4,3.4,3.2,5.3c0.5,1.2,0.4,2.5-0.2,3.9
		c-0.4,1.2-1,2.2-1.7,3.2c-0.5,0.8-1.3,1.4-2,2c-0.2,0.1-0.5,0.1-0.6,0.3c-1,1.4-2.5,1.9-4,2.7c-0.3,0.1-0.7,0.3-0.9,0.2
		c-2.4-1-4.4-2.4-5.7-4.7c-0.2-0.4-0.4-0.7-0.7-1c-2.8-2.8-3.7-6.2-3.2-10c0.1-0.8,0.8-1.6,1.2-2.3c0.2-0.3,0.6-0.6,0.9-0.9
		c1.2-1.3,1.2-1.3,0-2.6c-0.9-1-1.3-2.1-1.4-3.5c-0.1-1.7,0.3-3.3,0.7-5c0-0.2,0.2-0.3,0.3-0.5c1.5-1.8,3.2-3.5,5-4.9
		c0.6-0.5,1.8-0.4,2.7-0.3c0.6,0.1,1.2,0.5,1.7,0.8c2.1,1.6,3.9,3.3,4.9,5.8c0.4,0.9,1.2,1.7,1.9,2.4c0.1-3,1.5-5.5,2.6-8.1
		c0.1-0.2,0.3-0.4,0.5-0.4c1.3,0,2.6,0,3.9,0.2c1.9,0.3,3.7,1,5.4-0.6c0.3-0.3,1-0.4,1.4-0.2c0.3,0.1,0.5,0.7,0.5,1.1
		c0,0.5-0.1,1.1-0.3,1.8c0.3,0,0.6-0.1,0.9-0.1c0.4,0.1,0.9,0.3,1.1,0.5c0.2,0.2,0.1,0.7,0,1c-0.3,1-0.7,2-1,3.1
		c-0.2,1.1-0.8,1.7-1.9,1.7c-1.9,0-3.9,0-5.8,0c-0.4,0-0.8,0-1.3,0.1c0.2,0.9,0.6,1.2,1.4,1.2c2.6,0.1,4,2,5.5,3.8
		c0.9,1.1,1.5,2.4,2.4,3.8c0.4-0.5,0.9-0.9,0.9-1.4c0.5-3.1,2.2-5.7,3.5-8.4c0.5-1.1,1.3-2,2.1-2.9c1.5-1.8,3.1-3.6,4.6-5.4
		c0.3-0.3,0.6-0.6,1-0.7c1.8-0.4,2.3,0.4,1.7,2.3c0.2,0.1,0.3,0.2,0.5,0.2c1.8,0.6,2,1.3,0.8,2.7c-0.9,1.1-1.8,2.2-2.6,3.4
		c-0.2,0.3-0.1,0.9,0.1,1.2c1.2,1.6,2.7,3.1,3.8,4.7c0.9,1.4,1.6,2.9,2.3,4.4c0.1,0.2,0.2,0.3,0.6,0.5c0.1-0.5,0.2-0.9,0.2-1.4
		c0-5.7,0-11.4,0-17.1c0-1.1,0.3-1.3,1.4-1.6c5.1-1.3,10.1-0.4,15.2-0.5c5.1-0.2,10.2,0,15.4,0.1c0.9,0,1.7,0.3,2.5,0.3
		c0.3,0,0.7-0.1,0.9-0.3c0.2-0.3,0.4-0.9,0.3-1.1c-0.8-1,0-1.9-0.1-2.9c-0.1-0.7,0.2-1.5,0.3-2.3c0-2,0.1-4,0-5.9
		c-0.2-2.7-1.3-5.5-0.6-8.2c1-3.6,0.5-7.2,0.5-10.8c0.1-17.6,0.1-35.1,0.2-52.7c0-1.4-0.3-2.9-0.3-4.2c-0.1-1.4-0.3-3,0.3-4.5
		c0.4-1,1-1,1.7-1c14-0.2,28-0.4,42-0.5c1.3,0,1.8,0.4,2.1,1.7c0.1,0.2,0.2,0.6,0.3,0.7c1,0.5,1,1.4,1,2.3
		c-0.1,20-0.2,40.1-0.4,60.1c0,1.5,0,1.5-1.6,1.5c-2.2,0-4.5,0-6.7,0c-1.6,0-2.1,0.5-2.1,2c0,3.5,0,7,0.1,10.5
		c0,1.4-0.1,1.5-1.5,1.5c-4.2,0-8.4,0-12.6-0.1c-2.1-0.1-2.8,1.2-2.6,3.1c0.1,1,0.2,1.9,0.4,2.9c0.1,0.4,0.1,0.9,0.3,1.2
		c1.1,1.4,2.3,2.8,3.5,4.2c1.5,1.7,3.6,2.4,5.7,2.7c3.6,0.5,7.3,0.8,10.9,1.2c0.5,0.1,1,0.1,1.5,0.3c0.2,0.1,0.6,0.3,0.6,0.4
		c-0.1,1.2,1,1.5,1.7,2.1c0.4,0.3,0.7,1.2,0.5,1.7c-0.4,1.4-1,2.7-1.7,4c-1,2-2,4-3,6c0,0.1-0.1,0.2-0.1,0.3c-1,1.2-2.2,2.4-3,3.7
		c-1.4,2.1-3.2,3.9-5.1,5.6c-1.6,1.4-3.3,2.5-5,3.7c-0.8,0.5-1.5,1.1-2.3,1.5c-1.8,1-3.5,2.1-5.4,2.9c-1.4,0.6-2.9,0.8-4.3,1.4
		c-2,0.8-4.2,0.8-6.2,1.3c-6.2,1.3-12.3,0.2-18.5,0.3c-6.9,0.1-13.7-0.2-20.6-0.1c-1.7,0-2.8-0.4-3.4-2c-0.1-0.4-0.6-0.6-0.9-0.9
		c-0.7-0.5-1.1-1.1-1.1-2c0-1.1-0.1-2.3-0.2-3.4C214.3,172.8,214.2,172.9,214.1,172.9z M284.3,80.6c0.1-0.1,0.2-0.1,0.4-0.2
		c0-0.4,0.1-0.8,0.1-1.2c0-3.4,0.1-6.8,0.1-10.2c0-0.4,0.1-0.9-0.1-1.1c-0.3-0.4-0.9-0.8-1.2-0.7c-1.2,0.5-2.5-0.8-3.7,0.2
		c-0.1,0.1-0.4-0.2-0.6-0.2c-0.4-0.1-0.7-0.3-1.1-0.3c-2.2,0-4.4,0-6.6,0.1c-0.3,0-0.9,0.2-0.9,0.4c-0.1,0.3,0.2,0.7,0.3,1
		c0.1,0.2,0.3,0.3,0.5,0.5c3.4,3.3,6.6,6.8,10.4,9.6C282.7,78.9,283.5,79.8,284.3,80.6z M203.6,162.4c-0.2,0-0.3,0-0.5,0
		c-0.2,0.4-0.5,0.9-0.6,1.3c-0.1,0.6,0,1.3,0,1.9c0,2.2,0.5,4.1,2.1,5.7c0.2,0.2,0.4,0.6,0.5,0.8c0.7,1.1,1.8,1.3,2.6,0.3
		c1.7-2.2,1.9-4.1,0.2-6.4c-0.6-0.8-1.5-1.6-2.3-1.8C204.6,164,203.7,163.9,203.6,162.4z M167.6,168.3c-0.1,0-0.1,0.1-0.2,0.1
		c0.4,0.9,0.6,2,1.2,2.7c0.8,1,1.9,1.8,3,2.6c0.7,0.6,1.5,0.6,2.1-0.1c0.8-0.8,0.8-2.9-0.1-3.7c-1.3-1.2-2.7-2.3-4.1-3.4
		c-0.7-0.5-1.5-0.1-1.8,0.8C167.6,167.6,167.6,168,167.6,168.3z M173.7,157.2c-0.2-0.4-0.3-0.9-0.5-1.1c-0.9-0.8-1.9-1.5-2.8-2.2
		c-0.7-0.6-1.4-0.4-1.7,0.3c-0.4,0.7-1.1,1.5-0.3,2.3c1,1,2.2,1.8,3.3,2.7c0.2,0.2,0.8,0.2,0.9,0C173,158.6,173.3,157.9,173.7,157.2
		z M210.9,172.5c-0.8,1.1-1.4,2.1-2,3.1c-0.1,0.2-0.2,0.6-0.1,0.8c0.1,0.2,0.5,0.4,0.6,0.3c0.2-0.1,0.3-0.4,0.5-0.6
		c0.2-0.3,0.3-0.7,0.6-0.9C211.5,174.4,211.1,173.5,210.9,172.5z"/>
	<path d="M109.3,99.5c0,14.3,0,28.5,0,42.8c0,2.2,0.6,2.8,2.9,2.8c3.8,0,7.7,0,11.5,0c5.8,0,11.6-0.1,17.4-0.1c0.3,0,0.7,0,1,0
		c0.8,0,1.1,0.4,1.1,1.1c-0.1,0.7,0.2,1.2,0.9,1.5c0.9,0.4,1.2,1.2,1.2,2.2c-0.1,9.7-0.1,19.3-0.2,29c0,1.5-0.6,2-2.1,2.1
		c-12.4,0.1-24.8,0.3-37.2,0.4c-0.6,0-1.3-0.3-1.9-0.5c-0.2,0-0.3-0.2-0.5-0.2c-1.7-0.2-3.3-0.3-5-0.6c-0.9-0.2-1.9-0.4-2.8-0.8
		c-2.7-1.2-5.4-2.3-8.1-3.7c-1.6-0.8-3.2-1.9-4.7-3c-1.8-1.3-3.6-2.7-5.2-4.3c-2-1.9-3.9-4-5.5-6.2c-1.7-2.3-3-4.9-4.5-7.3
		c-1.3-2.1-2.1-4.3-2.9-6.6c-0.6-1.8-0.1-2.7,1.7-2.7c5.6-0.1,11.3-0.2,17-0.2c1.5,0,3-0.1,4.4-0.1c0.8,0,1.1-0.2,1.3-1.1
		c0.5-2.5,0.2-4.9-0.8-7c-0.6-1.2-1.2-2.7-2.8-3.3c-1.3-0.5-2.5-1.5-3.8-2.1c-1.4-0.6-2.8-1.2-4.4-1.1c-1.5,0.1-1.9-0.3-2.4-1.7
		c-0.1-0.3-0.4-0.8-0.7-0.8c-0.8-0.2-1.1-0.7-1.1-1.5c0-2.5,0-5-0.1-7.5c0-1.9-0.5-2.4-2.4-2.4c-1.4,0-2.7,0-4.1,0
		c-0.9,0-1.4-0.4-1.7-1.1c-0.2-0.5-0.6-1.1-1-1.3c-1.3-0.6-1.5-1.7-1.6-2.9c0-4.6-0.1-9.1-0.1-13.7c-0.1-13.7-0.3-27.5-0.4-41.2
		c0-1.7-0.4-3.5,0.5-5.1c0.4-0.9,1-1.1,1.9-1.1c5.7,0.1,11.5,0.2,17.2,0.2c8.2,0.1,16.3,0.2,24.5,0.3c1,0,1.6,0.2,1.8,1.4
		c0.1,0.6,0.7,1.1,1.1,1.5c0.6,0.6,0.9,1.2,0.9,2.1c0,10.7,0.1,21.5,0.1,32.2C109.4,91.9,109.4,95.7,109.3,99.5
		C109.4,99.5,109.3,99.5,109.3,99.5z M74.8,67.5c0,0.7-0.1,1.1-0.1,1.5c0,3.5,0.1,7,0.1,10.6c0,1.6,0.2,1.8,1.8,1.8
		c3.9,0,7.8,0.1,11.7,0.1c0.2,0,0.5,0,0.7,0c0.2-0.1,0.6-0.3,0.6-0.4c0-0.2-0.1-0.6-0.3-0.8c-0.8-0.7-1.8-1.4-2.6-2.2
		c-3.6-3.3-7.2-6.6-10.9-9.9C75.6,68,75.3,67.8,74.8,67.5z"/>
	<path d="M109.1,27.6c0,4.8,0,9.6,0,14.4c0,1.6-1,2.2-2.4,1.7c-0.4-0.2-0.9-0.2-1.3-0.2c-7.6-0.1-15.2-0.1-22.7-0.3
		c-4.5-0.1-8.9-0.2-13.4-0.4c-1.2-0.1-2.5-0.3-2.8-1.8c0-0.2-0.5-0.5-0.7-0.5c-0.6,0.2-1.2,0.1-1.4-0.6c-0.2-0.7-0.4-1.6-0.1-2.2
		c1-2.4,2.3-4.7,3.4-7.1c1.1-2.2,2.6-4.2,4-6.2c2-2.8,4.5-5,7-7.3c1.5-1.4,3.4-2.3,5.2-3.3c2.1-1.2,4.3-2.3,6.5-3.4
		c0.8-0.4,1.6-0.7,2.4-0.9c2.1-0.5,4.2-1,6.4-1.4c1.4-0.3,2.9-0.5,4.3-0.6c0.6-0.1,1.3,0,1.9,0.2c0.5,0.2,1.2,0.6,1.2,1
		c0.1,0.9,0.6,1.4,1.3,1.8c0.8,0.5,1,1.3,1,2.1c0,4.9,0,9.9,0,14.8C108.8,27.6,108.9,27.6,109.1,27.6z"/>
	<path d="M254.2,7.4c2.2,0.4,4.4,0.8,6.6,1.3c1.7,0.4,3.4,0.8,5,1.4c2,0.7,4,1.5,5.9,2.6c2,1.1,3.9,2.3,5.7,3.7c2.4,2,4.8,4,7,6.3
		c2.4,2.4,4.4,5.2,6,8.3c1.1,2.2,2.4,4.2,3.5,6.4c0.7,1.3,1.2,2.7,1.7,4c0.4,1.2-0.6,2.1-2.1,2c-1.9-0.1-3.8-0.3-5.8-0.3
		c-10.9,0.1-21.8,0.3-32.8,0.5c-1.2,0-2.3,0.2-2.5-1.5c-0.1-0.5-1-0.8-1.5-1.3c-0.5-0.4-0.9-0.9-0.4-1.6c0.2-0.3,0.1-0.8,0.1-1.2
		c0.1-8.6,0.3-17.3,0.4-25.9c0-0.4,0-0.8-0.1-1.1c-0.6-2.5-0.1-3.1,2.5-3.2c0.3,0,0.5,0,0.8,0C254.1,7.6,254.2,7.5,254.2,7.4z"/>
	<path d="M284,238.9c0-2.8,0-5.6,0-8.5c-0.1,0-0.2,0-0.3-0.1c-0.7,1.4-1.3,2.7-2,4.1c-0.7,1.3-1.5,2.4-2.2,3.7c-0.7,1.3-1.3,2.7-2,4
		c-0.5,1-1.1,1.9-2.4,2.1c-1.3,0.1-2.4-0.6-2.8-2.2c-0.6-2.8-2.2-5-3.5-7.5c-0.7-1.2-1.1-2.6-1.6-4c-0.3-0.8-0.6-1.6-0.9-2.4
		c-0.1,0-0.2,0-0.3,0c-0.1,1.8-0.2,3.5-0.2,5.3c0,1.8,0.1,3.6,0.1,5.3c0,1.1,0.4,1.5,1.4,1.6c0.3,0,0.5,0.1,0.8,0.1
		c1.3,0.3,1.8,0.8,1.9,1.9c0,1.1-0.6,2-1.8,2.1c-1.3,0.2-2.7,0.1-4.1,0.1c-0.8,0-1.6-0.4-2.4-0.5c-0.8-0.1-1.6,0-2.3-0.1
		c-0.9-0.1-1.9,0-2.7-0.5c-1.4-0.8-1.3-2.6,0.1-3.3c0.8-0.4,1.8-0.6,2.7-0.7c0.8-0.1,1.3-0.4,1.3-1.2c0-1.1-0.1-2.2-0.1-3.4
		c0-0.7,0.1-1.4,0.1-2.1c0-0.5,0-1,0-1.4c0-1.2,0-2.3,0-3.5c0-2.5,0.1-4.9,0-7.4c0-0.5-0.8-1-1.3-1.3c-0.8-0.6-1.6-1.2-1.4-2.4
		c0.1-0.7,0.4-1.2,1.2-1.3c2.7-0.7,5.4-0.7,8.2-0.5c0.8,0.1,1.2,0.5,1.6,1.2c2.1,4.7,4.3,9.4,6.5,14.1c0.3,0.6,0.6,1.2,1.1,2.1
		c1.6-3.2,3.1-6.3,4.6-9.3c0.2-0.4,0.2-0.8,0.5-1.1c1.1-1.5,1.9-3.1,2.4-4.8c0.6-1.9,1.9-2.1,4.3-1.7c0.6,0.1,1.2,0.1,1.9,0.1
		c1,0,2-0.1,3,0c1,0.1,1.6,0.8,1.8,1.8c0.2,1-0.3,1.7-1.1,2.2c-0.1,0.1-0.3,0.2-0.4,0.2c-1.9,0.3-2.3,1.7-2.3,3.3c0,3,0.1,6,0.1,8.9
		c0,1.8,0.1,3.6,0,5.5c0,1,0.4,1.6,1.3,1.8c0.3,0.1,0.5,0.2,0.7,0.3c1,0.3,1.7,0.9,1.6,2c-0.1,1.1-0.8,1.9-1.9,2
		c-1.9,0.3-3.7,0.8-5.7,0.3c-1.3-0.3-2.8-0.1-4.1,0.1c-1.5,0.2-2.8-0.1-3.2-1c-0.4-0.9,0-2.6,1.2-3.3C282,239.5,283,239.3,284,238.9
		z"/>
	<path d="M112.5,227.5c-0.2,0.2-0.4,0.5-0.6,0.7c-1.7,2.1-3.3,4.1-4.9,6.2c-1.5,1.9-2.9,3.8-4.4,5.6c-1.5,1.9-3.1,3.7-4.7,5.5
		c-0.5,0.6-2.3,0.7-3.1,0.3c-1.2-0.6-2.3-2.8-2.2-4.1c0.1-3.2,0.1-6.5,0.2-9.8c0.1-2.2,0.2-4.5,0.3-6.7c0-1.1,0-2.3,0-3.5
		c-1.2-0.3-2.3-0.5-3.4-0.8c-1.3-0.3-2-1.2-2.1-2.5c-0.1-1.3,0.5-2.4,1.8-2.8c0.9-0.2,1.8-0.3,2.7-0.3c2.8,0.1,5.6,0.4,8.4-0.1
		c0.7-0.1,1.4,0,2,0c2.1,0,2.8,1.4,2.9,3.1c0,1.3-1.2,1.9-2.3,2.2c-1.1,0.4-2.2,0.9-2.5,2c-0.4,1.4-0.6,2.9-0.6,4.4
		c-0.1,2.2,0,4.4,0,6.6c0.1,0,0.2,0.1,0.3,0.1c0.4-0.5,0.8-0.9,1.2-1.4c1-1.3,1.8-2.8,2.9-3.9c3.2-3.1,5.4-7.1,9-9.9
		c1.1-0.9,1.9-2.2,2.8-3.4c0.8-1,1.7-1.3,2.9-1c1.1,0.4,1.6,1.3,1.6,2.4c0,2-0.2,3.9-0.3,5.9c-0.1,0.9-0.1,1.7-0.2,2.6
		c-0.1,1.3-0.3,2.6-0.3,3.9c0,2.6,0.2,5.1,0.2,7.7c0,2-0.1,2,1.9,2.4c0.3,0,0.5,0.1,0.8,0.1c2.5,0.2,2.7,2,2,3.8
		c-0.3,0.7-0.9,1.1-1.7,1c-2.5-0.3-4.9,0.4-7.3,0.8c-0.4,0.1-0.7-0.1-1.1-0.1c-2.2-0.1-4.5-0.2-6.7-0.3c-0.8,0-1.7,0-2-1
		c-0.3-1,0-2.1,0.9-2.6c1-0.5,2.1-0.7,3.1-1c0.5-0.2,1.2-0.2,1.6-0.4c0.4-0.2,0.8-0.7,0.9-1.1c0.2-3.2,0.2-6.5,0.3-9.8
		c0-0.4,0-0.7,0-1.1C112.7,227.5,112.6,227.5,112.5,227.5z"/>
	<path d="M195.3,238c0.3,0,0.6-0.1,1-0.2c1.8-0.2,2.7,0.3,2.9,2.1c0.1,1.9,0,3.9-0.1,5.9c-0.1,1-0.6,1.9-1.8,2.1
		c-1.2,0.2-2.2-0.4-2.8-1.5c0,0,0-0.1-0.1-0.1c-0.5-0.8-0.8-2.1-1.5-2.2c-1.3-0.4-2.7-0.1-4-0.1c-0.5,0-1,0.2-1.6,0.2
		c-2.8-0.1-5.7-0.1-8.5-0.2c-1,0-1.8,0.3-2.3,1.2c-0.5,0.7-0.8,1.6-1.5,2.2c-0.6,0.6-1.5,1-2.3,1.2c-0.9,0.2-1.7-0.4-1.7-1.4
		c-0.1-2.8-0.1-5.6,0.8-8.3c0.4-1.3,1.8-1.7,3.3-1.1c0.6,0.3,0.9,0.1,1.3-0.4c2.4-3.1,3.3-6.6,3.1-10.5c-0.1-0.9,0.1-1.7,0.1-2.6
		c0.1-1.2,0.2-2.5,0.3-3.8c-0.8-0.1-1.4-0.1-2-0.2c-1.6-0.2-2.3-1.2-1.7-2.7c0.4-1.2,1.2-2.1,2.6-2.4c1.6-0.2,3.1-0.6,4.7,0.1
		c0.5,0.2,1.3,0,1.9,0c3.4,0.1,6.7,0.1,10.1,0.3c0.9,0,1.8,0.4,2.6,0.8c0.9,0.5,1.2,1.4,1,2.5c-0.2,1-0.9,1.5-1.9,1.5
		c-1.3,0-1.8,0.7-1.8,2c0,1.8,0.1,3.7,0,5.5c0,0.7-0.2,1.5-0.3,2.2C195.3,232.7,195.3,235.4,195.3,238z M182.8,238.4
		c0.9,0,1.5-0.1,2.2-0.1c0.6,0,1.2-0.1,1.8,0c1.6,0.2,1.7,0.1,1.7-1.6c0-1.9,0-3.8,0-5.7c0-3.2,0-6.5,0-9.7c0-0.3-0.1-0.7-0.3-0.9
		c-0.9-0.6-2.4,0.2-2.5,1.3c-0.1,1.8-0.3,3.7-0.3,5.5C185.4,231.2,184.8,234.8,182.8,238.4z"/>
	<path d="M136.5,220.5c-0.8-0.1-1.3-0.1-1.9-0.2c-1.3-0.2-1.9-1-1.6-2.4c0.3-1.4,1.3-2.4,2.7-2.7c1.6-0.3,3.1-0.6,4.7,0
		c0.6,0.2,1.4,0,2.1,0c3.3,0.1,6.5,0.1,9.8,0.3c0.9,0.1,1.8,0.4,2.7,0.9c0.9,0.5,1.2,1.4,0.9,2.4c-0.2,1-0.9,1.4-1.9,1.5
		c-1.6,0.2-1.9,0.8-1.9,2.7c0,2.4-0.1,4.9-0.2,7.3c-0.1,3-0.1,5.9-0.1,8.9c0,0.3,0.3,0.7,0.6,0.8c0.6,0.3,1.2,0.5,1.9,0.8
		c0.9,0.4,1.7,0.8,1.6,1.9c-0.1,0.9-1.2,2-2.3,2c-1.8,0.1-3.6,0.1-5.3,0c-1.1-0.1-2.2-0.3-3.3,0c-0.7,0.2-1.8-0.3-2.4-0.8
		c-0.7-0.6-0.5-1.6,0.2-2.3c0.3-0.3,0.7-0.6,1.1-0.8c1.2-0.7,1.7-1.6,1.7-3.1c-0.1-5.3,0-10.6,0-15.9c0-0.7,0.3-1.5-1-1.5
		c-1.7,0-2.2,0.3-2.3,1.5c-0.1,2-0.1,4-0.1,6c0.1,3.7-1,7-2.6,10.3c-1,2-2.5,3.5-3.9,4.9c-1.6,1.6-4,2.5-6.4,2.3
		c-1.6-0.1-3-1.6-3.3-3.1c-0.3-1.9,0.9-4.1,2.6-4.9c1-0.5,2-0.7,3.1,0c1,0.6,2.7-0.3,3.1-1.3c1.2-3.1,1.5-6.3,1.3-9.6
		c-0.1-0.8,0.1-1.6,0.2-2.4C136.4,222.9,136.4,221.8,136.5,220.5z"/>
	<path d="M33.5,229.2c0.7,0.4,1.4,0.7,1.8,1.3c0.7,1.2,1.4,2.5,1.6,3.8c0.3,2.4,0.1,4.9-1.5,6.9c-0.4,0.5-1.1,0.9-1.7,1.3
		c-2.3,1.5-4.8,2.2-7.5,2.1c-2.6-0.1-5.3,0.1-7.9-0.1c-1,0-2.1-0.4-3.1-0.8c-1-0.4-1.1-1.4-0.9-2.3c0.3-1.5,0.9-2.1,2.1-2.2
		c0.7-0.1,1.5-0.2,2.3-0.3c0.3-4.1,0.6-8.2,0.9-12.2c0-0.5,0-0.9,0.2-1.4c0.4-1.9-0.1-3.1-1.9-4c-0.7-0.4-1.5-0.7-2.3-1.1
		c-1.9-1.1-1.8-2.9,0-4c0.4-0.2,0.9-0.5,1.4-0.5c2.5-0.2,5-0.5,7.5-0.5c1.7,0,3.3,0.3,5,0.7c3,0.7,5.2,2.5,6.2,5.3
		c0.8,2.1,0.6,4.4-0.9,6.3C34.3,228.2,33.9,228.7,33.5,229.2z M25.1,236.6C25.1,236.6,25.1,236.6,25.1,236.6c0,0.6-0.1,1.2,0.1,1.7
		c0.1,0.4,0.7,0.9,1,0.9c2.8-0.3,4.1-1.8,4.2-4.6c0-0.8-0.3-1.3-1-1.4c-3.4-0.8-4.1-0.8-4.3,2.9C25.1,236.2,25.1,236.4,25.1,236.6z
		 M25.2,225.1c0.1,0,0.1,0.1,0.2,0.1c0.1,0.8,0.2,1.6,0.2,2.4c0.1,0.8,0.6,0.9,1.2,0.7c1.8-0.4,2.3-1.3,2.4-3.1c0.1-1.5-0.8-2.4-2-3
		c-0.3-0.1-1,0-1.1,0.3C25.7,223.2,25.5,224.2,25.2,225.1z"/>
	<path d="M323.7,239c0.3-2.8,0.7-5.3,0.9-7.9c0.1-1.4,0.1-2.8,0.2-4.2c0-0.5,0.1-1.1,0.2-1.6c0.4-1.7-0.2-3-1.8-3.9
		c-0.8-0.4-1.7-0.7-2.5-1.2c-1.7-1-1.7-2.8,0-3.9c0.4-0.3,1-0.5,1.5-0.6c2.5-0.2,5-0.5,7.5-0.5c1.7,0,3.4,0.4,5.1,0.8
		c2.9,0.7,5.1,2.5,6.1,5.3c0.7,1.8,0.6,3.7-0.4,5.5c-0.5,0.8-1.1,1.5-1.7,2.4c0.6,0.4,1.3,0.6,1.7,1.1c0.7,1.2,1.5,2.4,1.7,3.7
		c0.4,2.5,0.1,5-1.6,7.1c-0.4,0.5-1.1,0.9-1.7,1.3c-2.2,1.4-4.7,2.1-7.3,2c-2.7-0.1-5.4,0.1-8.1,0c-1,0-2.1-0.4-3.1-0.7
		c-1-0.4-1.1-1.4-0.9-2.3c0.3-1.5,0.9-2.1,2-2.2C322.3,239.2,323,239.1,323.7,239z M335.5,235.3c0-1.9-0.3-2.2-2.3-2.4
		c-0.4,0-0.8,0-1.2-0.1c-0.8-0.1-1.3,0.3-1.4,1c-0.2,1-0.3,2-0.3,3c0,2.7,0.3,2.9,2.8,1.8C335,237.8,335.5,237.1,335.5,235.3z
		 M334.4,225.5c0-1.6-0.2-2.1-1.3-2.9c-1.2-0.9-2.3-0.5-2.4,1c-0.1,1.4,0,2.8,0.2,4.2c0,0.2,0.5,0.6,0.8,0.6
		C333.2,228.3,334.4,227,334.4,225.5z"/>
	<path d="M234.3,219.6c1.8,3.2,3.6,6.3,5.4,9.4c0.2,0,0.3,0,0.5-0.1c1.5-3,3-6,4.6-9.1c-0.5-0.3-0.8-0.5-1.1-0.6
		c-0.8-0.4-1.3-0.9-1.2-1.8c0.1-0.9,0.7-1.4,1.5-1.7c0.4-0.1,0.8-0.2,1.2-0.2c2.6,0,5.3,0,7.9,0c1.4,0,2,0.6,2.2,1.7
		c0.2,1.3-0.4,2.3-1.7,2.4c-2.1,0.1-3.1,1.2-3.9,3c-0.9,2-2.2,3.8-3.2,5.8c-1,1.9-1.7,3.9-2.6,5.9c-1.1,2.4-2,4.8-3.5,7
		c-1.2,1.7-3,3-4.6,4.3c-0.4,0.3-1,0.3-1.5,0.4c-1.5,0.2-3,0.4-4.5,0.6c-1.5,0.2-2.5-0.6-3.3-1.8c-0.8-1.2-0.8-2.4-0.1-3.7
		c1.2-2.2,4.1-3,6.4-1.9c0.7,0.4,2,0.5,2.6,0.1c0.6-0.4,1-1.7,0.8-2.5c-0.4-1.4-1-2.9-1.9-4.1c-1.6-2.1-2.9-4.2-4.1-6.5
		c-0.8-1.6-1.8-3.1-2.4-4.8c-0.2-0.7-1.1-1.2-1.7-1.7c-0.5-0.4-1.2-0.6-1.6-1c-0.4-0.5-0.9-1.3-0.8-1.8c0.1-0.5,1-1.1,1.6-1.2
		c1.4-0.3,2.9-0.4,4.4-0.4c2-0.1,3.9,0,5.9,0c0.9,0,1.9,0,2.2,1.2c0.2,1-0.3,2-1.5,2.5C235.7,219.2,235,219.4,234.3,219.6z"/>
	<path d="M53,234.2c-0.4,0-0.8,0-1.3,0c-0.7,0-1.1,0.3-1.2,1.1c-0.2,1.1-0.7,2.1-1.1,3.1c-0.2,0.6-0.1,0.9,0.4,1.2
		c0.5,0.4,1,0.9,1.2,1.4c0.7,1.9-0.9,3.6-3,3.1c-1.8-0.4-3.4,0.1-5.1,0.2c-1.4,0.1-2.8-0.2-4.2-0.6c-0.4-0.1-0.8-1.1-0.8-1.7
		c0.1-1.4,1.1-2.3,2.6-2.6c1.3-0.2,2.1-1,2.6-2.2c0.6-1.7,1.3-3.5,2.1-5.1c2.3-4.5,3.8-9.2,4.9-14.1c0.3-1.3,0.7-2.5,1.9-3.4
		c1.5-1.1,3.5-0.9,4.4,0.7c0.6,1,0.8,2.2,1.2,3.3c0.4,1.3,0.8,2.5,1.1,3.8c0.5,1.9,0.9,3.7,1.4,5.6c0.7,2.9,1.5,5.7,2.3,8.6
		c0.4,1.5,1.1,2.7,2.9,2.9c1,0.1,1.6,0.9,1.7,2c0,1.1-0.4,2-1.5,2.4c-0.7,0.2-1.4,0.3-2.1,0.3c-2.6,0-5.3,0-7.9,0
		c-0.9,0-2.1,0.2-2.5-1c-0.3-0.9,0.3-1.9,1.5-2.6c0.2-0.1,0.4-0.2,0.6-0.3c1.6-0.7,1.8-1.5,0.9-3c-0.3-0.4-0.5-0.8-0.6-1.3
		C54.8,233.9,55.2,234.3,53,234.2z M53.4,225.6c-0.2,0.6-0.4,1.4-0.6,2.1c-0.1,0.5-0.2,1,0,1.4c0.1,0.2,0.8,0.1,1.1,0.2
		C53.8,227.9,53.6,226.7,53.4,225.6z"/>
	<path d="M304,215.7c1.9,0.1,3.8,0.3,5.7,0.2c1,0,2-0.2,3-0.5c2.4-0.6,3.8,0.4,4.3,2.8c0.2,1.1,0.7,2.1,1.2,3.2
		c0.4,0.9,0.4,1.6-0.3,2.3c-0.8,0.6-1.7,0.7-2.5,0.1c-1-0.6-2-1.4-3.1-1.9c-0.8-0.4-1.8-0.5-2.7-0.6c-0.4,0-1,0.5-1.1,0.8
		c-0.2,1.8-0.3,3.7-0.3,5.5c0,0.2,0.6,0.6,0.8,0.6c1.3-0.3,2.7-0.2,3.8-1.2c1-0.8,2.9,0.5,2.9,2c0.1,1.1,0.1,2.1,0,3.2
		c-0.1,2-1.8,2.8-3.6,1.7c-1.1-0.7-2.2-1-3.4-0.8c-0.3,0-0.8,0.5-0.8,0.8c0,1.3,0.1,2.6,0.3,3.8c0,0.3,0.5,0.8,0.7,0.8
		c1.5,0.1,3,0.2,4.5-0.5c1-0.5,2-0.8,3.1-1.1c1-0.3,1.6,0.4,2,1.1c0.5,0.7,0.1,1.4-0.4,2.1c-0.6,0.8-1.2,1.7-1.7,2.6
		c-0.9,1.7-2,1.9-3.8,1.7c-2-0.3-4.1-0.1-6.2-0.1c-0.7,0-1.4,0.2-2.1,0.2c-1.6,0.1-3.2,0.3-4.7,0.4c-1.3,0.1-2.5-0.7-2.9-1.9
		c-0.4-1.1,0.3-2.2,1.5-2.6c1-0.3,2-0.6,3-1c0.3-0.1,0.6-0.7,0.6-1c0-1.5-0.3-3.1-0.3-4.6c0.1-3.8,0.3-7.6,0.5-11.5
		c0.1-1-0.3-1.3-1.3-1.3c-2,0.1-3.4-2-2.8-3.9c0.3-0.9,1-1.2,1.9-1.2c1.4,0,2.9,0,4.3,0C304,215.8,304,215.7,304,215.7z"/>
	<path d="M212,232.2c0,0.2-0.1,0.6,0,0.9c0.6,1.6,0.4,3.2,0,4.8c-0.2,0.9,0.2,1.4,1.1,1.4c0.5,0,0.9,0.1,1.4,0.1
		c1.5,0.2,2.1,1,1.9,2.5c-0.3,2-1.8,3.1-3.8,2.5c-2.3-0.6-4.6-0.4-7-0.1c-1.1,0.1-2.2,0.2-3.3,0.1c-1.2-0.1-2.1-0.8-2.2-2
		c-0.1-1,0-2.1,0.3-3c0.4-1.2,1.6-1.5,2.8-1.2c0.6,0.2,1.2,0.2,2,0.2c0-1.5,0-2.9,0-4.3c0.1-1.6,0.2-3.1,0.3-4.7
		c0-1.4-0.1-2.8-0.1-4.2c0-1.3-0.2-2.6,0.1-3.8c0.2-1-0.1-1.2-0.9-1.3c-0.9-0.1-1.8-0.3-2.6-0.6c-1.4-0.5-1.8-1.4-1.3-2.6
		c0.6-1.4,2.3-2.2,3.4-1.7c0.4,0.2,0.9,0.4,1.4,0.3c4.1-0.2,8.2,0.3,12.2,0.8c1.2,0.1,2.2,0.8,2.9,1.8c2.5,3.5,3,7.4,1.5,11.4
		c-0.6,1.6-1.8,2.7-3.6,3.2c-1.4,0.4-2.7,1.1-4.2,0.5C213.7,233.1,212.9,232.6,212,232.2z M212,229.6c1-0.3,1.9-0.8,2.8-1
		c1.2-0.3,1.8-1,2.1-2.1c0.1-0.7,0.3-1.4,0.2-2.1c-0.1-0.5-0.4-1.3-0.8-1.5c-1.1-0.6-2.3-0.9-3.5-1.3c-0.6-0.2-0.9,0.1-0.9,0.8
		C212,224.9,212,227.3,212,229.6z"/>
	<path d="M73.8,229.3c0,2.9,0.4,5.4,1.4,7.7c0.4,0.8,0.8,1.1,1.9,1c1.9-0.2,3.3-1,4.4-2.4c0.4-0.5,0.9-0.9,1.5-1.2
		c1.5-0.7,2.9,0.2,2.7,1.9c0,0.6-0.2,1.1-0.4,1.6c-1.2,2.6-2.8,4.9-5.3,6.3c-4.3,2.3-9.1,1.2-11-3.7c-0.7-1.8-0.7-3.9-1.3-5.8
		c-0.6-1.7-0.3-3.3,0-4.9c0-0.2,0.1-0.4,0-0.6c-1-2.9,0.5-5.2,1.6-7.6c1.2-2.8,3.4-4.3,5.8-5.6c0.9-0.5,1.9-0.7,2.9-0.8
		c1.4-0.2,2.8-0.3,4.1-0.5c1.3-0.2,2.4,0.5,2.8,2c0.4,1.7,0.4,3.4-0.7,4.9c-1.1,1.6-2.6,2.1-4.3,1.3c-1.8-0.8-2.5-0.7-4,0.7
		C74.4,225.2,73.4,227.1,73.8,229.3z"/>
	<path d="M161,158.6c0,2.3,0,4.6,0,6.9c0,1.2-0.6,2.4-0.1,3.7c0.1,0.2-0.2,0.6-0.3,0.9c-0.1,0.3-0.2,0.6-0.2,1
		c0.1,1.1,0.3,2.2,0.5,3.3c0.2,0.9,0.4,1.8,0.5,2.7c0,0.3,0,0.8-0.2,1c-0.6,0.8-0.3,1.2,0.5,1.3c0.9,0.1,1.2,0.6,1.1,1.4
		c-0.1,0.8-0.8,0.7-1.3,0.7c-2.3,0-4.7,0-7,0c-1.4,0-1.6-0.2-1.1-1.5c0.1-0.2,0.1-0.8-0.1-0.8c-1.4-0.6-0.7-1.7-0.6-2.7
		c0-0.8,0.3-1.6,0.3-2.3c0-5.6,0.1-11.3,0-16.9c0-1.3-0.4-2.6-0.8-3.8c-0.1-0.2-0.5-0.5-0.7-0.6c-1-0.1-1.8-0.7-1.6-1.4
		c0.2-0.8,1.1-1.4,1.9-1.9c1.4-0.8,3-1.4,4.4-2.3c1.1-0.7,1.9-1,2.5-0.4c0.1,0.1,0.3,0.2,0.3,0.4c0,1.3,0.3,2.2,1.8,2.5
		c0.2,0,0.3,0.8,0.3,1.2C161.1,153.6,161.1,156.1,161,158.6C161,158.6,161,158.6,161,158.6z"/>
	<path d="M98.3,200.7c0.9-2.1,1.7-3.9,2.5-5.6c0.1-0.3,0.5-0.6,0.9-0.7c0.6-0.1,1.3-0.1,1.9,0c0.3,0,0.7,0.3,0.8,0.5
		c0.1,0.2-0.2,0.5-0.4,0.8c-0.2,0.4-0.7,0.8-0.7,1.2c-0.1,1.8,0,3.6,0,5.4c0,0.3,0.5,0.6,0.7,0.9c0.2,0.2,0.4,0.5,0.4,0.7
		c0,0.1-0.4,0.4-0.6,0.4c-1.4,0-2.8,0-4.2,0c-0.3-1.1,0.4-1.3,1.3-1.4c0-1.1-0.1-2.1-0.1-3.1c-0.1,0-0.1,0-0.2-0.1
		c-0.6,1.2-1.2,2.5-1.9,3.7c-0.2,0.4-0.7,0.6-1.1,1c-0.3-0.4-0.6-0.7-0.8-1.1c-0.7-1.5-1.3-3-2.1-4.5c0,1.3,0,2.6,0,3.9
		c0,0.2,0.4,0.4,0.7,0.6c0.2,0.2,0.4,0.4,0.6,0.7c-0.3,0.2-0.6,0.5-0.9,0.5c-0.9,0-1.7-0.2-2.6-0.2c-1.8,0-3.7,0-5.8,0
		c0.3-0.5,0.4-0.8,0.6-1c0.2-0.3,0.8-0.5,0.7-0.7c-0.1-0.7-0.3-1.3-0.7-1.9c-0.1-0.1-1.2,0.1-1.2,0.3c-0.2,0.7-0.9,1.4-0.1,2.2
		c0.4,0.4,0.3,1-0.4,1.1c-0.9,0.1-1.9,0.1-2.8,0.1c-0.3,0-0.6-0.4-0.9-0.5c0.2-0.3,0.4-0.6,0.6-0.8c0.4-0.4,0.9-0.7,1.1-1.2
		c0.9-2.3,1.6-4.7,2.4-7.1c0.2-0.6,0.4-1.1,1.2-1.1c0.8,0,1,0.6,1.1,1.2c0.5,2.3,1.1,4.6,1.6,6.8c0.2,0.8,0.7,1.2,1.4,1.4
		c1,0.3,1.7-0.2,1.7-1.1c0-1.8,0.1-3.6,0-5.4c0-0.4-0.3-0.9-0.6-1.3c-0.5-0.6-0.7-1,0.3-1.1c0.8-0.1,1.6-0.1,2.4-0.1
		c0.3,0,0.5,0.5,0.7,0.8C96.7,196.9,97.4,198.6,98.3,200.7z"/>
	<path d="M209.6,196c-0.3-0.3-0.5-0.6-0.8-0.9c0.4-0.3,0.8-0.8,1.1-0.8c1.9,0,3.7,0.1,5.6,0.2c0.3,0,0.6,0.3,0.7,0.6
		c0.1,0.2-0.3,0.5-0.4,0.7c-0.2,0.4-0.7,0.8-0.7,1.2c-0.1,1.7,0,3.5-0.1,5.2c0,0.7,0.1,1.2,0.8,1.4c0.2,0.1,0.3,0.4,0.5,0.7
		c-0.2,0.1-0.4,0.4-0.6,0.4c-1.2,0-2.5,0-3.8,0c0.1-0.4,0.1-0.7,0.2-0.8c1.1-0.7,1-1.7,1-2.7c0-1.5,0-3,0-4.5c0-0.3-0.4-0.6-0.5-0.9
		c-0.2,0.3-0.6,0.6-0.6,0.9c-0.1,2,0.1,4.1-1.1,5.9c-0.5,0.7-1.1,1.4-1.7,1.9c-0.3,0.3-1.1,0.6-1.3,0.4c-1-0.7-2.1,0-3.1-0.2
		c-1.3-0.2-2-1.1-2.5-2.3c-0.4-0.9-0.7-1.9-1.9-2.4c0.1,0.8,0,1.5,0.2,2.2c0.1,0.4,0.6,0.7,0.9,1c0.2,0.2,0.4,0.5,0.6,0.7
		c-0.3,0.2-0.5,0.5-0.8,0.6c-0.1,0.1-0.3,0-0.4,0c-1.1,0-2.2,0.1-3.4,0.1c-0.4,0-0.8-0.3-1.1-0.4c0.3-0.4,0.6-0.9,0.9-1.2
		c0.2-0.2,0.6-0.2,1-0.3c0-1.2,0-2.5,0-3.7c0-0.5-0.1-1.1,0-1.6c0.1-0.8-0.1-1.4-0.9-1.7c-0.2-0.1-0.5-0.5-0.5-0.7
		c0-0.3,0.4-0.6,0.6-0.6c1.1-0.1,2.1-0.1,3.2,0c0.6,0.1,0.9,0.6,0.3,1.1c-0.7,0.6-0.7,1.2-0.3,2.1c0.4-0.8,0.7-1.4,1-2
		c0.6-1.2,1.7-1.7,2.9-1.4c0.4,0.1,0.9,0.7,0.9,1c0,0.3-0.5,0.7-0.9,1c-0.6,0.4-1.3,0.5-1.8,1c-1.1,1.1-1,1.2,0.2,2.2
		c0.3,0.3,0.5,0.7,0.8,1.1c0.9,1,1.8,1.9,2.6,2.8c0.1-0.2,0.1-0.3,0.2-0.5c0.6-0.2,1.3-0.5,1.9-0.5c0.7,0,1-0.2,1.1-0.8
		c0.2-1.9,0.4-3.7,0.7-5.6C209.8,196,209.7,196,209.6,196z"/>
	<path d="M278.8,195.7c-0.1-1.3,0.7-1.4,1.7-1.4c1.2,0.1,2.3-0.1,3.5,0c0.4,0,0.7,0.5,1.1,0.7c-0.2,0.3-0.5,0.5-0.7,0.8
		c-0.2,0.3-0.6,0.6-0.7,1c-0.1,0.5,0,1.1,0,1.8c0.7,0.1,1.3,0.1,1.9,0.2c1.5,0.2,2,0.9,2.1,2.4c0.1,2.5-0.8,3.4-3.4,3.5
		c-0.9,0-1.9,0.1-2.8,0c-0.5-0.1-1-0.4-1.5-0.7c0.3-0.4,0.7-0.8,1-1.2c0.1,0.1,0.2,0.1,0.3,0.2c0.2-2.3,0.5-4.6-0.2-7.3
		c-0.5,0.6-0.8,1-1.1,1.4c-0.5,0.9-0.9,0.9-1.4,0.2c-0.4,0.1-0.7,0.4-1,0.3c-0.2,0-0.5-0.4-0.6-0.7c-0.2-0.8-0.6-1.2-1.4-1
		c-0.8,0.1-1.1,0.6-1.1,1.4c0.1,1.4,0,2.7,0,4.1c0,0.9,0.3,1.5,1.2,1.6c0.7,0.1,1.2,0.4,1,1.2c-0.2,0.8-0.8,0.6-1.5,0.6
		c-1.6-0.1-3.1,0-4.7-0.1c-0.3,0-0.5,0-0.8,0c-0.1-1.1,0.4-1.7,1.3-1.8c0.9-0.2,1.1-0.7,1.1-1.5c0-1.4,0.1-2.7,0.1-4.1
		c0-0.4-0.4-1-0.6-1c-0.7-0.1-1.6-0.4-1.9,0.6c-0.1,0.3-0.1,0.6-0.3,0.7c-0.2,0.2-0.6,0.4-0.9,0.3c-0.2,0-0.5-0.4-0.5-0.6
		c0.1-0.9,0.2-1.9,0.4-2.8c0-0.2,0.6-0.5,0.9-0.4c2.4,0.8,4.9,0.2,7.3,0.3c0,0,0.1,0,0.1,0C278.4,194,278.4,194,278.8,195.7z
		 M283.4,202c0.1,0.2,0.4,0.9,0.7,1c0.8,0.2,1.5-0.7,1.5-1.6c0-0.9-0.3-1.3-1.2-1.3C283.3,200.1,283.6,201,283.4,202z"/>
	<path d="M133.5,198.5c-1.4,2-2.8,3.9-4.2,5.9c-0.4,0.6-1,1.1-1.6,0.7c-0.4-0.3-0.6-1.1-0.7-1.6c0-2,0-4.1,0.1-6.1
		c0-0.8-0.3-1.1-1-1.3c-0.3-0.1-0.6-0.5-0.8-0.8c0.3-0.3,0.6-0.7,0.9-0.8c1.3-0.1,2.6-0.1,4-0.1c0.3,0,0.7,0.3,0.8,0.5
		c0.1,0.3-0.1,0.8-0.3,0.9c-1.1,0.4-1.3,1.4-1.3,2.4c0,0.9,0,1.7,0.2,2.6c0.7-0.9,1.4-1.8,2.1-2.7c1-1.2,1.9-2.5,3-3.7
		c0.2-0.3,0.8-0.4,1.2-0.4c0.2,0,0.4,0.6,0.4,1c0,2.3-0.1,4.5-0.2,6.8c0,0.7,0,1.2,0.9,1.3c0.9,0,0.7,0.7,0.6,1.4c-2,0-4,0-6,0
		c-0.1-0.1-0.2-0.2-0.2-0.3c0.3-0.3,0.6-0.7,0.9-0.8c1.1-0.2,1.5-0.6,1.4-1.8c-0.1-1,0.1-2,0.1-3.1
		C133.6,198.6,133.6,198.6,133.5,198.5z"/>
	<path d="M64.4,205.9c0-0.9,0-1.8,0.2-2.7c0-0.2,0.4-0.7,0.6-0.6c1.1,0.1,1.5-0.6,1.6-1.4c0.3-1.7,0.5-3.5,0.8-5.2
		c-0.1,0-0.2,0.1-0.4,0.1c-0.3-0.3-1-0.7-1-1c0-0.9,0.9-0.9,1.6-0.9c1.6,0,3.2,0.1,4.9,0.2c0.3,0,0.7,0.4,1,0.5
		c-0.2,0.3-0.5,0.6-0.6,0.8c-0.2,0.3-0.5,0.6-0.5,0.9c0,1.9,0,3.8,0,5.7c0.3,0.2,1,0.3,1.1,0.6c0.1,0.8,0.1,1.7,0,2.6
		c0,0.1-0.4,0.4-0.6,0.3c-0.3-0.1-0.7-0.3-0.8-0.5c-0.3-1-1-1-1.9-0.9c-0.9,0.1-1.7,0-2.6,0c-0.8-0.1-1.3,0.2-1.8,0.9
		c-0.2,0.4-0.8,0.6-1.1,0.9C64.6,206.1,64.5,206,64.4,205.9z M70.2,195.8c-1-0.2-0.9,0.5-1,1c-0.2,2-0.4,3.9-0.7,5.9
		c0.4,0,1-0.1,1.7-0.1C70.2,200.3,70.2,198.1,70.2,195.8z"/>
	<path d="M178.7,200.1c0.1,0.8,0,1.5,0.2,2.1c0.1,0.4,0.6,0.7,1,1.1c0.2,0.2,0.6,0.5,0.5,0.7c-0.1,0.3-0.4,0.5-0.7,0.6
		c-0.1,0.1-0.4,0-0.6,0c-1.1,0-2.2,0.1-3.4,0.1c-0.4,0-0.8-0.3-1.1-0.4c0.3-0.4,0.6-0.9,0.9-1.2c0.2-0.2,0.6-0.2,1-0.3
		c0-1.2,0-2.5,0-3.7c0-0.5-0.1-1.1,0-1.6c0.1-0.8-0.1-1.4-0.9-1.7c-0.2-0.1-0.5-0.5-0.5-0.7c0-0.3,0.4-0.6,0.6-0.7
		c1-0.1,2.1-0.1,3.2,0c0.6,0.1,0.9,0.6,0.3,1c-0.8,0.6-0.7,1.3-0.3,2.2c0.4-0.8,0.7-1.4,1.1-2.1c0.6-1.1,1.5-1.6,2.8-1.4
		c0.7,0.1,1.2,0.4,1,1.2c-0.1,0.4-0.6,0.7-1,0.9c-0.5,0.3-1.2,0.4-1.5,0.8c-1.2,1.3-1.1,1.3,0.1,2.5c0.7,0.7,1.2,1.7,1.9,2.5
		c0.2,0.3,0.7,0.4,1,0.6c0.3,0.3,0.7,0.8,0.7,1.2c0,0.3-0.6,0.8-0.9,0.8c-1.4,0.3-2.5-0.5-3.3-2.1
		C180.2,201.7,179.9,200.6,178.7,200.1z"/>
	<path d="M224.7,195.3c0.2-1.1,1.3-1.3,4.3-0.8c0.1,0.6,0.2,1-0.6,1.3c-1.2,0.4-0.4,1.4-0.5,2.1c-0.1,0.6,0.4,0.8,1,0.8
		c0.1,0,0.3,0.1,0.4,0.1c0.7-0.1,1.5-0.2,2.2-0.3c-0.2-1-0.3-1.9-0.5-2.9c-0.1-0.3-0.2-0.7-0.1-0.9c0.1-0.2,0.5-0.4,0.8-0.3
		c0.8,0.1,1.6,0.2,2.3,0.3c0.3,0.1,0.5,0.4,0.8,0.7c-0.2,0.2-0.5,0.4-0.7,0.7c-0.2,0.3-0.5,0.6-0.5,1c-0.1,1.9-0.2,3.8-0.2,5.6
		c0,0.3,0.5,0.7,0.8,1c0.2,0.2,0.3,0.4,0.5,0.7c-0.3,0.2-0.5,0.4-0.8,0.5c-0.9,0.1-1.9,0-2.8,0c-0.2,0-0.6-0.1-0.6-0.3
		c-0.1-0.2,0.1-0.5,0.2-0.7c0.2-0.3,0.6-0.6,0.6-0.9c0-0.8,0.2-2.1-0.2-2.3c-0.8-0.4-1.9-0.3-2.9-0.3c-0.1,0-0.3,0.1-0.3,0.3
		c-0.4,0.6,0,2.7,0.5,3.3c0.2,0.2,0.3,0.5,0.4,0.7c-0.3,0.1-0.5,0.3-0.8,0.3c-0.8,0-1.6,0-2.4-0.1c-0.3-0.1-0.8-0.3-0.9-0.6
		c-0.1-0.2,0.3-0.6,0.5-1c0.2-0.5,0.5-1,0.5-1.5c0.1-1.6,0.1-3.2,0-4.8c0-0.5-0.5-1-0.7-1.4C224.9,195.3,224.8,195.3,224.7,195.3z"
		/>
	<path d="M154.3,204.7c0.3-0.6,0.5-0.9,0.7-1.2c0.2-0.3,0.5-0.6,0.5-0.9c0-0.8,0.1-2-0.2-2.2c-0.8-0.4-1.9-0.3-2.9-0.3
		c-0.1,0-0.3,0.1-0.4,0.2c-0.4,0.5,0,2.8,0.5,3.3c0.2,0.2,0.3,0.5,0.4,0.7c-0.3,0.1-0.5,0.3-0.8,0.3c-0.9,0-1.7,0-2.6-0.1
		c-0.3,0-0.7-0.3-0.7-0.5c-0.1-0.3,0.1-0.8,0.3-0.9c0.9-0.3,0.7-1,0.7-1.7c0-1.6,0-3.1,0-4.7c0-0.4-0.4-0.8-0.6-1.1
		c-0.1-0.2-0.5-0.5-0.4-0.6c0.1-0.3,0.4-0.6,0.7-0.6c1.2-0.1,2.3,0,3.6,0c0.1,0.7,0.3,1.2-0.5,1.4c-1.2,0.4-0.4,1.4-0.5,2
		c-0.1,0.6,0.4,0.8,0.9,0.8c0.2,0,0.4,0.1,0.6,0.1c0.7-0.1,1.4-0.2,2.1-0.3c-0.2-1-0.3-1.9-0.5-2.9c-0.1-0.3-0.3-0.7-0.1-0.9
		c0.1-0.2,0.6-0.4,0.9-0.3c0.7,0,1.5,0.1,2.2,0.3c0.3,0.1,0.6,0.5,0.8,0.8c-0.2,0.2-0.5,0.4-0.6,0.6c-0.2,0.3-0.5,0.6-0.6,1
		c-0.1,1.9-0.2,3.8-0.2,5.6c0,0.3,0.5,0.7,0.8,1c0.2,0.2,0.3,0.5,0.5,0.8c-0.2,0.1-0.5,0.4-0.7,0.4
		C156.9,204.7,155.8,204.7,154.3,204.7z"/>
	<path d="M164,204.6c-3.3-0.1-5.4-2.9-4.6-6.3c0.1-0.2,0.2-0.4,0.2-0.7c0.3-1.9,1.3-3.1,3.3-3.3c1.8-0.2,3.6,0,4.8,1.8
		c1.7,2.5,0.7,7-2,8.2C165.2,204.6,164.6,204.5,164,204.6z M166.4,199.9c0.2-1.5-0.7-2.5-1.6-3.5c-0.7-0.7-1.7-0.6-2.2,0
		c-1.3,1.9-1.2,3.9,0.4,5.5c0.4,0.4,1.3,1,1.6,0.9c0.7-0.4,1.2-1.1,1.7-1.8C166.4,200.8,166.3,200.3,166.4,199.9z"/>
	<path d="M144.8,201c-0.6,0.2-1.1,0.4-1.5,0.4c-2.9,0.2-3.8-1-3.9-4c0-0.8,0.3-1.6-0.8-2.1c-0.5-0.2-0.3-1,0.4-1
		c1.1-0.1,2.2-0.1,3.3,0c0.2,0,0.5,0.3,0.5,0.4c-0.1,0.3-0.3,0.8-0.5,0.9c-1.4,0.6-0.6,1.7-0.5,2.5c0.1,0.9,0.8,1.4,1.7,1.2
		c0.9-0.2,1.6-0.6,1.5-1.6c0-0.8,0.1-1.7-0.6-2.4c-0.5-0.5-0.2-1,0.5-1.1c0.9,0,1.8,0,2.7,0.1c0.2,0,0.6,0.2,0.6,0.4
		c0,0.3-0.1,0.6-0.3,0.8c-0.9,0.5-0.9,1.2-0.9,2c0,1.5,0,2.9-0.1,4.4c0,0.7,0.1,1.2,0.8,1.5c0.2,0.1,0.4,0.4,0.5,0.6
		c-0.3,0.2-0.5,0.5-0.8,0.5c-1.1,0.1-2.2,0-3.3,0c-0.2,0-0.5-0.2-0.6-0.4c-0.1-0.1,0.1-0.5,0.3-0.5
		C145.1,203.1,144.9,202.1,144.8,201z"/>
	<path d="M116.2,204.6c0-1,0.5-1.6,1.4-1.8c0.9-0.2,1.1-0.6,1.1-1.4c0-1.4,0.1-2.7,0.1-4.1c0-0.4-0.4-1.1-0.6-1.1
		c-0.7,0-1.7-0.5-2,0.7c-0.1,0.2-0.1,0.5-0.2,0.6c-0.2,0.2-0.6,0.4-0.8,0.4c-0.2,0-0.6-0.5-0.5-0.7c0.1-0.9,0.2-1.8,0.4-2.7
		c0.1-0.2,0.6-0.5,0.8-0.5c2.4,0.8,4.8,0.3,7.2,0.3c0.1,0,0.2,0,0.3,0c1.6-0.4,1.6-0.4,1.6,1.3c0,0.2,0,0.3,0,0.5
		c-0.2,0.5-0.3,1.3-0.7,1.4c-0.8,0.3-0.7-0.6-1-1c-0.2-0.3-0.8-0.7-1.1-0.6c-0.4,0.1-1.1,0.5-1.2,0.9c-0.1,1.7-0.1,3.3,0,5
		c0,0.9,0.8,1.1,1.5,1.3c0.3,0.1,0.5,0.7,0.8,1c-0.4,0.2-0.7,0.7-1.1,0.7c-1.8,0-3.7,0-5.5-0.1C116.5,204.7,116.3,204.7,116.2,204.6
		z"/>
	<path d="M241.8,204.7c0-1.2,0.6-1.7,1.5-1.9c0.8-0.1,1-0.6,1-1.4c0-1.4,0.1-2.8,0.1-4.2c0-0.4-0.4-1-0.6-1c-0.7,0-1.6-0.5-1.9,0.6
		c-0.1,0.2-0.1,0.5-0.2,0.6c-0.3,0.2-0.6,0.5-0.9,0.4c-0.2,0-0.5-0.5-0.5-0.7c0.1-0.9,0.2-1.8,0.4-2.7c0.1-0.2,0.6-0.5,0.8-0.4
		c2.4,0.8,4.9,0.2,7.3,0.3c0,0,0.1,0,0.1,0c0.5,0,1.2-1,1.5-0.1c0.3,1,0.1,2.1,0,3.1c0,0.1-0.5,0.3-0.7,0.2
		c-0.3-0.1-0.5-0.4-0.6-0.7c-0.2-1.1-0.8-1.3-1.7-0.9c-0.3,0.1-0.7,0.6-0.7,0.9c-0.1,1.6,0,3.1,0,4.7c0,0.8,0.4,1.3,1.2,1.4
		c0.7,0.1,1.2,0.4,1,1.2c-0.2,0.8-0.8,0.6-1.5,0.6c-1.6-0.1-3.1-0.1-4.7-0.1C242.4,204.7,242.2,204.7,241.8,204.7z"/>
	<path d="M185,194.4c1.8,0,3.3,0,5.1,0c-0.6,0.5-0.9,0.9-1.4,1.3c0.5,1.1,1.1,2.2,1.9,3.6c0.6-1.2,1-2.1,1.4-3.1
		c0.1-0.3,0-0.7-0.2-0.9c-0.4-0.5-0.3-0.9,0.3-0.9c1-0.1,2-0.1,3.1,0c0.2,0,0.5,0.3,0.5,0.4c-0.1,0.2-0.3,0.6-0.5,0.6
		c-0.8,0.1-1,0.6-1.3,1.2c-1,2.2-2,4.4-3,6.6c-0.7,1.5-2.5,2.4-4,2c-0.3-0.1-0.7-0.5-0.7-0.8c0-0.4,0.2-1.1,0.5-1.3
		c0.4-0.3,1.1-0.3,1.6-0.2c0.9,0.2,1.4-0.2,1.2-1.1c-0.1-0.5-0.3-0.9-0.5-1.4c-0.7-1.4-1.4-2.8-2.2-4.2c-0.2-0.3-0.6-0.6-0.8-0.9
		C185.6,195.2,185.5,194.9,185,194.4z"/>
	<path d="M109.8,204.5c0.2-0.4,0.3-0.7,0.4-0.9c0.3-0.3,0.8-0.5,0.8-0.8c0-0.6-0.2-1.2-0.5-1.7c-0.2-0.2-1.1-0.2-1.2-0.1
		c-0.3,0.7-1,1.4-0.4,2.2c0.4,0.5,0.5,1.1-0.4,1.2c-0.9,0.1-1.8,0.1-2.7,0.1c-0.3,0-0.6-0.3-0.9-0.5c0.2-0.3,0.4-0.6,0.6-0.9
		c0.3-0.4,0.9-0.7,1-1.1c0.9-2.4,1.6-4.8,2.4-7.2c0.2-0.6,0.5-1.1,1.2-1.1c0.8,0,1,0.6,1.1,1.2c0.5,2.2,1,4.3,1.5,6.5
		c0.2,0.7,0.3,1.4,1.2,1.6c0.2,0,0.4,0.6,0.3,0.8c0,0.2-0.4,0.4-0.6,0.5C112.5,204.5,111.3,204.5,109.8,204.5z"/>
	<path d="M263.4,204.1c0.4-0.4,0.8-0.7,1.3-1.1c-0.2-0.5-0.2-1.2-0.6-1.7c-0.2-0.2-1.2-0.3-1.2-0.3c-0.2,0.7-0.4,1.5-0.5,2.2
		c0,0.3,0.3,0.8,0.2,1c-0.2,0.2-0.6,0.3-1,0.3c-0.7,0.1-1.4,0.2-2.1,0.1c-0.3,0-0.7-0.3-1-0.5c0.2-0.3,0.4-0.6,0.7-0.9
		c0.3-0.4,0.8-0.7,1-1.1c0.8-2.3,1.6-4.7,2.4-7.1c0.2-0.7,0.4-1.2,1.3-1.2c0.8,0,0.9,0.6,1.1,1.2c0.5,2.2,1,4.5,1.6,6.7
		c0.1,0.5,0.7,0.9,1,1.3c0.2,0.2,0.5,0.6,0.4,0.8c0,0.2-0.4,0.5-0.7,0.5c-1.2,0.1-2.5,0-3.7,0C263.6,204.3,263.5,204.2,263.4,204.1z
		"/>
	<path d="M220.6,199c0.5-0.1,0.9-0.2,1.2-0.2c0.4,0,1.1-0.1,1.1,0c0.1,0.6,0.1,1.2,0.1,1.8c0,0.1-0.8,0.1-1.2,0.1
		c-0.4,0-0.8-0.1-1.1-0.1c0,0.7,0,1.3,0.1,2c0,0.2,0.7,0.3,1.1,0.2c0.5-0.1,1-0.4,1.5-0.5c0.7-0.1,1,0.2,0.6,0.9
		c-0.5,0.9-0.9,1.8-2.4,1.4c-1-0.3-2.2,0.2-3.3,0.2c-0.5,0-1-0.3-1.4-0.5c0.3-0.3,0.6-0.6,0.9-0.9c0.3-0.3,0.7-0.5,0.8-0.8
		c0.1-2.1,0-4.2,0-6.3c-0.2-0.1-0.6-0.1-0.7-0.2c-0.3-0.3-0.5-0.6-0.6-1c0-0.1,0.5-0.4,0.7-0.5c1.5-0.1,3-0.2,4.5-0.2
		c0.8,0,1,0.4,1.1,1c0.1,0.6,0.2,1.1,0.3,1.7c-0.6-0.2-1.2-0.3-1.7-0.6c-1.1-0.5-1.4-0.4-1.6,0.8C220.5,197.7,220.6,198.3,220.6,199
		z"/>
	<path d="M252.7,196.1c-0.4-0.1-0.7,0-0.9-0.2c-0.2-0.3-0.4-0.6-0.4-1c0-0.1,0.4-0.4,0.7-0.4c1.5-0.1,3.1-0.2,4.6-0.2
		c0.3,0,0.7,0.4,0.9,0.7c0.2,0.3,0.3,0.7,0.4,1.1c0.1,0.3,0,0.6,0,0.8c-0.4,0-0.7,0-1-0.1c-0.7-0.2-1.3-0.4-1.9-0.7
		c-0.1,0.8-0.3,1.5-0.4,2.3c0,0.1,0.1,0.3,0.2,0.5c0.4-0.1,0.8-0.3,1.2-0.3c0.3,0,0.9,0,1,0.1c0.1,0.6,0.2,1.2,0.1,1.8
		c0,0.1-0.6,0.2-1,0.2c-0.2,0-0.5-0.3-0.7-0.3c-0.2,0-0.7,0.1-0.7,0.2c0,0.7,0,1.3,0.1,2c0,0.2,0.8,0.1,1.2,0.2
		c0.1,0,0.1-0.1,0.2-0.1c0.6-0.1,1.2-0.1,1.8-0.2c-0.1,0.3,0,0.6-0.2,0.8c-0.4,0.6-0.5,1.5-1.8,1.3c-1.2-0.2-2.5,0-3.7,0.1
		c-0.3,0-0.6,0.1-0.8,0c-0.3-0.1-0.6-0.4-0.7-0.6c-0.1-0.1,0.3-0.5,0.5-0.6c1.2-0.3,1.3-1,1.2-2.1c-0.1-1,0-2,0.1-3.1
		C252.7,197.6,252.7,196.9,252.7,196.1z"/>
	<path d="M289.6,202.7c0-1.8,0-3.5,0-5.3c0-0.2-0.1-0.5,0-0.7c0.2-0.7,0-1-0.7-1.1c-0.3-0.1-0.6-0.5-0.8-0.7c0.3-0.2,0.7-0.6,1-0.6
		c1.5,0.1,3,0.2,4.5,0.4c0.5,0.1,1.2,0.5,1.3,0.9c0.3,1.1,0.4,2.4,0.3,3.5c-0.1,1.1-1.7,1.8-2.7,1.3c-0.3-0.1-0.5-0.4-0.6-0.7
		c0-0.1,0.3-0.5,0.6-0.6c1-0.3,1.3-1.1,1.1-1.8c-0.2-0.5-0.9-0.9-1.3-1.4c-0.1,0.1-0.3,0.2-0.4,0.2c0,1.4,0,2.8,0,4.2
		c0,0.6,0,1.1,0.1,1.7c0.1,0.3,0.4,0.6,0.7,0.9c0.2,0.3,0.5,0.5,0.7,0.8c-0.3,0.2-0.6,0.7-1,0.7c-1,0.1-2.1,0-3.1,0
		c-0.8,0-1.2-0.2-1.2-1.1c0.1-0.9,0.6-0.9,1.3-0.8C289.3,202.8,289.4,202.8,289.6,202.7z"/>
	<path d="M75.7,202.8c0-1.8,0-3.5,0-5.3c0-0.3-0.1-0.6,0-0.8c0.2-0.7-0.1-0.9-0.7-1.1c-0.3-0.1-0.6-0.5-0.9-0.8
		c0.4-0.2,0.7-0.5,1.1-0.5c1.4,0.1,2.8,0.3,4.3,0.4c0.9,0,1.5,0.5,1.6,1.3c0.2,1,0.3,2,0.2,3c-0.1,1.1-1.7,1.9-2.7,1.5
		c-0.3-0.1-0.5-0.4-0.6-0.7c0-0.1,0.3-0.5,0.5-0.6c1-0.2,1.3-1,1.1-1.8c-0.2-0.6-0.8-1-1.3-1.4c-0.2,0.1-0.3,0.1-0.5,0.2
		c0,1.4,0,2.9,0,4.3c0,0.5,0.1,1,0.1,1.5c-0.1,0.6,0,1,0.7,1.1c0.2,0,0.6,0.6,0.6,0.7c-0.1,0.3-0.5,0.7-0.8,0.7
		c-1.2,0.1-2.3,0-3.5,0c-0.7,0-1-0.3-1-1c0-0.8,0.4-1,1.1-0.8C75.2,202.8,75.4,202.8,75.7,202.8z"/>
	<path d="M347.2,217.7c-0.1,0.9-0.4,1.8-1.5,2.2c-0.9,0.3-1.6-0.2-2-0.9c-0.3-0.4-0.4-1.2-0.2-1.7c0.5-1.1,0.2-2-0.5-2.9
		c-0.2-0.3-0.6-0.5-0.7-0.9c-0.2-0.4-0.2-0.9-0.3-1.3c0.4,0,0.9-0.2,1.3-0.1C344.9,212.7,347.1,215.8,347.2,217.7z"/>
	<path d="M9.7,239.8c1.2,0,2.4,1.5,1.9,2.5c-0.7,1.3-0.2,2.3,0.7,3.3c0.1,0.1,0.2,0.2,0.2,0.3c0.2,0.6,0.4,1.1,0.6,1.7
		c-0.6-0.1-1.4,0-1.8-0.3c-1.6-1.2-3.1-2.5-3.3-4.6C7.7,241.3,8.6,239.8,9.7,239.8z"/>
	<path d="M352.5,217.5c0,1-0.4,2-1.3,2.3c-0.5,0.2-1.5-0.1-1.9-0.5c-0.4-0.4-0.7-1.4-0.4-1.9c0.5-1.2,0.1-2.1-0.6-3
		c-0.2-0.3-0.5-0.5-0.6-0.8c-0.2-0.4-0.2-0.9-0.3-1.3c0.4,0,0.9-0.2,1.3-0.1C350.4,212.8,352.5,215.7,352.5,217.5z"/>
	<path d="M2.5,242.3c0-1.1,0.4-2.1,1.4-2.3c0.6-0.1,1.5,0.3,1.9,0.8c0.3,0.4,0.5,1.3,0.3,1.7c-0.5,1.2-0.1,2,0.5,2.9
		c0.3,0.4,0.7,0.8,1,1.3c0.1,0.2,0.2,0.6,0.1,0.8c-0.1,0.2-0.5,0.2-0.8,0.3c-0.1,0-0.3,0-0.4-0.1C4.7,247.1,2.5,244.1,2.5,242.3z"/>
	<path d="M173.7,197.9c-0.1,1.4-2,2.7-3.9,2.6C169.5,199.2,171.5,197.8,173.7,197.9z"/>
</g>
</svg>
