<?xml version="1.0" encoding="utf-8"?>
<!-- Generator: Adobe Illustrator 19.0.0, SVG Export Plug-In . SVG Version: 6.00 Build 0)  -->
<svg version="1.1" id="Layer_1" xmlns="http://www.w3.org/2000/svg" xmlns:xlink="http://www.w3.org/1999/xlink" x="0px" y="0px"
	 viewBox="0 0 200 145" style="enable-background:new 0 0 200 145;" xml:space="preserve">
<g id="XMLID_2_">
	<path id="XMLID_16_" d="M149.5,50.1c0,22.7,0,38.6,0,54.5c0,1.5,0,1.5-1.5,1.5c-31.3,0-62.5,0-93.8,0c-0.8,0-1.5,0-1.6-1.1
		c0-0.3-0.4-0.7-0.7-0.8c-1-0.4-1.3-1.1-1.3-2.1c0-12.6,0.1-25.1,0-37.7c0-9.8-0.1-19.6-0.2-29.4c-0.1-9.3-0.2-18.5-0.3-27.8
		c0-0.6-0.2-1.2,0.5-1.6c0.8-0.4,1.4,0,2,0.5c0.9,0.9,1.6,1.9,2.4,2.8c0.3,0.3,0.6,0.7,0.9,1c1,0.9,2,1.8,3,2.7
		c1.8,1.9,3.6,3.8,5.4,5.7c1.5,1.5,3,3,4.5,4.5c0.4,0.4,0.8,0.6,1.2,0.9c0.3,0.2,0.6,0.4,0.7,0.7c0.9,1.6,2.4,2.6,3.6,3.8
		c1.6,1.6,3.8,2.7,4.5,5.1c1.3,1.1,1,2.7,1,4.2c0,13.5,0.1,27.1,0.1,40.6c0,1.3,0.1,1.4,1.4,1.4c2.5,0,4.9,0,7.4,0
		c0.8,0,1.1-0.3,1.1-1.1c0-14.2-0.1-28.4-0.1-42.6c0-1.5,0.5-2,2-2c5.4,0,10.8,0,16.2,0c1,0,1.6,0.3,1.6,1.4c0,0.2,0.2,0.5,0.3,0.6
		c1,0.5,1.2,1.4,1.2,2.4c0,3.6,0,7.2,0,10.8c0,9.8,0,19.7,0,29.5c0,0.8,0.3,1.2,1.1,1.1c2.5,0,4.9,0,7.4,0c1,0,1.4-0.6,1.4-1.7
		c0-10.3,0-20.5,0-30.8c0-4.6,0.1-9.3,0-13.9c0-1.5,1-2.2,1.9-3c0.5-0.4,1.1-0.7,1.5-1.2c1.1-1.1,2-2.3,3.1-3.4c1-1,2.2-1.9,3.2-2.9
		c1.3-1.3,2.4-2.7,3.7-4c0.7-0.8,1.6-1.4,2.4-2.1c1-1,2.2-1.9,2.9-3c1.7-2.6,4.2-4.5,6.3-6.7c0.2-0.3,0.5-0.5,0.8-0.7
		c0.9-0.6,1.4-0.5,1.9,0.5c0.2,0.3,0.3,0.7,0.6,0.8c0.9,0.4,0.9,1.1,0.9,1.8C149.8,25,149.6,40.9,149.5,50.1z"/>
	<path id="XMLID_9_" d="M127.3,133.8c-0.5,0.9-1,1.7-1.5,2.6c-0.9,1.9-2.6,3-4,4.5c-0.1,0.2-0.7,0.2-0.9,0.1
		c-0.6-0.4-1.3-0.8-1.8-1.3c-1.7-1.8-3.4-3.6-4.8-5.5c-0.9-1.2-1.8-2.6-1.5-4.3c0.1-0.8,0-1.5,0-2.3c-0.1,0-0.2,0-0.3,0
		c0,0.1-0.1,0.3-0.1,0.4c0,1,0,2,0.1,3c0.1,1.2-0.3,2.2-0.8,3.2c-0.4,0.8-0.7,1.6-1.2,2.3c-1.1,1.6-2.5,3-4.1,4.1
		c-1,0.7-1.8,1-2.9,0.9c-0.6,0-0.8-0.3-1-0.8c-0.1-0.4-0.5-0.8-0.8-1.2c-0.4-0.5-1.2-0.9-1.1-1.3c0.1-0.5,0.7-1.2,1.2-1.4
		c1.5-0.5,2.5-1.5,3.5-2.7c0.4-0.5,0.6-1.3,0.9-2c0.1-0.3,0.2-0.6,0.3-0.8c0.5-0.9,0-2.6-0.9-3c-2.2-1.1-3.6-3-5.2-4.7
		c-0.2-0.2-0.4-0.3-0.6-0.5c-0.1,0.2-0.2,0.5-0.3,0.7c-0.3,0.5-0.6,1.1-1,1.6c-0.6,0.6-0.5,1-0.1,1.6c0.9,1.3,1.9,2.7,2.5,4.2
		c0.4,0.9,0.3,2-0.1,3.1c-0.3,0.9-0.8,1.8-1.3,2.5c-0.4,0.6-1,1.1-1.6,1.6c-0.1,0.1-0.4,0.1-0.5,0.2c-0.8,1.1-2,1.5-3.1,2.1
		c-0.2,0.1-0.5,0.3-0.7,0.2c-1.9-0.8-3.5-1.9-4.5-3.7c-0.2-0.3-0.3-0.6-0.6-0.8c-2.2-2.2-2.9-4.9-2.5-7.9c0.1-0.6,0.6-1.3,1-1.8
		c0.2-0.3,0.4-0.5,0.7-0.7c1-1,1-1,0-2.1c-0.7-0.8-1-1.7-1.1-2.7c-0.1-1.4,0.2-2.6,0.6-3.9c0-0.1,0.1-0.3,0.2-0.4
		c1.2-1.4,2.5-2.7,3.9-3.9c0.5-0.4,1.4-0.3,2.1-0.2c0.5,0,1,0.4,1.3,0.7c1.6,1.2,3.1,2.6,3.9,4.6c0.3,0.7,0.9,1.3,1.5,1.9
		c0.1-2.4,1.2-4.3,2.1-6.4c0.1-0.1,0.2-0.3,0.4-0.3c1,0,2.1,0,3.1,0.2c1.5,0.3,2.9,0.8,4.3-0.4c0.2-0.2,0.8-0.3,1.1-0.2
		c0.2,0.1,0.4,0.6,0.4,0.9c0,0.4-0.1,0.9-0.2,1.4c0.2,0,0.5-0.1,0.7-0.1c0.3,0.1,0.7,0.2,0.9,0.4c0.1,0.1,0.1,0.5,0,0.8
		c-0.2,0.8-0.6,1.6-0.8,2.4c-0.2,0.9-0.6,1.3-1.5,1.3c-1.5,0-3,0-4.6,0c-0.3,0-0.6,0-1,0c0.1,0.7,0.5,1,1.1,1c2.1,0.1,3.2,1.6,4.3,3
		c0.7,0.9,1.2,1.9,1.9,3c0.3-0.4,0.7-0.7,0.7-1.1c0.4-2.4,1.7-4.5,2.8-6.7c0.4-0.8,1-1.6,1.6-2.3c1.2-1.4,2.4-2.8,3.7-4.2
		c0.2-0.2,0.5-0.5,0.8-0.5c1.4-0.3,1.8,0.3,1.3,1.8c0.1,0.1,0.3,0.1,0.4,0.2c1.4,0.4,1.6,1,0.6,2.2c-0.7,0.9-1.4,1.7-2.1,2.6
		c-0.1,0.2-0.1,0.7,0.1,0.9c1,1.3,2.1,2.4,3,3.7c0.7,1.1,1.2,2.3,1.8,3.5c0.1,0.1,0.2,0.2,0.5,0.4c0-0.4,0.1-0.7,0.1-1.1
		c0-4.5,0-9,0-13.5c0-0.8,0.2-1,1.1-1.3c4-1,8-0.3,12-0.4c4-0.1,8.1,0,12.1,0c0.7,0,1.3,0.2,2,0.3c0.2,0,0.6-0.1,0.7-0.2
		c0.2-0.2,0.3-0.7,0.2-0.8c-0.7-0.8,0-1.5-0.1-2.3c-0.1-0.6,0.2-1.2,0.2-1.8c0-1.6,0.1-3.1,0-4.7c-0.2-2.1-1-4.3-0.4-6.4
		c0.8-2.9,0.4-5.7,0.4-8.5c0.1-13.8,0.1-27.7,0.1-41.5c0-1.1-0.2-2.3-0.3-3.3c-0.1-1.1-0.2-2.3,0.2-3.5c0.3-0.8,0.8-0.8,1.4-0.8
		c11-0.1,22.1-0.3,33.1-0.4c1,0,1.4,0.3,1.6,1.4c0,0.2,0.1,0.5,0.3,0.5c0.8,0.4,0.8,1.1,0.8,1.8c-0.1,15.8-0.2,31.6-0.3,47.3
		c0,1.2,0,1.2-1.2,1.2c-1.8,0-3.5,0-5.3,0c-1.2,0-1.6,0.4-1.6,1.6c0,2.8,0,5.5,0,8.3c0,1.1-0.1,1.2-1.2,1.2c-3.3,0-6.6,0-10-0.1
		c-1.6-0.1-2.2,1-2,2.4c0.1,0.8,0.2,1.5,0.3,2.3c0,0.3,0,0.7,0.2,0.9c0.9,1.1,1.8,2.2,2.7,3.3c1.2,1.4,2.8,1.9,4.5,2.2
		c2.9,0.4,5.8,0.6,8.6,1c0.4,0,0.8,0.1,1.1,0.2c0.2,0,0.5,0.2,0.5,0.3c-0.1,1,0.8,1.2,1.3,1.7c0.3,0.3,0.5,1,0.4,1.3
		c-0.3,1.1-0.8,2.1-1.3,3.1c-0.8,1.6-1.6,3.2-2.3,4.8c0,0.1,0,0.2-0.1,0.2c-0.8,1-1.7,1.9-2.4,2.9c-1.1,1.7-2.5,3.1-4,4.4
		c-1.2,1.1-2.6,2-3.9,2.9c-0.6,0.4-1.2,0.8-1.8,1.2c-1.4,0.8-2.8,1.6-4.2,2.3c-1.1,0.5-2.3,0.6-3.4,1.1c-1.6,0.7-3.3,0.7-4.9,1
		c-4.9,1-9.7,0.2-14.6,0.3c-5.4,0.1-10.8-0.1-16.2-0.1c-1.3,0-2.2-0.3-2.7-1.6c-0.1-0.3-0.4-0.5-0.7-0.7c-0.6-0.4-0.9-0.8-0.9-1.5
		c0-0.9-0.1-1.8-0.1-2.7C127.5,133.7,127.4,133.8,127.3,133.8z M182.6,61c0.1,0,0.2-0.1,0.3-0.1c0-0.3,0.1-0.6,0.1-0.9
		c0-2.7,0-5.4,0.1-8.1c0-0.3,0.1-0.7-0.1-0.9c-0.2-0.3-0.7-0.7-0.9-0.6c-1,0.4-2-0.6-2.9,0.1c-0.1,0.1-0.3-0.1-0.5-0.2
		c-0.3-0.1-0.6-0.2-0.8-0.2c-1.7,0-3.5,0-5.2,0c-0.3,0-0.7,0.1-0.7,0.3c-0.1,0.2,0.1,0.5,0.3,0.8c0.1,0.2,0.2,0.3,0.4,0.4
		c2.7,2.6,5.2,5.3,8.2,7.5C181.4,59.7,182,60.4,182.6,61z M119.1,125.5c-0.1,0-0.2,0-0.4,0c-0.2,0.3-0.4,0.7-0.4,1
		c-0.1,0.5,0,1,0,1.5c0,1.7,0.4,3.3,1.7,4.5c0.2,0.2,0.3,0.4,0.4,0.7c0.5,0.8,1.4,1,2,0.2c1.4-1.7,1.5-3.2,0.2-5
		c-0.5-0.6-1.2-1.3-1.8-1.4C119.8,126.8,119.1,126.7,119.1,125.5z M90.7,130.2c-0.1,0-0.1,0.1-0.2,0.1c0.3,0.7,0.5,1.6,0.9,2.1
		c0.7,0.8,1.5,1.4,2.3,2c0.6,0.4,1.1,0.4,1.7-0.1c0.6-0.6,0.6-2.3-0.1-2.9c-1-0.9-2.1-1.8-3.2-2.7c-0.5-0.4-1.2-0.1-1.4,0.6
		C90.7,129.6,90.7,129.9,90.7,130.2z M95.5,121.4c-0.2-0.3-0.2-0.7-0.4-0.9c-0.7-0.6-1.5-1.2-2.2-1.7c-0.6-0.4-1.1-0.3-1.4,0.2
		c-0.3,0.5-0.9,1.2-0.2,1.8c0.8,0.8,1.7,1.4,2.6,2.1c0.2,0.1,0.6,0.1,0.7,0C94.9,122.5,95.2,122,95.5,121.4z M124.8,133.5
		c-0.6,0.9-1.1,1.6-1.6,2.4c-0.1,0.2-0.1,0.5-0.1,0.7c0.1,0.1,0.4,0.3,0.5,0.2c0.2-0.1,0.3-0.3,0.4-0.5c0.2-0.2,0.2-0.6,0.5-0.7
		C125.3,135,125,134.2,124.8,133.5z"/>
	<path id="XMLID_6_" d="M44.8,75.9c0,11.2,0,22.5,0,33.7c0,1.7,0.5,2.2,2.3,2.2c3,0,6,0,9.1,0c4.6,0,9.1,0,13.7-0.1
		c0.3,0,0.5,0,0.8,0c0.6,0,0.9,0.3,0.8,0.9c0,0.6,0.1,0.9,0.7,1.2c0.7,0.4,0.9,1,0.9,1.8c-0.1,7.6-0.1,15.2-0.2,22.9
		c0,1.1-0.5,1.6-1.6,1.6c-9.8,0.1-19.5,0.2-29.3,0.3c-0.5,0-1-0.2-1.5-0.4c-0.1,0-0.3-0.1-0.4-0.1c-1.3-0.2-2.6-0.3-3.9-0.5
		c-0.7-0.1-1.5-0.3-2.2-0.6c-2.1-0.9-4.3-1.8-6.4-2.9c-1.3-0.6-2.5-1.5-3.7-2.3c-1.4-1.1-2.9-2.2-4.1-3.4c-1.5-1.5-3-3.1-4.3-4.9
		c-1.3-1.8-2.3-3.8-3.5-5.7c-1-1.6-1.7-3.4-2.3-5.2c-0.5-1.4-0.1-2.1,1.4-2.2c4.5-0.1,8.9-0.1,13.4-0.2c1.2,0,2.3-0.1,3.5-0.1
		c0.6,0,0.9-0.2,1-0.9c0.4-1.9,0.1-3.8-0.6-5.6c-0.4-1-0.9-2.1-2.2-2.6c-1.1-0.4-2-1.2-3-1.6c-1.1-0.5-2.2-1-3.5-0.9
		c-1.2,0.1-1.5-0.2-1.9-1.3c-0.1-0.3-0.4-0.6-0.6-0.6c-0.7-0.2-0.9-0.6-0.9-1.2c0-2,0-3.9-0.1-5.9c0-1.5-0.4-1.9-1.9-1.9
		c-1.1,0-2.2,0-3.2,0c-0.7,0-1.1-0.3-1.4-0.9c-0.2-0.4-0.4-0.9-0.8-1c-1-0.5-1.2-1.3-1.2-2.3c0-3.6,0-7.2-0.1-10.8
		C7.3,63.8,7.2,53,7.1,42.1c0-1.4-0.3-2.7,0.4-4.1c0.3-0.7,0.8-0.9,1.5-0.9c4.5,0.1,9,0.1,13.5,0.2c6.4,0.1,12.9,0.2,19.3,0.2
		c0.8,0,1.3,0.1,1.4,1.1c0.1,0.4,0.5,0.9,0.9,1.2c0.5,0.5,0.7,1,0.7,1.7c0,8.5,0.1,16.9,0.1,25.4C44.8,69.9,44.8,72.9,44.8,75.9
		C44.8,75.9,44.8,75.9,44.8,75.9z M17.6,50.7c0,0.6-0.1,0.9-0.1,1.2c0,2.8,0,5.6,0.1,8.3c0,1.3,0.2,1.4,1.5,1.4c3.1,0,6.2,0,9.2,0.1
		c0.2,0,0.4,0,0.5,0c0.2-0.1,0.4-0.2,0.5-0.3c0-0.2-0.1-0.5-0.2-0.6c-0.7-0.6-1.4-1.1-2-1.7c-2.9-2.6-5.7-5.2-8.6-7.8
		C18.2,51.1,18,51,17.6,50.7z"/>
	<path id="XMLID_5_" d="M44.6,19.2c0,3.8,0,7.6,0,11.4c0,1.3-0.8,1.8-1.9,1.3c-0.3-0.1-0.7-0.1-1.1-0.1c-6-0.1-12-0.1-17.9-0.2
		c-3.5-0.1-7-0.2-10.6-0.3c-1,0-2-0.2-2.2-1.4c0-0.2-0.4-0.4-0.5-0.4c-0.5,0.1-0.9,0.1-1.1-0.4c-0.1-0.6-0.3-1.2-0.1-1.7
		c0.8-1.9,1.8-3.7,2.7-5.6c0.8-1.8,2-3.3,3.2-4.9c1.6-2.2,3.6-3.9,5.5-5.7c1.2-1.1,2.7-1.8,4.1-2.6c1.7-1,3.4-1.8,5.1-2.7
		c0.6-0.3,1.2-0.5,1.9-0.7c1.7-0.4,3.3-0.8,5-1.1c1.1-0.2,2.3-0.4,3.4-0.5c0.5,0,1,0,1.5,0.2c0.4,0.1,0.9,0.5,1,0.8
		c0.1,0.7,0.5,1.1,1.1,1.4c0.7,0.4,0.8,1,0.8,1.7c0,3.9,0,7.8,0,11.7C44.4,19.2,44.5,19.2,44.6,19.2z"/>
	<path id="XMLID_4_" d="M158.9,3.4c1.7,0.3,3.5,0.6,5.2,1c1.3,0.3,2.7,0.6,3.9,1.1c1.6,0.6,3.2,1.2,4.7,2c1.6,0.8,3.1,1.8,4.5,2.9
		c1.9,1.5,3.8,3.2,5.5,4.9c1.9,1.9,3.5,4.1,4.7,6.6c0.9,1.7,1.9,3.3,2.8,5.1c0.5,1,0.9,2.1,1.3,3.2c0.3,0.9-0.5,1.6-1.7,1.6
		c-1.5-0.1-3-0.2-4.5-0.2c-8.6,0.1-17.2,0.2-25.8,0.4c-0.9,0-1.8,0.2-2-1.2c-0.1-0.4-0.8-0.7-1.2-1c-0.4-0.3-0.7-0.7-0.3-1.3
		c0.2-0.3,0.1-0.6,0.1-1c0.1-6.8,0.2-13.6,0.3-20.4c0-0.3,0-0.6-0.1-0.9c-0.5-2-0.1-2.5,2-2.5c0.2,0,0.4,0,0.6,0
		C158.9,3.5,158.9,3.4,158.9,3.4z"/>
	<path id="XMLID_3_" d="M85.5,122.5c0,1.8,0,3.6,0,5.5c0,1-0.5,1.9-0.1,2.9c0.1,0.2-0.2,0.5-0.2,0.7c-0.1,0.2-0.2,0.5-0.1,0.8
		c0.1,0.9,0.2,1.7,0.4,2.6c0.1,0.7,0.3,1.4,0.4,2.1c0,0.3,0,0.6-0.1,0.8c-0.5,0.6-0.2,1,0.4,1.1c0.7,0.1,0.9,0.5,0.9,1.1
		c-0.1,0.7-0.6,0.5-1,0.5c-1.9,0-3.7,0-5.6,0c-1.1,0-1.2-0.2-0.9-1.2c0.1-0.2,0-0.6-0.1-0.6c-1.1-0.5-0.5-1.4-0.5-2.1
		c0-0.6,0.2-1.2,0.2-1.8c0-4.4,0.1-8.9,0-13.3c0-1-0.4-2-0.6-3c0-0.2-0.4-0.4-0.6-0.4c-0.8,0-1.4-0.6-1.2-1.1
		c0.2-0.6,0.9-1.1,1.5-1.5c1.1-0.7,2.4-1.1,3.5-1.8c0.9-0.5,1.5-0.8,1.9-0.3c0.1,0.1,0.2,0.2,0.2,0.3c0,1,0.3,1.7,1.4,2
		c0.1,0,0.2,0.6,0.2,1C85.6,118.6,85.5,120.5,85.5,122.5C85.5,122.5,85.5,122.5,85.5,122.5z"/>
</g>
</svg>
