<svg id="Layer_1" data-name="Layer 1" xmlns="http://www.w3.org/2000/svg" xmlns:xlink="http://www.w3.org/1999/xlink" viewBox="0 0 1080 1080"><defs><style>.cls-1{fill:none;}.cls-2{clip-path:url(#clip-path);}.cls-3{fill:#1a428a;}.cls-4{fill:#4197cb;}</style><clipPath id="clip-path"><rect class="cls-1" x="24.2" y="292.17" width="1031.61" height="495.65"/></clipPath></defs><g class="cls-2"><path class="cls-3" d="M140.1,502.05h24.65l-12.09-36.43h-.32Zm-16.23-60.28h58.69l39.61,111H177.48l-7.32-24H134.21l-6.84,24H84.89Z"/><polygon class="cls-3" points="227.73 441.76 270.36 441.76 270.36 520.03 322.69 520.03 322.69 552.79 227.73 552.79 227.73 441.76"/><g class="cls-2"><path class="cls-3" d="M421.42,550.25a121.21,121.21,0,0,1-30.55,4.45c-36.9,0-66.49-19.4-66.49-59,0-37.22,30.86-55.84,66.49-55.84,11.78,0,18.77,1.43,30.23,3.5v29.27c-7-2.23-14.16-4.13-21.32-4.13-18.13,0-31.81,9.7-31.81,27.84,0,19.09,12.73,28.79,30.38,28.79a69.39,69.39,0,0,0,23.07-4.3Z"/><polygon class="cls-3" points="606.99 441.73 670.02 441.73 684.5 502.53 684.81 502.53 699.14 441.73 762 441.73 762 552.83 723.8 552.83 723.17 465.6 722.85 465.6 701.05 552.83 665.56 552.83 644.39 465.6 643.76 465.6 643.27 552.83 606.99 552.83 606.99 441.73"/><polygon class="cls-3" points="987.96 468.83 950.4 468.83 950.4 552.83 907.75 552.83 907.75 468.83 870.18 468.83 870.18 441.73 987.96 441.73 987.96 468.83"/><path class="cls-4" d="M512.78,538.74a41.44,41.44,0,1,1,41.44-41.45,41.45,41.45,0,0,1-41.44,41.45M87.68,581h425.1a83.73,83.73,0,0,0,47.08-153h427.8V413.57H512.78a83.73,83.73,0,0,0-47.08,153h-378"/><path class="cls-3" d="M113,629.21a12.88,12.88,0,0,1-4.42,3.76,13.78,13.78,0,0,1-6.53,1.44A16.07,16.07,0,0,1,96,633.29a14,14,0,0,1-7.92-7.91,15.89,15.89,0,0,1-1.14-6.1,15.63,15.63,0,0,1,1.16-6.14,14,14,0,0,1,3.2-4.76,14.75,14.75,0,0,1,4.85-3,16.31,16.31,0,0,1,6.08-1.1,15.85,15.85,0,0,1,3,.28,15.43,15.43,0,0,1,2.88.85,12.8,12.8,0,0,1,2.52,1.41,8.84,8.84,0,0,1,1.94,1.92l-3.16,2.44a8,8,0,0,0-3-2.42,9.31,9.31,0,0,0-4.16-1,11,11,0,0,0-4.52.91,10.37,10.37,0,0,0-3.43,2.5,11.37,11.37,0,0,0-2.19,3.67,12.79,12.79,0,0,0-.77,4.44,13.43,13.43,0,0,0,.75,4.54,10.91,10.91,0,0,0,2.15,3.67,9.7,9.7,0,0,0,3.41,2.45,10.8,10.8,0,0,0,4.48.9,9.92,9.92,0,0,0,4.42-1A8.67,8.67,0,0,0,109.8,627Z"/><path class="cls-3" d="M121.11,633.68h-4V605h9.21a18.59,18.59,0,0,1,3.94.42,9.89,9.89,0,0,1,3.26,1.37,6.61,6.61,0,0,1,2.21,2.45,7.85,7.85,0,0,1,.81,3.71,6.9,6.9,0,0,1-1.94,5.11,9.13,9.13,0,0,1-5,2.48l8,13.18h-4.87l-7.3-12.78h-4.3Zm0-16.14h4.62a12.87,12.87,0,0,0,2.64-.25,7,7,0,0,0,2.13-.78,4.41,4.41,0,0,0,1.44-5.77,4,4,0,0,0-1.4-1.39,5.94,5.94,0,0,0-2-.76,14,14,0,0,0-2.47-.23h-4.91Z"/><polygon class="cls-3" points="146.02 630.11 161.03 630.11 161.03 633.68 142 633.68 142 604.96 160.42 604.96 160.42 608.5 146.02 608.5 146.02 617.09 159.56 617.09 159.56 620.54 146.02 620.54 146.02 630.11"/><path class="cls-3" d="M167.55,633.68h-4.46L175.55,605h3.65l12.33,28.72H187l-2.92-7.06H170.43Zm4.3-10.59H182.6l-5.35-13.47Z"/><polygon class="cls-3" points="202.84 633.68 198.83 633.68 198.83 608.49 189.62 608.49 189.62 604.96 212.05 604.96 212.05 608.49 202.84 608.49 202.84 633.68"/><rect class="cls-3" x="215.86" y="604.96" width="4.02" height="28.72"/><polygon class="cls-3" points="247.09 627.91 247.17 627.91 247.17 604.96 251.19 604.96 251.19 633.68 246.12 633.68 230.95 610.24 230.87 610.24 230.87 633.68 226.85 633.68 226.85 604.96 232.09 604.96 247.09 627.91"/><path class="cls-3" d="M279.83,610.88a9.5,9.5,0,0,0-3.31-2.27,11.47,11.47,0,0,0-4.48-.85,11.05,11.05,0,0,0-4.54.91,10.25,10.25,0,0,0-3.45,2.5,11.3,11.3,0,0,0-2.19,3.67,12.79,12.79,0,0,0-.77,4.44,13.19,13.19,0,0,0,.77,4.51,11.05,11.05,0,0,0,2.19,3.66,10.12,10.12,0,0,0,3.49,2.46,11.64,11.64,0,0,0,4.62.89,17.34,17.34,0,0,0,3.73-.37,10.79,10.79,0,0,0,3-1v-8h-6.37V618h10.34V631.9a20.6,20.6,0,0,1-4.95,1.86,24.87,24.87,0,0,1-5.84.65,16.46,16.46,0,0,1-6.18-1.12,14,14,0,0,1-8-7.91,16.08,16.08,0,0,1-1.13-6.1,15.8,15.8,0,0,1,1.15-6.14,14,14,0,0,1,3.21-4.75,14.7,14.7,0,0,1,4.85-3.07,16.51,16.51,0,0,1,6.08-1.08,17.36,17.36,0,0,1,6.15,1,13.09,13.09,0,0,1,4.48,2.71Z"/><path class="cls-3" d="M314.14,610.28a6.39,6.39,0,0,0-2.31-1.93,7.11,7.11,0,0,0-3.29-.75,7.52,7.52,0,0,0-2,.26,5.73,5.73,0,0,0-1.8.85,4.77,4.77,0,0,0-1.32,1.47,4,4,0,0,0-.5,2.09,3.82,3.82,0,0,0,.46,2,4.34,4.34,0,0,0,1.26,1.34,8.38,8.38,0,0,0,1.87.94l2.29.78c1,.29,2,.64,3,1a10.75,10.75,0,0,1,2.71,1.49,7.55,7.55,0,0,1,2,2.34,7.44,7.44,0,0,1,.76,3.55,8.52,8.52,0,0,1-.83,3.87,7.87,7.87,0,0,1-2.21,2.72,9.34,9.34,0,0,1-3.18,1.6,13.26,13.26,0,0,1-3.71.53,13.57,13.57,0,0,1-5.25-1.06,10.43,10.43,0,0,1-4.21-3.12L301,627.6a7.87,7.87,0,0,0,6.41,3.36,7.53,7.53,0,0,0,2-.28,5.92,5.92,0,0,0,1.84-.89,4.87,4.87,0,0,0,1.36-1.53,4.36,4.36,0,0,0,.53-2.21,4.09,4.09,0,0,0-.55-2.17,4.75,4.75,0,0,0-1.48-1.48,9.93,9.93,0,0,0-2.17-1c-.83-.29-1.7-.58-2.62-.87a25.36,25.36,0,0,1-2.72-1,9.78,9.78,0,0,1-2.39-1.51,6.86,6.86,0,0,1-1.7-2.25,8.53,8.53,0,0,1,.22-7,7.85,7.85,0,0,1,2.27-2.55,9.42,9.42,0,0,1,3.17-1.48,13.4,13.4,0,0,1,3.54-.47,12.27,12.27,0,0,1,4.71.9,9.28,9.28,0,0,1,3.53,2.38Z"/><path class="cls-3" d="M333.89,634.41a11.8,11.8,0,0,1-4.94-1,10,10,0,0,1-3.49-2.52,10.46,10.46,0,0,1-2-3.64,13.77,13.77,0,0,1-.67-4.24V605h4V622.8a11.9,11.9,0,0,0,.37,2.91,7.15,7.15,0,0,0,1.2,2.57,6,6,0,0,0,2.19,1.83,8.6,8.6,0,0,0,6.75,0,6,6,0,0,0,2.21-1.83,7.15,7.15,0,0,0,1.2-2.57,11.89,11.89,0,0,0,.36-2.91V605h4v18.09a13.48,13.48,0,0,1-.67,4.24,10.46,10.46,0,0,1-2.05,3.64,10,10,0,0,1-3.49,2.52,11.81,11.81,0,0,1-4.95,1"/><path class="cls-3" d="M366.1,610.28a6.39,6.39,0,0,0-2.31-1.93,7.11,7.11,0,0,0-3.29-.75,7.52,7.52,0,0,0-2,.26,5.73,5.73,0,0,0-1.8.85,4.77,4.77,0,0,0-1.32,1.47,4,4,0,0,0-.51,2.09,3.82,3.82,0,0,0,.47,2,4.34,4.34,0,0,0,1.26,1.34,8.38,8.38,0,0,0,1.87.94l2.29.78c1,.29,2,.64,3,1a10.75,10.75,0,0,1,2.71,1.49,7.52,7.52,0,0,1,2,2.34,7.32,7.32,0,0,1,.77,3.55,8.52,8.52,0,0,1-.83,3.87,7.87,7.87,0,0,1-2.21,2.72,9.34,9.34,0,0,1-3.18,1.6,13.26,13.26,0,0,1-3.71.53,13.65,13.65,0,0,1-5.26-1.06,10.47,10.47,0,0,1-4.2-3.12L353,627.6a7.87,7.87,0,0,0,6.41,3.36,7.53,7.53,0,0,0,2-.28,5.92,5.92,0,0,0,1.84-.89,5,5,0,0,0,1.36-1.53,4.36,4.36,0,0,0,.53-2.21,4.09,4.09,0,0,0-.55-2.17,4.75,4.75,0,0,0-1.48-1.48,9.93,9.93,0,0,0-2.17-1c-.83-.29-1.7-.58-2.62-.87a24.6,24.6,0,0,1-2.72-1A9.6,9.6,0,0,1,353.2,618a6.86,6.86,0,0,1-1.7-2.25,8.53,8.53,0,0,1,.22-7,7.85,7.85,0,0,1,2.27-2.55,9.33,9.33,0,0,1,3.17-1.48,13.4,13.4,0,0,1,3.54-.47,12.27,12.27,0,0,1,4.71.9,9.28,9.28,0,0,1,3.53,2.38Z"/><polygon class="cls-3" points="384.31 633.68 380.3 633.68 380.3 608.49 371.09 608.49 371.09 604.96 393.52 604.96 393.52 608.49 384.31 608.49 384.31 633.68"/><path class="cls-3" d="M396.08,633.68h-4.47L404.07,605h3.65l12.33,28.72h-4.54l-2.93-7.06H399Zm4.29-10.59h10.75l-5.35-13.47Z"/><rect class="cls-3" x="423.74" y="604.96" width="4.02" height="28.72"/><polygon class="cls-3" points="454.97 627.91 455.05 627.91 455.05 604.96 459.06 604.96 459.06 633.68 453.99 633.68 438.82 610.24 438.74 610.24 438.74 633.68 434.72 633.68 434.72 604.96 439.96 604.96 454.97 627.91"/><path class="cls-3" d="M467.22,633.68h-4.46L475.21,605h3.65l12.33,28.72h-4.54l-2.92-7.06H470.1Zm4.3-10.59h10.75l-5.36-13.47Z"/><path class="cls-3" d="M494.88,605h9.9a15.54,15.54,0,0,1,3.24.36,8.78,8.78,0,0,1,2.9,1.22,6.61,6.61,0,0,1,2.07,2.23,6.83,6.83,0,0,1,.79,3.45,6,6,0,0,1-1.38,4,7.05,7.05,0,0,1-3.65,2.23v.08a8,8,0,0,1,2.56.71,6.57,6.57,0,0,1,2,1.44,6.43,6.43,0,0,1,1.33,2.1,7.9,7.9,0,0,1,.46,2.73,7.12,7.12,0,0,1-3.16,6.14,10.82,10.82,0,0,1-3.43,1.5,16.67,16.67,0,0,1-4.2.51h-9.45Zm4,12.13h5.24a8.54,8.54,0,0,0,2.17-.27,4.94,4.94,0,0,0,1.8-.81,4,4,0,0,0,1.22-1.38,4.12,4.12,0,0,0,.45-2,3.54,3.54,0,0,0-1.7-3.3,9.14,9.14,0,0,0-4.59-1h-4.59Zm0,13.18h5a14.6,14.6,0,0,0,2.53-.23,7.16,7.16,0,0,0,2.31-.78,4.7,4.7,0,0,0,1.67-1.52,4.39,4.39,0,0,0,.63-2.42,4.06,4.06,0,0,0-1.75-3.68,9.12,9.12,0,0,0-5-1.14h-5.4Z"/><polygon class="cls-3" points="524.93 630.11 537.75 630.11 537.75 633.68 520.91 633.68 520.91 604.96 524.93 604.96 524.93 630.11"/><polygon class="cls-3" points="545.66 630.11 560.67 630.11 560.67 633.68 541.64 633.68 541.64 604.96 560.07 604.96 560.07 608.5 545.66 608.5 545.66 617.09 559.21 617.09 559.21 620.54 545.66 620.54 545.66 630.11"/><polygon class="cls-3" points="580.18 633.68 576.16 633.68 576.16 604.96 594.08 604.96 594.08 608.49 580.18 608.49 580.18 617.42 593.19 617.42 593.19 620.86 580.18 620.86 580.18 633.68"/><path class="cls-3" d="M610.16,634.41a11.85,11.85,0,0,1-4.95-1,10,10,0,0,1-3.49-2.52,10.46,10.46,0,0,1-2.05-3.64,13.47,13.47,0,0,1-.66-4.24V605h4V622.8a11.89,11.89,0,0,0,.36,2.91,7.5,7.5,0,0,0,1.2,2.57,6.14,6.14,0,0,0,2.19,1.83,8.6,8.6,0,0,0,6.75,0,6,6,0,0,0,2.21-1.83,7.32,7.32,0,0,0,1.2-2.57,11.44,11.44,0,0,0,.37-2.91V605h4v18.09a13.77,13.77,0,0,1-.66,4.24,10.33,10.33,0,0,1-2.06,3.64,10,10,0,0,1-3.48,2.52,11.88,11.88,0,0,1-5,1"/><polygon class="cls-3" points="638.14 633.68 634.13 633.68 634.13 608.49 624.92 608.49 624.92 604.96 647.36 604.96 647.36 608.49 638.14 608.49 638.14 633.68"/><path class="cls-3" d="M662.11,634.41a11.88,11.88,0,0,1-5-1,10,10,0,0,1-3.49-2.52,10.46,10.46,0,0,1-2-3.64,13.77,13.77,0,0,1-.66-4.24V605h4V622.8a11.44,11.44,0,0,0,.37,2.91,7.15,7.15,0,0,0,1.2,2.57,6,6,0,0,0,2.19,1.83,7.37,7.37,0,0,0,3.38.69,7.47,7.47,0,0,0,3.37-.69,6,6,0,0,0,2.21-1.83,7.5,7.5,0,0,0,1.2-2.57,11.89,11.89,0,0,0,.36-2.91V605h4v18.09a13.47,13.47,0,0,1-.66,4.24,10.46,10.46,0,0,1-2.05,3.64,10,10,0,0,1-3.49,2.52,11.85,11.85,0,0,1-4.95,1"/><path class="cls-3" d="M684.06,633.68h-4V605h9.21a18.49,18.49,0,0,1,3.93.42,9.86,9.86,0,0,1,3.27,1.37,6.7,6.7,0,0,1,2.21,2.45,7.85,7.85,0,0,1,.81,3.71,6.94,6.94,0,0,1-2,5.11,9.1,9.1,0,0,1-5,2.48l8,13.18h-4.86l-7.3-12.78h-4.3Zm0-16.14h4.62a12.94,12.94,0,0,0,2.64-.25,7.07,7.07,0,0,0,2.13-.78,4.16,4.16,0,0,0,1.43-1.43,4.71,4.71,0,0,0,0-4.34,3.86,3.86,0,0,0-1.39-1.39,6.1,6.1,0,0,0-2-.76,14.11,14.11,0,0,0-2.48-.23h-4.9Z"/><polygon class="cls-3" points="708.97 630.11 723.97 630.11 723.97 633.68 704.95 633.68 704.95 604.96 723.37 604.96 723.37 608.5 708.97 608.5 708.97 617.09 722.51 617.09 722.51 620.54 708.97 620.54 708.97 630.11"/><polygon class="cls-3" points="748.55 633.68 744.53 633.68 744.53 608.49 735.33 608.49 735.33 604.96 757.76 604.96 757.76 608.49 748.55 608.49 748.55 633.68"/><path class="cls-3" d="M789.3,619.28a15.71,15.71,0,0,1-1.14,6.1,14.51,14.51,0,0,1-3.19,4.79,14.26,14.26,0,0,1-4.83,3.12,16.35,16.35,0,0,1-6.08,1.12,16.19,16.19,0,0,1-6.07-1.12,14.23,14.23,0,0,1-4.8-3.12,14,14,0,0,1-3.17-4.79,17.14,17.14,0,0,1,0-12.24,13.75,13.75,0,0,1,3.17-4.75,14.57,14.57,0,0,1,4.8-3.07,16.38,16.38,0,0,1,6.07-1.08,16.54,16.54,0,0,1,6.08,1.08,14.61,14.61,0,0,1,4.83,3.07,14.24,14.24,0,0,1,3.19,4.75,15.8,15.8,0,0,1,1.14,6.14m-4.33,0a12.57,12.57,0,0,0-.78-4.44,10.8,10.8,0,0,0-2.19-3.67,10.23,10.23,0,0,0-3.42-2.5,10.92,10.92,0,0,0-4.52-.91,10.8,10.8,0,0,0-4.48.91,10.09,10.09,0,0,0-3.41,2.5,11.62,11.62,0,0,0-2.17,3.67,12.79,12.79,0,0,0-.77,4.44,13.09,13.09,0,0,0,.77,4.5,11,11,0,0,0,2.19,3.67,10.28,10.28,0,0,0,3.41,2.46,10.83,10.83,0,0,0,4.46.89,11.12,11.12,0,0,0,4.5-.89,10,10,0,0,0,3.44-2.46,10.52,10.52,0,0,0,2.19-3.67,12.86,12.86,0,0,0,.78-4.5"/><path class="cls-3" d="M816.44,610.88a9.32,9.32,0,0,0-3.31-2.27,11.45,11.45,0,0,0-4.47-.85,11.13,11.13,0,0,0-4.55.91,10.21,10.21,0,0,0-3.44,2.5,11,11,0,0,0-2.19,3.67,12.57,12.57,0,0,0-.78,4.44,13,13,0,0,0,.78,4.51,10.72,10.72,0,0,0,2.19,3.66,10,10,0,0,0,3.48,2.46,11.67,11.67,0,0,0,4.62.89,17.43,17.43,0,0,0,3.74-.37,10.72,10.72,0,0,0,3-1v-8H809.1V618h10.34V631.9a20.68,20.68,0,0,1-4.94,1.86,24.93,24.93,0,0,1-5.84.65,16.55,16.55,0,0,1-6.19-1.12,13.93,13.93,0,0,1-8-7.91,17,17,0,0,1,0-12.24,14,14,0,0,1,3.2-4.75,14.9,14.9,0,0,1,4.85-3.07,16.6,16.6,0,0,1,6.09-1.08,17.26,17.26,0,0,1,6.14,1,12.9,12.9,0,0,1,4.48,2.71Z"/><polygon class="cls-3" points="830.37 630.11 845.37 630.11 845.37 633.68 826.35 633.68 826.35 604.96 844.76 604.96 844.76 608.5 830.37 608.5 830.37 617.09 843.91 617.09 843.91 620.54 830.37 620.54 830.37 630.11"/><polygon class="cls-3" points="860.78 633.68 856.76 633.68 856.76 608.49 847.56 608.49 847.56 604.96 869.99 604.96 869.99 608.49 860.78 608.49 860.78 633.68"/><polygon class="cls-3" points="873.79 604.96 877.81 604.96 877.81 616.97 892.33 616.97 892.33 604.96 896.38 604.96 896.38 633.68 892.33 633.68 892.33 620.54 877.81 620.54 877.81 633.68 873.79 633.68 873.79 604.96"/><polygon class="cls-3" points="907.39 630.11 922.39 630.11 922.39 633.68 903.37 633.68 903.37 604.96 921.79 604.96 921.79 608.5 907.39 608.5 907.39 617.09 920.93 617.09 920.93 620.54 907.39 620.54 907.39 630.11"/><path class="cls-3" d="M931.76,633.68h-4V605H937a18.49,18.49,0,0,1,3.93.42,9.86,9.86,0,0,1,3.27,1.37,6.7,6.7,0,0,1,2.21,2.45,7.85,7.85,0,0,1,.81,3.71,6.9,6.9,0,0,1-1.95,5.11,9.1,9.1,0,0,1-5,2.48l8,13.18h-4.86l-7.3-12.78h-4.3Zm0-16.14h4.62a12.87,12.87,0,0,0,2.64-.25,7.07,7.07,0,0,0,2.13-.78,4.16,4.16,0,0,0,1.43-1.43,4.71,4.71,0,0,0,0-4.34,3.86,3.86,0,0,0-1.39-1.39,6.1,6.1,0,0,0-2.05-.76,14,14,0,0,0-2.48-.23h-4.9Z"/><polygon class="cls-3" points="864.08 526.08 809.64 526.08 809.64 510.96 856.08 510.96 856.08 484.23 809.64 484.23 809.64 468.83 864.24 468.83 864.24 441.73 767.95 441.73 767.95 552.83 864.08 552.83 864.08 526.08"/></g></g></svg>