<?xml version="1.0" encoding="utf-8"?>
<!-- Generator: Adobe Illustrator 26.0.0, SVG Export Plug-In . SVG Version: 6.00 Build 0)  -->
<svg version="1.1" id="Layer_1" xmlns="http://www.w3.org/2000/svg" xmlns:xlink="http://www.w3.org/1999/xlink" x="0px" y="0px"
	 viewBox="0 0 1080 1080" style="enable-background:new 0 0 1080 1080;" xml:space="preserve">
<style type="text/css">
	.st0{fill:#EC1C24;}
	.st1{fill:#37B34A;}
	.st2{fill:#BE1E2D;}
	.st3{fill:#FFFFFF;}
</style>
<g>
	<path class="st0" d="M808.56,389.95c-44.03-24.38-97.12-41.92-155.06-51.67c87.89,21.89,161.1,63.69,203.48,117.88
		c29.3,37.46,41.35,78.48,34.89,118.64c-5.88,36.52-26.55,69.51-58.23,96.98c14.18-9.74,26.95-20.23,38.03-31.42
		c31.6-31.94,47.96-68.05,47.29-104.48C917.97,480.62,878.75,428.79,808.56,389.95"/>
	<path class="st0" d="M224.68,619.78c-29.29-37.45-41.35-78.47-34.87-118.62c4.79-29.74,19.76-57.82,43.38-82.61
		c-9,6.95-17.34,14.23-24.87,21.84c-31.61,31.93-47.97,68.06-47.29,104.47c1.02,55.25,40.23,107.08,110.42,145.93
		c61.32,33.94,140.2,54.61,225.28,59.46C378.88,735.94,277.68,687.56,224.68,619.78"/>
	<path class="st1" d="M850.96,460.69c-10.37-13.25-22.66-25.74-36.58-37.36c27.71,29.71,43.86,63.89,46.42,99.88
		c3.03,42.58-13,84.53-46.36,121.3c-48.14,53.03-127.18,89.72-216.66,101.74c68.92-3.85,133.38-20.61,184.04-48.15
		c58.31-31.7,94.73-75.9,102.55-124.46C890.5,535.54,878.95,496.49,850.96,460.69"/>
	<path class="st1" d="M220.89,552.76c-3.03-42.59,13-84.53,46.37-121.29c48.1-53,127.08-89.68,216.48-101.73
		c-68.85,3.87-133.24,20.61-183.86,48.13c-58.31,31.7-94.72,75.9-102.55,124.45c-6.14,38.08,5.41,77.14,33.4,112.93
		c10.36,13.24,22.64,25.72,36.54,37.33C239.58,622.88,223.45,588.72,220.89,552.76"/>
	<path class="st0" d="M744.45,397.63c-53-33.11-122.79-51.35-196.49-51.35c-6.87,0-13.85,0.16-20.76,0.47
		c-97.35,4.49-185.63,40.4-236.15,96.06c-29.93,32.98-44.32,70.52-41.6,108.58c3.46,48.64,34.64,93.72,87.79,126.93
		c53.01,33.11,122.79,51.35,196.51,51.35c6.86,0,13.84-0.16,20.74-0.47c97.35-4.48,185.63-40.4,236.15-96.06
		c29.93-32.97,44.32-70.52,41.6-108.58C828.77,475.92,797.59,430.84,744.45,397.63"/>
	<path class="st2" d="M420.51,647.5l-6.22,0.63c0.26-1.52,0.18-2.45-0.24-2.8c-0.42-0.34-1.21-0.46-2.38-0.34l-0.66,0.06
		c-0.05,0.04-0.11,0.06-0.15,0.06c-0.05,0.01-0.1,0.01-0.15,0.02c-0.81,0.08-1.58,0.3-2.3,0.65c-0.73,0.36-1.21,1.16-1.42,2.42
		c-0.16,0.94-0.14,1.62,0.06,2.05c0.2,0.42,0.68,0.63,1.46,0.62c0.36-0.01,0.73-0.01,1.12-0.02c0.39-0.02,0.77-0.02,1.16-0.03
		c0.04-0.01,0.09-0.02,0.14-0.02c0.05-0.01,0.11-0.02,0.18-0.02c2.44-0.13,4.6,0.1,6.48,0.69c1.88,0.59,2.45,2.96,1.74,7.12
		c-0.07,0.42-0.15,0.86-0.22,1.3c-0.08,0.44-0.18,0.89-0.3,1.36c-0.21,0.95-0.51,1.88-0.9,2.82c-0.39,0.93-0.93,1.73-1.61,2.4
		c-0.92,0.9-1.9,1.54-2.92,1.93c-1.03,0.39-2.06,0.66-3.09,0.83c-0.3,0.06-0.59,0.1-0.86,0.13c-0.29,0.03-0.57,0.06-0.86,0.09
		l-1.61,0.16c-3.37,0.34-5.84,0.14-7.42-0.59c-1.57-0.74-1.95-3.52-1.12-8.36l6.22-0.68c-0.19,1.15-0.19,2.05,0.02,2.66
		c0.2,0.62,0.82,0.89,1.84,0.78l2.82-0.28c0.82-0.05,1.55-0.27,2.17-0.65c0.63-0.38,1.06-1.26,1.3-2.64
		c0.22-1.29,0.09-2.04-0.39-2.27c-0.48-0.23-1.14-0.32-1.97-0.29c-0.05,0-0.1,0.01-0.13,0.02c-0.04,0-0.08,0.01-0.13,0.01
		c-0.41,0.01-0.79,0.02-1.18,0.03c-0.37,0.01-0.74,0.01-1.1,0.02c-2.8,0.11-4.92-0.22-6.35-0.96c-1.45-0.75-1.79-3.36-1.02-7.83
		c0.46-2.66,1.27-4.73,2.43-6.23c1.17-1.5,2.86-2.47,5.07-2.9c0.71-0.13,1.44-0.26,2.17-0.38c0.73-0.12,1.44-0.22,2.15-0.29
		c2.83-0.29,5.12-0.14,6.87,0.44c1.75,0.57,2.25,3.02,1.5,7.36c-0.01,0.1-0.03,0.18-0.04,0.26c-0.02,0.07-0.03,0.14-0.04,0.2
		c-0.03,0.1-0.06,0.18-0.08,0.26c-0.02,0.07-0.03,0.16-0.04,0.26L420.51,647.5z"/>
	<path class="st2" d="M450.16,635.17l-3.29,19.19c-0.06,0.4-0.14,0.78-0.21,1.14c-0.07,0.37-0.15,0.72-0.24,1.06
		c-0.04,0.12-0.07,0.24-0.09,0.37c-0.03,0.12-0.06,0.25-0.11,0.37c-0.04,0.24-0.09,0.49-0.14,0.73c-0.06,0.24-0.11,0.49-0.18,0.74
		c-0.89,3.08-2.3,5.11-4.25,6.12c-1.94,1.01-3.97,1.62-6.06,1.83l-0.88,0.09c-3.51,0.35-6.14,0.13-7.88-0.66
		c-1.74-0.79-2.18-3.77-1.3-8.93l3.41-19.88l6.55-0.66l-3.4,19.83c-0.31,1.78-0.16,2.85,0.45,3.15c0.61,0.31,1.54,0.4,2.77,0.28
		c1.54-0.15,2.67-0.46,3.38-0.93c0.71-0.45,1.24-1.7,1.59-3.74l3.33-19.42L450.16,635.17z"/>
	<path class="st2" d="M457.04,634.48l9.55-0.97c3.63-0.34,6.29-0.04,7.99,0.89c1.7,0.92,2.1,4.03,1.2,9.28
		c-0.07,0.43-0.15,0.86-0.22,1.3c-0.08,0.44-0.16,0.87-0.26,1.3c-0.18,0.89-0.4,1.76-0.69,2.62c-0.28,0.87-0.66,1.72-1.13,2.54
		c-0.83,1.45-1.83,2.48-3,3.06c-1.18,0.58-2.39,0.99-3.62,1.2c-0.32,0.03-0.64,0.07-0.98,0.12c-0.33,0.05-0.66,0.09-0.97,0.12
		c-0.03,0-0.05,0.01-0.06,0.01c0,0-0.03,0-0.05,0c-0.2,0.02-0.39,0.04-0.59,0.06c-0.19,0.02-0.39,0.04-0.58,0.06l-3.92,0.4
		l-1.33,7.75l-6.54,0.67L457.04,634.48z M465.02,648.99c1.38-0.2,2.3-0.51,2.79-0.96c0.48-0.44,0.86-1.44,1.13-3.03l0.08-0.41
		c0.3-1.76,0.36-2.98,0.18-3.67c-0.19-0.68-1.05-0.96-2.58-0.79l-4.18,0.42l-1.51,8.84L465.02,648.99z"/>
	<polygon class="st2" points="487.7,643.32 498.1,642.27 497.13,647.92 486.74,648.97 485.72,654.86 497.07,653.71 495.91,660.41 
		478.02,662.22 483.24,631.82 500.91,630.02 499.76,636.73 488.64,637.86 	"/>
	<path class="st2" d="M507.39,629.36l12.29-1.25c3.12-0.29,5.23,0.15,6.35,1.31c1.12,1.15,1.33,3.77,0.64,7.84
		c-0.39,2.28-0.91,4.14-1.56,5.6c-0.65,1.46-2.15,2.6-4.53,3.44l-0.04,0.27c1.48-0.03,2.5,0.43,3.05,1.37
		c0.55,0.94,0.65,2.34,0.34,4.2l-0.94,5.51l-6.65,0.68l0.69-4.06c0.21-1.21,0.19-2.15-0.07-2.84c-0.25-0.68-0.92-0.96-2-0.86
		l-4.86,0.5l-1.38,8.03l-6.55,0.66L507.39,629.36z M516.49,643.58c1.19-0.08,1.98-0.49,2.35-1.21c0.39-0.72,0.68-1.74,0.91-3.04
		c0.26-1.49,0.31-2.57,0.16-3.25c-0.15-0.68-0.93-0.94-2.32-0.8l-4.86,0.45l-1.44,8.39L516.49,643.58z"/>
	<polygon class="st2" points="559.62,653.94 553.18,654.61 557.64,631.26 557.46,631.27 547.4,655.19 541.76,655.75 539.53,633.09 
		539.31,633.12 535.87,656.35 529.43,657.01 534.64,626.6 544.96,625.55 546.33,644.18 546.59,644.16 554.26,624.61 564.82,623.54 	
		"/>
	<path class="st2" d="M573.14,647.43l-2.07,5.35l-6.81,0.7l12.53-31.15l9.91-1.01l2.23,29.65l-6.67,0.67l-0.39-5.11L573.14,647.43z
		 M580.8,627.88l-5.26,13.53l6.07-0.62L580.8,627.88z"/>
	<path class="st2" d="M598.78,620.1l12.29-1.25c3.12-0.29,5.23,0.15,6.36,1.3c1.12,1.16,1.33,3.77,0.64,7.85
		c-0.39,2.27-0.92,4.14-1.56,5.6c-0.64,1.46-2.15,2.6-4.53,3.44l-0.04,0.27c1.49-0.03,2.51,0.42,3.06,1.37
		c0.55,0.95,0.66,2.34,0.34,4.2l-0.95,5.52l-6.65,0.68l0.7-4.06c0.21-1.21,0.18-2.17-0.07-2.83c-0.26-0.67-0.92-0.97-1.99-0.86
		l-4.88,0.49l-1.36,8.03l-6.55,0.66L598.78,620.1z M607.88,634.31c1.19-0.09,1.97-0.5,2.35-1.23c0.37-0.72,0.67-1.75,0.89-3.05
		c0.26-1.48,0.31-2.57,0.17-3.24c-0.15-0.67-0.92-0.93-2.32-0.79l-4.86,0.45l-1.43,8.39L607.88,634.31z"/>
	<polygon class="st2" points="630.61,628.19 632.58,628 640.85,615.82 648.72,615.03 637.56,630.85 644.21,645.37 636.16,646.18 
		631.4,634.88 629.43,635.08 627.37,647.06 620.83,647.74 626.03,617.33 632.58,616.66 	"/>
	<polygon class="st2" points="658.57,625.99 668.96,624.93 667.99,630.58 657.59,631.64 656.59,637.52 667.93,636.37 666.78,643.07 
		648.89,644.89 654.1,614.48 671.78,612.69 670.62,619.39 659.5,620.52 	"/>
	<polygon class="st2" points="684.08,641.32 677.53,641.98 681.54,618.59 675.36,619.22 676.56,612.2 695.88,610.24 694.68,617.26 
		688.09,617.93 	"/>
	<path class="st3" d="M419.25,645.86l-6.22,0.64c0.26-1.52,0.18-2.46-0.24-2.8c-0.42-0.34-1.21-0.46-2.38-0.34l-0.66,0.07
		c-0.05,0.03-0.11,0.06-0.15,0.06c-0.05,0.01-0.1,0.02-0.15,0.02c-0.81,0.08-1.58,0.3-2.31,0.65c-0.73,0.36-1.2,1.16-1.42,2.42
		c-0.16,0.94-0.14,1.62,0.06,2.06c0.2,0.42,0.68,0.63,1.46,0.61c0.36-0.01,0.73-0.02,1.11-0.03c0.39-0.01,0.77-0.02,1.16-0.02
		c0.05,0,0.1-0.01,0.15-0.02c0.05,0,0.11-0.01,0.18-0.02c2.44-0.13,4.6,0.1,6.48,0.69c1.88,0.58,2.46,2.96,1.75,7.12
		c-0.07,0.42-0.15,0.85-0.22,1.3c-0.07,0.44-0.18,0.89-0.3,1.35c-0.21,0.95-0.51,1.89-0.9,2.82c-0.39,0.93-0.93,1.74-1.62,2.4
		c-0.92,0.9-1.89,1.55-2.92,1.94c-1.03,0.38-2.05,0.65-3.09,0.83c-0.29,0.05-0.59,0.1-0.87,0.13c-0.28,0.02-0.57,0.05-0.86,0.09
		l-1.62,0.16c-3.36,0.34-5.83,0.14-7.41-0.59c-1.57-0.73-1.94-3.52-1.12-8.35l6.23-0.68c-0.2,1.16-0.2,2.05,0.01,2.67
		c0.2,0.62,0.81,0.88,1.84,0.77l2.82-0.28c0.83-0.06,1.55-0.27,2.18-0.66c0.63-0.37,1.06-1.25,1.3-2.63
		c0.22-1.29,0.09-2.04-0.39-2.26c-0.47-0.23-1.14-0.33-1.98-0.3c-0.05,0-0.09,0.01-0.13,0.01c-0.04,0.01-0.08,0.01-0.13,0.02
		c-0.41,0.02-0.8,0.03-1.18,0.03c-0.37,0.01-0.74,0.02-1.1,0.02c-2.8,0.11-4.91-0.22-6.36-0.97c-1.44-0.75-1.78-3.35-1.01-7.82
		c0.45-2.67,1.26-4.74,2.43-6.24c1.17-1.5,2.86-2.47,5.07-2.9c0.72-0.14,1.44-0.26,2.17-0.38c0.73-0.13,1.44-0.22,2.15-0.28
		c2.83-0.29,5.12-0.15,6.86,0.42c1.75,0.57,2.25,3.03,1.51,7.37c-0.02,0.09-0.03,0.18-0.04,0.25c-0.02,0.07-0.03,0.15-0.04,0.2
		c-0.03,0.09-0.07,0.17-0.08,0.25c-0.02,0.08-0.03,0.16-0.05,0.26L419.25,645.86z"/>
	<path class="st3" d="M448.9,633.54l-3.29,19.19c-0.06,0.39-0.14,0.78-0.21,1.15c-0.08,0.36-0.15,0.72-0.24,1.05
		c-0.05,0.12-0.07,0.24-0.1,0.36c-0.02,0.12-0.06,0.25-0.1,0.37c-0.04,0.24-0.09,0.49-0.14,0.73c-0.05,0.24-0.11,0.49-0.18,0.73
		c-0.89,3.08-2.31,5.12-4.25,6.12c-1.94,1.01-3.97,1.61-6.07,1.82l-0.88,0.1c-3.51,0.35-6.14,0.14-7.88-0.66
		c-1.74-0.79-2.17-3.77-1.29-8.95l3.41-19.86l6.55-0.66l-3.4,19.83c-0.31,1.79-0.16,2.85,0.44,3.15c0.61,0.31,1.53,0.41,2.78,0.29
		c1.54-0.16,2.66-0.47,3.38-0.93c0.71-0.46,1.24-1.7,1.59-3.74l3.32-19.43L448.9,633.54z"/>
	<path class="st3" d="M455.78,632.84l9.55-0.96c3.63-0.34,6.29-0.05,7.99,0.89c1.7,0.94,2.1,4.03,1.19,9.29
		c-0.07,0.42-0.15,0.86-0.22,1.29c-0.08,0.44-0.16,0.88-0.26,1.3c-0.17,0.89-0.4,1.76-0.68,2.63c-0.28,0.86-0.66,1.72-1.13,2.54
		c-0.83,1.46-1.83,2.47-3.01,3.05c-1.18,0.58-2.38,0.99-3.62,1.2c-0.32,0.03-0.65,0.06-0.97,0.12c-0.34,0.04-0.66,0.09-0.97,0.11
		c-0.03,0-0.05,0.01-0.05,0.01s-0.03,0-0.06,0.01c-0.19,0.02-0.39,0.04-0.58,0.05c-0.19,0.02-0.39,0.05-0.58,0.06l-3.92,0.4
		l-1.33,7.75l-6.55,0.67L455.78,632.84z M463.75,647.36c1.38-0.21,2.31-0.52,2.79-0.96c0.48-0.44,0.86-1.44,1.13-3.03l0.07-0.41
		c0.3-1.76,0.36-2.99,0.18-3.67c-0.18-0.69-1.04-0.95-2.58-0.8l-4.17,0.43l-1.51,8.84L463.75,647.36z"/>
	<polygon class="st3" points="486.44,641.69 496.83,640.64 495.86,646.29 485.47,647.35 484.46,653.23 495.81,652.08 494.66,658.78 
		476.76,660.59 481.98,630.19 499.65,628.4 498.5,635.09 487.38,636.23 	"/>
	<path class="st3" d="M506.13,627.74l12.29-1.25c3.11-0.28,5.24,0.16,6.36,1.31c1.12,1.15,1.33,3.77,0.63,7.84
		c-0.39,2.27-0.91,4.14-1.55,5.59c-0.64,1.47-2.15,2.61-4.52,3.44l-0.05,0.28c1.49-0.03,2.51,0.42,3.05,1.37
		c0.55,0.94,0.66,2.33,0.34,4.19l-0.94,5.52l-6.66,0.68l0.7-4.06c0.21-1.22,0.18-2.16-0.07-2.83c-0.26-0.68-0.92-0.96-1.99-0.85
		l-4.87,0.49l-1.37,8.02l-6.55,0.67L506.13,627.74z M515.23,641.95c1.18-0.08,1.97-0.49,2.35-1.22c0.38-0.72,0.68-1.74,0.9-3.05
		c0.25-1.49,0.31-2.57,0.16-3.24c-0.16-0.68-0.93-0.94-2.32-0.8l-4.86,0.44l-1.43,8.39L515.23,641.95z"/>
	<polygon class="st3" points="558.36,652.31 551.92,652.97 556.38,629.63 556.2,629.65 546.14,653.56 540.51,654.12 538.27,631.46 
		538.05,631.48 534.61,654.72 528.17,655.37 533.38,624.97 543.71,623.92 545.08,642.55 545.32,642.53 552.99,622.98 563.56,621.91 
			"/>
	<path class="st3" d="M571.88,645.79l-2.08,5.36l-6.8,0.69l12.53-31.15l9.92-1l2.22,29.65l-6.66,0.68l-0.39-5.11L571.88,645.79z
		 M579.53,626.24l-5.26,13.53l6.08-0.61L579.53,626.24z"/>
	<path class="st3" d="M597.51,618.46l12.3-1.25c3.11-0.28,5.23,0.15,6.35,1.31c1.13,1.16,1.34,3.77,0.64,7.84
		c-0.39,2.28-0.91,4.14-1.55,5.6c-0.65,1.46-2.16,2.61-4.53,3.43l-0.04,0.28c1.49-0.03,2.51,0.43,3.06,1.37
		c0.55,0.94,0.66,2.35,0.34,4.2l-0.96,5.52l-6.65,0.68l0.7-4.06c0.21-1.22,0.18-2.16-0.07-2.84c-0.26-0.68-0.92-0.96-1.99-0.85
		l-4.87,0.5l-1.37,8.03l-6.55,0.66L597.51,618.46z M606.63,632.68c1.19-0.08,1.97-0.49,2.35-1.22c0.38-0.71,0.67-1.74,0.91-3.04
		c0.24-1.49,0.3-2.57,0.16-3.24c-0.15-0.68-0.92-0.94-2.32-0.81l-4.85,0.45l-1.43,8.39L606.63,632.68z"/>
	<polygon class="st3" points="629.34,626.57 631.33,626.37 639.59,614.2 647.46,613.4 636.3,629.22 642.95,643.73 634.9,644.54 
		630.15,633.25 628.16,633.45 626.11,645.43 619.57,646.11 624.78,615.7 631.33,615.04 	"/>
	<polygon class="st3" points="657.3,624.36 667.69,623.3 666.73,628.96 656.34,630.01 655.32,635.89 666.66,634.74 665.52,641.44 
		647.63,643.26 652.84,612.85 670.51,611.06 669.36,617.76 658.25,618.89 	"/>
	<polygon class="st3" points="682.82,639.69 676.27,640.35 680.28,616.97 674.1,617.59 675.3,610.57 694.62,608.61 693.42,615.63 
		686.83,616.3 	"/>
	<path class="st0" d="M809.55,548.77c-2.35,19.17-7.19,31.99-14.51,38.47c-7.32,6.47-18.65,10.51-33.99,12.11
		c-1.76,0.19-3.56,0.34-5.43,0.47c-1.86,0.12-3.72,0.22-5.57,0.28c-4.74-0.06-9.13-0.96-13.19-2.69c-4.07-1.73-6.64-5.25-7.72-10.57
		c-0.34-1.91-0.53-3.9-0.57-5.99c-0.03-2.08,0.09-4.26,0.37-6.51c0.07-0.56,0.11-1.15,0.13-1.78c0.02-0.63,0.06-1.23,0.13-1.79
		c0.05-0.42,0.11-0.88,0.17-1.37c0.07-0.5,0.11-0.96,0.17-1.38l25.46-2.67c-0.65,5.36,0.06,8.52,2.13,9.49
		c2.08,0.97,5.05,1.25,8.91,0.84c4.45-0.47,8-1.64,10.65-3.52c2.66-1.88,4.36-5.85,5.1-11.91l2.78-22.61l-1.23,0.13
		c-2.44,5.83-5.7,10.2-9.76,13.13c-4.06,2.93-8.48,4.64-13.28,5.14c-8.3,0.87-15.14-0.47-20.48-4.01
		c-5.34-3.54-7.87-10.76-7.58-21.64c0.12-3.77,0.36-7.59,0.71-11.45c0.36-3.87,0.79-7.77,1.26-11.72c1.7-13.81,4.81-25.3,9.34-34.47
		c4.54-9.17,13.48-14.46,26.81-15.85c6.32-0.66,11.28,0,14.83,2c3.58,1.99,6.01,6.59,7.32,13.84l1.26-0.34l0.91-17.42l26.68-2.79
		L809.55,548.77z M760,513.26c-0.7,5.63-0.55,10.07,0.44,13.31c0.99,3.23,4.65,4.52,10.97,3.86c6.56-0.68,10.74-2.99,12.55-6.94
		c1.81-3.95,3.07-8.81,3.78-14.59l1-8.24c0.84-6.77,0.84-12.03,0.04-15.76c-0.82-3.75-4.66-5.25-11.57-4.53
		c-6.09,0.63-9.98,2.22-11.68,4.77c-1.7,2.54-2.96,7.2-3.79,13.97l-0.75,6.13L760,513.26z"/>
	<path class="st0" d="M274.81,502.58l63.73-27.83c10.63-0.97,18.82,0.58,24.56,4.63c5.74,4.06,7.72,13.35,5.94,27.87
		c-1,8.18-2.78,15.35-5.33,21.54c-2.55,6.18-8.2,10.56-16.95,13.14l-0.13,1.06c7.84,0.16,12.82,2.62,14.95,7.41
		c2.13,4.79,2.62,11.83,1.48,21.13c-1.93,15.79-5.85,26.75-11.74,32.85c-5.89,6.11-15.74,9.89-29.56,11.33l-64.26,6.73
		L274.81,502.58z M313.65,585.88c4.9-0.38,9.03-1.33,12.4-2.87c3.37-1.53,5.47-5.76,6.32-12.66c0.81-6.62,0.03-10.4-2.33-11.34
		c-2.37-0.93-6.01-1.14-10.93-0.63l-23,2.41l-3.34,27.28L313.65,585.88z M319.33,532.49c0.45,0.08,0.91,0.11,1.38,0.06
		c0.47-0.05,0.87-0.09,1.23-0.12c3.76-0.53,7.02-1.47,9.79-2.81c2.76-1.33,4.5-4.89,5.2-10.66c0.63-5.08,0.32-8.49-0.91-10.23
		c-1.23-1.75-3.95-2.41-8.17-1.97l-25.46,2.66l-3.08,25.16L319.33,532.49z"/>
	<path class="st2" d="M286.39,476.01l63.74-6.66c10.63-0.98,18.82,0.57,24.56,4.64c5.75,4.06,7.72,13.35,5.94,27.86
		c-1,8.17-2.78,15.36-5.33,21.53c-2.55,6.18-8.2,10.57-16.95,13.15l-0.13,1.06c7.84,0.15,12.82,2.62,14.95,7.41
		c2.13,4.78,2.62,11.83,1.49,21.14c-1.94,15.78-5.85,26.74-11.74,32.85c-5.9,6.11-15.75,9.89-29.56,11.33l-64.26,6.72L286.39,476.01
		z M325.24,580.48c4.9-0.38,9.02-1.33,12.4-2.86c3.37-1.54,5.47-5.76,6.32-12.67c0.81-6.63,0.03-10.41-2.34-11.34
		c-2.37-0.93-6.01-1.15-10.93-0.63l-23,2.41l-3.34,27.27L325.24,580.48z M330.91,527.08c0.45,0.09,0.91,0.12,1.38,0.07
		c0.47-0.05,0.87-0.09,1.23-0.13c3.76-0.52,7.03-1.46,9.79-2.8c2.76-1.34,4.49-4.89,5.21-10.67c0.62-5.08,0.32-8.49-0.91-10.24
		c-1.23-1.75-3.95-2.41-8.17-1.96l-25.46,2.67l-3.08,25.16L330.91,527.08z"/>
	<path class="st2" d="M450.65,598.04l-26.34,2.75l3.19-18.91l-1.23,0.14c-2.76,7.38-6.39,12.8-10.93,16.27
		c-4.52,3.47-9.83,5.52-15.91,6.15c-9.02,0.94-15.51-1.05-19.46-6c-3.97-4.94-5.27-12.9-3.92-23.9l8.22-67.02l26.68-2.79
		l-6.92,56.45c-0.6,4.94-0.49,9.17,0.35,12.7c0.84,3.53,3.6,5.05,8.29,4.56c4.67-0.49,8.42-2.48,11.22-5.97
		c2.8-3.5,4.52-7.91,5.18-13.27l0.65-5.28l6.35-51.8l26.69-2.78L450.65,598.04z"/>
	<polygon class="st2" points="484.54,594.49 457.85,597.28 475.14,456.26 501.82,453.48 	"/>
	<polygon class="st2" points="637.29,578.51 606.39,581.75 621.92,473.47 621.04,473.57 578.64,584.65 551.61,587.47 535,482.56 
		533.96,482.68 523.35,590.44 492.44,593.66 509.72,452.64 559.24,447.47 570.68,533.73 571.91,533.6 603.84,442.8 654.58,437.5 	
		"/>
	<path class="st2" d="M681.43,505.44l-27.04,2.83c1.78-14.51,6.39-23.52,13.8-27.01c7.41-3.49,16.04-5.75,25.88-6.78
		c11.46-1.2,20.87-0.45,28.22,2.27c7.36,2.71,10,12.45,7.95,29.21l-7.8,63.64l-26.69,2.8l2.84-14.7l-1.04,0.11
		c-1.35,5.29-3.83,9.2-7.43,11.74c-3.6,2.54-7.41,4.22-11.45,5.06c-1.44,0.43-2.9,0.75-4.36,0.98c-1.47,0.21-2.85,0.4-4.15,0.53
		c-8.19,0.86-14.6-0.55-19.24-4.24c-4.63-3.69-6.28-10.89-4.97-21.6c1.61-13.11,5.47-22.04,11.6-26.78c6.13-4.74,14-7.62,23.59-8.63
		c0.47-0.05,0.97-0.1,1.5-0.16c0.52-0.05,1.03-0.11,1.49-0.16c3.62-0.24,7.01,0.11,10.19,1.02c3.19,0.92,5.32,3.55,6.41,7.89
		l1.07-0.32l2.21-17.97c0.58-4.79,0.08-7.97-1.52-9.55c-1.6-1.57-4.45-2.15-8.54-1.72c-3.86,0.42-6.72,1.33-8.57,2.79
		c-1.86,1.43-3.18,4.42-3.96,8.96L681.43,505.44z M673.15,544.71c-0.65,5.35,0.31,8.35,2.89,8.98c2.57,0.64,5.57,0.77,8.97,0.42
		c3.39-0.36,6.51-1.27,9.35-2.75c2.83-1.48,4.55-4.62,5.14-9.41c0.04-0.29,0.06-0.53,0.1-0.74c0.02-0.21,0.04-0.39,0.06-0.52
		c0.15-1.13,0.15-2.18,0.04-3.14c-0.12-0.97-0.48-1.76-1.1-2.39c-0.84-0.75-1.85-1.28-3.01-1.57c-1.18-0.29-2.46-0.44-3.85-0.43
		c-0.92-0.03-1.87-0.02-2.87,0.09c-0.99,0.11-1.9,0.2-2.72,0.29c-3.28,0.34-6.13,1.2-8.55,2.57c-2.43,1.37-3.91,4.3-4.47,8.81
		L673.15,544.71z"/>
	<path class="st2" d="M806.81,558.68c-2.35,19.17-7.19,32-14.51,38.47c-7.32,6.47-18.65,10.51-33.99,12.11
		c-1.75,0.19-3.56,0.34-5.42,0.47c-1.86,0.12-3.72,0.21-5.58,0.27c-4.74-0.07-9.13-0.96-13.19-2.69c-4.06-1.73-6.63-5.25-7.72-10.57
		c-0.34-1.91-0.53-3.9-0.57-5.99c-0.03-2.09,0.09-4.26,0.37-6.51c0.07-0.56,0.11-1.16,0.12-1.78c0.02-0.63,0.07-1.23,0.14-1.79
		c0.06-0.43,0.11-0.87,0.16-1.38c0.07-0.49,0.13-0.95,0.17-1.38l25.46-2.66c-0.65,5.35,0.05,8.51,2.13,9.49
		c2.07,0.97,5.05,1.25,8.91,0.84c4.45-0.47,8-1.64,10.66-3.52c2.66-1.88,4.35-5.84,5.09-11.91l2.78-22.61l-1.23,0.12
		c-2.45,5.82-5.7,10.21-9.75,13.13c-4.07,2.92-8.49,4.64-13.29,5.14c-8.3,0.87-15.14-0.47-20.47-4.01
		c-5.36-3.54-7.88-10.77-7.59-21.64c0.13-3.77,0.36-7.58,0.72-11.45c0.36-3.87,0.78-7.77,1.27-11.72c1.68-13.81,4.8-25.3,9.33-34.47
		c4.53-9.17,13.48-14.46,26.82-15.85c6.31-0.66,11.26,0,14.83,2c3.58,1.99,6.01,6.6,7.32,13.84l1.26-0.35l0.91-17.41l26.69-2.8
		L806.81,558.68z M757.26,523.18c-0.69,5.63-0.54,10.07,0.45,13.31c0.99,3.23,4.65,4.52,10.96,3.86c6.56-0.69,10.74-3,12.55-6.95
		c1.82-3.95,3.08-8.81,3.78-14.59l1.01-8.24c0.84-6.77,0.84-12.03,0.04-15.77c-0.82-3.74-4.68-5.24-11.58-4.53
		c-6.09,0.64-9.99,2.23-11.68,4.77c-1.7,2.55-2.97,7.2-3.79,13.97l-0.75,6.13L757.26,523.18z"/>
	<path class="st3" d="M282.94,472.47l63.73-6.67c10.63-0.97,18.83,0.57,24.57,4.63c5.74,4.07,7.72,13.36,5.94,27.88
		c-1,8.18-2.78,15.36-5.32,21.53c-2.55,6.19-8.21,10.57-16.95,13.16l-0.13,1.05c7.83,0.16,12.82,2.63,14.95,7.41
		c2.14,4.79,2.63,11.84,1.49,21.13c-1.93,15.79-5.85,26.74-11.74,32.85c-5.9,6.12-15.75,9.89-29.56,11.33l-64.27,6.73L282.94,472.47
		z M321.78,576.94c4.9-0.37,9.03-1.33,12.4-2.87c3.37-1.53,5.47-5.76,6.32-12.66c0.81-6.62,0.03-10.4-2.34-11.33
		c-2.38-0.93-6.01-1.15-10.93-0.63l-23,2.4l-3.34,27.28L321.78,576.94z M327.46,523.54c0.45,0.1,0.91,0.11,1.38,0.06
		c0.47-0.05,0.87-0.09,1.22-0.12c3.77-0.53,7.03-1.47,9.79-2.8c2.76-1.33,4.5-4.88,5.21-10.67c0.62-5.08,0.32-8.48-0.91-10.24
		c-1.23-1.74-3.95-2.4-8.17-1.96l-25.46,2.67l-3.08,25.16L327.46,523.54z"/>
	<path class="st3" d="M447.21,594.49l-26.34,2.76l3.18-18.91l-1.23,0.13c-2.75,7.38-6.39,12.8-10.92,16.27
		c-4.53,3.47-9.83,5.52-15.92,6.15c-9.02,0.95-15.5-1.05-19.46-5.99c-3.97-4.94-5.26-12.91-3.92-23.91l8.21-67.03l26.69-2.78
		l-6.91,56.45c-0.61,4.94-0.5,9.17,0.34,12.7c0.84,3.53,3.6,5.05,8.29,4.56c4.68-0.49,8.42-2.48,11.21-5.97
		c2.8-3.5,4.52-7.92,5.18-13.27l0.65-5.28l6.35-51.8l26.69-2.79L447.21,594.49z"/>
	<polygon class="st3" points="481.08,590.95 454.4,593.75 471.69,452.73 498.37,449.94 	"/>
	<polygon class="st3" points="633.84,574.98 602.94,578.21 618.46,469.93 617.59,470.02 575.2,581.11 548.16,583.93 531.55,479.02 
		530.5,479.14 519.89,586.89 488.99,590.13 506.28,449.1 555.78,443.93 567.23,530.19 568.46,530.05 600.39,439.26 651.13,433.95 	
		"/>
	<path class="st3" d="M677.99,501.9l-27.05,2.83c1.78-14.52,6.39-23.53,13.81-27.01c7.41-3.49,16.03-5.75,25.87-6.78
		c11.47-1.2,20.88-0.44,28.24,2.27c7.35,2.71,10,12.45,7.95,29.21l-7.8,63.65l-26.69,2.79l2.84-14.7l-1.06,0.1
		c-1.33,5.29-3.81,9.21-7.42,11.74c-3.6,2.53-7.42,4.22-11.45,5.06c-1.45,0.43-2.9,0.75-4.37,0.98c-1.47,0.21-2.84,0.4-4.13,0.53
		c-8.19,0.86-14.61-0.55-19.23-4.25c-4.64-3.69-6.3-10.88-4.99-21.6c1.61-13.1,5.47-22.04,11.6-26.78
		c6.13-4.74,13.99-7.62,23.59-8.63c0.46-0.05,0.96-0.1,1.5-0.16c0.52-0.05,1.02-0.1,1.49-0.15c3.61-0.24,7.01,0.1,10.19,1.02
		c3.18,0.91,5.31,3.54,6.4,7.89l1.09-0.33l2.2-17.97c0.58-4.79,0.08-7.97-1.53-9.55c-1.59-1.57-4.44-2.14-8.54-1.72
		c-3.85,0.41-6.72,1.33-8.57,2.78c-1.86,1.44-3.18,4.43-3.97,8.96L677.99,501.9z M669.71,541.17c-0.66,5.36,0.31,8.35,2.88,8.98
		c2.58,0.64,5.57,0.77,8.97,0.42c3.39-0.35,6.51-1.27,9.36-2.75c2.82-1.48,4.55-4.62,5.14-9.41c0.03-0.29,0.06-0.53,0.08-0.74
		c0.03-0.21,0.05-0.39,0.06-0.53c0.15-1.13,0.16-2.17,0.05-3.14c-0.12-0.96-0.49-1.75-1.09-2.38c-0.84-0.76-1.84-1.28-3.02-1.57
		c-1.18-0.29-2.45-0.44-3.85-0.44c-0.92-0.05-1.87-0.02-2.86,0.09c-1,0.11-1.91,0.21-2.72,0.29c-3.27,0.34-6.12,1.2-8.55,2.57
		c-2.42,1.37-3.9,4.3-4.45,8.82L669.71,541.17z"/>
	<path class="st3" d="M803.36,555.15c-2.35,19.16-7.18,31.99-14.5,38.46c-7.33,6.46-18.66,10.5-33.99,12.1
		c-1.76,0.19-3.56,0.35-5.43,0.48c-1.86,0.12-3.72,0.21-5.58,0.27c-4.73-0.06-9.13-0.96-13.19-2.69c-4.06-1.73-6.64-5.26-7.72-10.57
		c-0.35-1.92-0.53-3.91-0.56-5.99c-0.03-2.08,0.09-4.26,0.36-6.51c0.07-0.56,0.11-1.16,0.13-1.79c0.03-0.62,0.08-1.22,0.15-1.78
		c0.04-0.42,0.1-0.88,0.17-1.37c0.06-0.5,0.11-0.96,0.17-1.38l25.46-2.66c-0.66,5.35,0.05,8.51,2.12,9.48
		c2.09,0.97,5.06,1.25,8.92,0.84c4.44-0.47,8-1.64,10.65-3.52c2.67-1.88,4.37-5.84,5.1-11.91l2.77-22.61l-1.23,0.13
		c-2.44,5.82-5.7,10.2-9.75,13.12c-4.06,2.93-8.48,4.65-13.29,5.15c-8.31,0.87-15.14-0.46-20.48-4c-5.35-3.55-7.87-10.77-7.58-21.65
		c0.11-3.77,0.35-7.58,0.71-11.45c0.35-3.87,0.78-7.77,1.26-11.72c1.69-13.81,4.8-25.3,9.34-34.47
		c4.53-9.17,13.48-14.46,26.82-15.86c6.32-0.65,11.27,0,14.84,2c3.56,1.99,6,6.61,7.32,13.85l1.25-0.34l0.92-17.43l26.69-2.79
		L803.36,555.15z M753.82,519.64c-0.7,5.64-0.55,10.07,0.44,13.3c0.99,3.24,4.64,4.53,10.96,3.87c6.56-0.68,10.75-2.99,12.55-6.95
		c1.81-3.95,3.08-8.81,3.79-14.59l1-8.24c0.83-6.78,0.84-12.03,0.03-15.77c-0.81-3.74-4.67-5.25-11.58-4.53
		c-6.08,0.64-9.97,2.23-11.68,4.78c-1.7,2.54-2.96,7.19-3.79,13.95l-0.76,6.13L753.82,519.64z"/>
</g>
</svg>
