<?xml version="1.0" encoding="utf-8"?>
<!-- Generator: Adobe Illustrator 26.0.0, SVG Export Plug-In . SVG Version: 6.00 Build 0)  -->
<svg version="1.1" id="Layer_1" xmlns="http://www.w3.org/2000/svg" xmlns:xlink="http://www.w3.org/1999/xlink" x="0px" y="0px"
	 viewBox="0 0 1080 1080" style="enable-background:new 0 0 1080 1080;" xml:space="preserve">
<style type="text/css">
	.st0{fill:#002169;}
	.st1{fill-rule:evenodd;clip-rule:evenodd;fill:#FFFFFF;}
	.st2{fill-rule:evenodd;clip-rule:evenodd;fill:#002169;}
	.st3{fill:#FFFFFF;}
</style>
<g>
	<g>
		<rect x="18" y="439.17" class="st0" width="1044" height="201.67"/>
	</g>
	<g>
		<g>
			<path class="st1" d="M169.58,484.51c-52.02,0-94.45,24.1-94.45,54.94c0,30.87,42.43,56.03,94.45,56.03
				c52.01,0,94.44-25.16,94.44-56.03C264.02,508.61,221.6,484.51,169.58,484.51"/>
		</g>
		<g>
			<polygon class="st2" points="183.41,512.46 195.44,512.46 195.44,556.42 222.99,556.42 222.99,566.37 183.41,566.37 			"/>
		</g>
		<g>
			<polygon class="st2" points="135.2,512.46 135.2,532.62 159.49,532.62 159.49,512.46 171.52,512.46 171.52,566.37 159.49,566.37 
				159.49,542.59 135.2,542.59 135.2,566.37 123.18,566.37 123.18,512.46 			"/>
		</g>
		<g>
			<path class="st1" d="M348.14,575.56c0,1.57,0.23,2.65,0.74,3.22c0.47,0.59,1.55,1.06,3.18,1.41v2.13h-25.97v-2.13
				c1.63-0.42,2.7-0.93,3.18-1.51c0.5-0.64,0.74-1.65,0.74-3.12v-71.11c0-1.58-0.26-2.65-0.76-3.27c-0.54-0.6-1.57-1.08-3.16-1.46
				v-2.06h25.97v2.06c-1.54,0.38-2.58,0.85-3.11,1.46c-0.54,0.62-0.81,1.69-0.81,3.27v26.15h47.79v-26.15c0-1.69-0.23-2.8-0.74-3.36
				c-0.48-0.54-1.52-1-3.09-1.37v-2.06h25.83v2.06c-1.5,0.33-2.5,0.78-3.02,1.37c-0.49,0.64-0.76,1.72-0.76,3.36v71.11
				c0,1.61,0.23,2.7,0.74,3.27c0.49,0.54,1.48,1.04,3.04,1.45v2.05H392.1v-2.13c1.52-0.31,2.54-0.78,3.06-1.36
				c0.51-0.62,0.77-1.7,0.77-3.27v-29.2h-47.79V575.56"/>
		</g>
		<g>
			<path class="st3" d="M418.28,582.67h-26.52v-2.76l0.28-0.06c1.4-0.28,2.39-0.72,2.86-1.25c0.45-0.55,0.68-1.57,0.68-3.04V546.7
				h-47.09v28.86c0,1.5,0.22,2.5,0.65,2.99c0.29,0.37,1.04,0.88,2.99,1.31l0.27,0.06v2.76h-26.67v-2.75l0.26-0.07
				c1.94-0.5,2.7-1.03,3-1.4c0.44-0.56,0.66-1.51,0.66-2.9v-71.12c0-1.47-0.23-2.49-0.68-3.05c-0.47-0.53-1.47-0.98-2.97-1.34
				l-0.27-0.06v-2.68h26.67v2.68l-0.26,0.06c-1.47,0.36-2.46,0.81-2.93,1.35c-0.48,0.55-0.73,1.57-0.73,3.04v25.8h47.09v-25.8
				c0-1.59-0.22-2.64-0.65-3.12c-0.29-0.33-1.04-0.82-2.91-1.27l-0.27-0.06v-2.68h26.52v2.68l-0.27,0.06
				c-1.42,0.31-2.37,0.73-2.83,1.26c-0.44,0.57-0.68,1.63-0.68,3.13v71.12c0,1.53,0.22,2.56,0.66,3.04
				c0.31,0.35,1.07,0.87,2.87,1.34l0.26,0.07V582.67z M392.44,581.98h25.14v-1.44c-1.44-0.4-2.43-0.9-2.95-1.48
				c-0.56-0.62-0.83-1.77-0.83-3.5v-71.12c0-1.68,0.27-2.85,0.83-3.57c0.55-0.63,1.51-1.1,2.95-1.44V498h-25.14v1.44
				c1.52,0.39,2.5,0.85,3,1.41c0.56,0.63,0.82,1.77,0.82,3.59v26.5h-48.48v-26.5c0-1.67,0.29-2.81,0.9-3.5
				c0.54-0.62,1.53-1.11,3.02-1.5V498h-25.28v1.44c1.51,0.39,2.52,0.88,3.07,1.5c0.57,0.71,0.85,1.85,0.85,3.5v71.12
				c0,1.58-0.26,2.64-0.81,3.34c-0.51,0.63-1.53,1.14-3.11,1.57v1.52h25.28v-1.51c-1.6-0.37-2.62-0.86-3.11-1.48
				c-0.54-0.61-0.81-1.74-0.81-3.44V546h48.48v29.55c0,1.66-0.28,2.8-0.85,3.49c-0.56,0.63-1.55,1.11-2.98,1.42V581.98z"/>
		</g>
		<g>
			<path class="st1" d="M577.77,567.14c1.65,0,2.73-0.25,3.29-0.78c0.52-0.49,0.96-1.51,1.33-3.1h2v23.07h-2
				c-0.37-1.57-0.85-2.64-1.41-3.15c-0.6-0.6-1.66-0.86-3.21-0.86h-75.14v-2.13c1.62-0.42,2.7-0.93,3.18-1.52
				c0.5-0.64,0.73-1.65,0.73-3.12v-71.12c0-1.58-0.26-2.66-0.76-3.27c-0.53-0.6-1.57-1.08-3.15-1.46v-2.06h74.22
				c1.61,0,2.65-0.24,3.21-0.76c0.53-0.53,0.97-1.62,1.34-3.23h2.08v23.02h-2.08c-0.32-1.53-0.73-2.55-1.32-3.08
				c-0.54-0.53-1.43-0.81-2.59-0.81h-0.64h-52.16v18.59h33.24c1.66,0,2.73-0.24,3.23-0.69c0.51-0.49,0.96-1.54,1.39-3.18h2v21.47h-2
				c-0.32-1.56-0.76-2.57-1.34-3.12c-0.62-0.49-1.69-0.77-3.28-0.77h-33.24v22.05H577.77"/>
		</g>
		<g>
			<path class="st3" d="M584.73,586.68h-2.62l-0.06-0.27c-0.44-1.89-0.95-2.66-1.31-2.97c-0.53-0.53-1.5-0.78-2.98-0.78h-75.49
				v-2.74l0.26-0.07c1.95-0.5,2.7-1.04,3-1.4c0.44-0.55,0.65-1.5,0.65-2.9v-71.12c0-1.47-0.23-2.5-0.68-3.05
				c-0.46-0.53-1.46-0.98-2.96-1.34l-0.27-0.06v-2.68h74.57c1.52,0,2.49-0.22,2.97-0.67c0.46-0.46,0.88-1.49,1.24-3.06l0.06-0.27
				h2.71v23.71h-2.71l-0.06-0.28c-0.31-1.52-0.7-2.44-1.21-2.89c-0.49-0.48-1.3-0.72-2.36-0.72h-52.45v17.9h32.89
				c1.92,0,2.69-0.33,3-0.6c0.44-0.43,0.88-1.44,1.28-3.01l0.07-0.26h2.61v22.16h-2.63l-0.06-0.28c-0.3-1.45-0.71-2.44-1.24-2.94
				c-0.55-0.44-1.58-0.67-3.04-0.67h-32.89v21.35h52.74c1.54,0,2.57-0.23,3.05-0.68c0.47-0.45,0.88-1.43,1.23-2.92l0.06-0.27h2.62
				V586.68z M582.66,585.98h1.38v-22.38h-1.38c-0.37,1.5-0.82,2.48-1.37,3c-0.63,0.6-1.76,0.87-3.53,0.87h-53.43v-22.74h33.59
				c1.62,0,2.79,0.28,3.5,0.85c0.62,0.59,1.08,1.59,1.4,3.05h1.37v-20.78h-1.39c-0.43,1.59-0.88,2.57-1.41,3.08
				c-0.6,0.53-1.73,0.78-3.47,0.78h-33.59v-19.28h53.15c1.24,0,2.21,0.31,2.83,0.91c0.58,0.52,1.02,1.47,1.36,2.98h1.46v-22.32
				h-1.46c-0.38,1.56-0.83,2.59-1.37,3.13c-0.63,0.59-1.72,0.86-3.45,0.86h-73.87v1.44c1.52,0.39,2.52,0.88,3.06,1.5
				c0.57,0.7,0.85,1.84,0.85,3.5v71.12c0,1.58-0.26,2.64-0.8,3.34c-0.51,0.62-1.52,1.13-3.11,1.57v1.51h74.79
				c1.7,0,2.79,0.31,3.45,0.96C581.79,583.44,582.28,584.47,582.66,585.98z"/>
		</g>
		<g>
			<path class="st1" d="M665.14,582.33v-2.13c1.57-0.31,2.62-0.78,3.16-1.41c0.49-0.62,0.74-1.69,0.74-3.22v-71.12
				c0-1.48-0.23-2.51-0.73-3.14c-0.47-0.64-1.54-1.16-3.17-1.58v-2.06h51.97c10.76,0,19.13,2.18,25.09,6.47
				c5.95,4.3,8.91,10.32,8.91,18.03c0,6.34-1.83,11.58-5.51,15.71c-3.65,4.12-9.32,7.22-16.95,9.32l17.47,24.98
				c1.03,1.54,2.18,2.85,3.48,3.97c1.33,1.13,3.42,2.48,6.28,4.06v2.13h-30.39v-2.13c1.12-0.16,1.98-0.49,2.59-0.92
				c0.59-0.49,0.89-1.05,0.89-1.76c0-0.14-0.23-0.66-0.61-1.57c-0.42-0.9-0.88-1.69-1.31-2.36l-17.34-25.92h-22.52v27.89
				c0,1.58,0.23,2.66,0.74,3.22c0.48,0.59,1.56,1.06,3.19,1.41v2.13H665.14 M712.1,512.16h-24.92v23.22h25.54
				c7.53,0,12.9-0.93,16.12-2.8c3.22-1.86,4.8-4.91,4.8-9.15c0-4.1-1.57-7-4.69-8.71C725.84,513.03,720.21,512.16,712.1,512.16"/>
		</g>
		<g>
			<path class="st3" d="M756.23,582.67h-31.09v-2.78l0.3-0.04c1.01-0.14,1.85-0.44,2.43-0.86c0.5-0.42,0.74-0.9,0.74-1.48
				c-0.02-0.1-0.24-0.63-0.51-1.25l-0.08-0.18c-0.35-0.76-0.79-1.54-1.28-2.31l-17.23-25.76h-21.99v27.54c0,1.5,0.22,2.51,0.65,2.99
				c0.3,0.37,1.05,0.89,3,1.31l0.27,0.06v2.76h-26.67v-2.77l0.28-0.06c1.49-0.3,2.48-0.73,2.96-1.3c0.43-0.55,0.66-1.59,0.66-3
				v-71.12c0-1.42-0.21-2.37-0.65-2.92c-0.42-0.56-1.42-1.05-2.99-1.46l-0.26-0.07v-2.67h52.32c10.76,0,19.27,2.2,25.29,6.54
				c6.01,4.35,9.06,10.51,9.06,18.31c0,6.41-1.88,11.77-5.59,15.94c-3.6,4.06-9.2,7.18-16.64,9.29l17.19,24.58
				c1.03,1.54,2.15,2.82,3.42,3.9c1.31,1.11,3.34,2.42,6.22,4.02l0.18,0.1V582.67z M725.83,581.98h29.7v-1.58
				c-2.83-1.57-4.84-2.88-6.16-4c-1.32-1.13-2.48-2.45-3.55-4.04l-17.75-25.37l0.48-0.13c7.55-2.07,13.2-5.17,16.78-9.21
				c3.6-4.04,5.42-9.25,5.42-15.48c0-7.57-2.95-13.54-8.77-17.75c-5.9-4.25-14.27-6.4-24.88-6.4h-51.63v1.45
				c1.6,0.44,2.62,0.98,3.11,1.64c0.54,0.68,0.79,1.74,0.79,3.34v71.12c0,1.59-0.27,2.74-0.82,3.44c-0.56,0.67-1.57,1.15-3.08,1.48
				v1.51h25.28v-1.51c-1.59-0.37-2.61-0.85-3.11-1.47c-0.54-0.61-0.81-1.74-0.81-3.44v-28.24h23.06l0.1,0.15l17.33,25.92
				c0.51,0.8,0.96,1.61,1.33,2.41l0.08,0.19c0.44,1.02,0.56,1.33,0.56,1.52c0,0.79-0.33,1.45-1.01,2.02
				c-0.64,0.46-1.46,0.78-2.46,0.95V581.98z M712.72,535.72h-25.88v-23.91h25.27c8.11,0,13.84,0.88,17.02,2.61
				c3.23,1.77,4.87,4.8,4.87,9.01c0,4.37-1.67,7.55-4.98,9.45C725.76,534.77,720.28,535.72,712.72,535.72z M687.53,535.03h25.19
				c7.43,0,12.8-0.92,15.95-2.75c3.12-1.8,4.63-4.69,4.63-8.85c0-3.99-1.47-6.74-4.51-8.4c-3.08-1.68-8.7-2.53-16.69-2.53h-24.57
				V535.03z"/>
		</g>
		<g>
			<path class="st1" d="M824.69,512.64c-1.58,0-2.65,0.24-3.19,0.76c-0.54,0.51-0.98,1.52-1.34,3.11h-2.09v-22.86h2.01
				c0.36,1.56,0.84,2.64,1.47,3.19c0.6,0.57,1.65,0.81,3.14,0.81h69.28c1.61,0,2.65-0.24,3.21-0.76c0.51-0.53,0.96-1.62,1.32-3.24
				h2.08v23.02h-2.08c-0.31-1.57-0.74-2.65-1.39-3.19c-0.59-0.58-1.63-0.85-3.14-0.85h-25.7v62.92c0,1.61,0.26,2.7,0.75,3.26
				c0.5,0.55,1.49,1.01,3.04,1.36v2.13h-25.63v-2.13c1.53-0.41,2.56-0.92,3.04-1.51c0.49-0.64,0.77-1.7,0.88-3.23v-62.81H824.69"/>
		</g>
		<g>
			<path class="st3" d="M872.42,582.67h-26.32v-2.75l0.26-0.07c1.82-0.49,2.56-1.03,2.86-1.39c0.43-0.56,0.7-1.56,0.8-3.04l0-62.44
				h-25.32c-1.49,0-2.49,0.22-2.95,0.67c-0.49,0.46-0.9,1.45-1.24,2.94l-0.06,0.27h-2.72v-23.55h2.63l0.06,0.27
				c0.35,1.52,0.81,2.53,1.36,3c0.52,0.49,1.47,0.73,2.91,0.73h69.28c1.52,0,2.49-0.22,2.97-0.67c0.31-0.33,0.79-1.13,1.22-3.06
				l0.06-0.27h2.7v23.71h-2.71l-0.05-0.28c-0.31-1.56-0.72-2.54-1.27-2.99c-0.53-0.52-1.5-0.77-2.92-0.77h-25.35v62.57
				c0,1.88,0.36,2.69,0.67,3.04c0.46,0.51,1.42,0.93,2.86,1.25l0.27,0.06V582.67z M846.79,581.98h24.94v-1.51
				c-1.45-0.35-2.41-0.82-2.95-1.41c-0.56-0.64-0.84-1.81-0.84-3.5v-63.27h26.04c1.63,0,2.74,0.31,3.38,0.95
				c0.63,0.51,1.09,1.5,1.43,3.09h1.45V494h-1.45c-0.36,1.53-0.82,2.58-1.35,3.13c-0.63,0.6-1.73,0.87-3.45,0.87h-69.28
				c-1.65,0-2.72-0.29-3.38-0.91c-0.63-0.54-1.13-1.55-1.51-3.09h-1.39v22.17h1.47c0.36-1.49,0.81-2.48,1.37-3.02
				c0.61-0.58,1.73-0.86,3.43-0.86h26.01v63.16c-0.12,1.66-0.42,2.75-0.95,3.44c-0.5,0.62-1.5,1.14-2.97,1.56V581.98z"/>
		</g>
		<g>
			<path class="st1" d="M989.26,575.56c0,1.61,0.21,2.7,0.72,3.27c0.5,0.54,1.51,1.04,3.04,1.45v2.05h-25.85v-2.13
				c1.61-0.35,2.6-0.85,3.09-1.43c0.46-0.63,0.69-1.67,0.69-3.21v-71.11c0-1.63-0.23-2.72-0.74-3.36c-0.49-0.59-1.49-1.05-3.03-1.37
				v-2.06h25.85v2.06c-1.49,0.33-2.47,0.78-3,1.37c-0.51,0.64-0.75,1.72-0.75,3.36V575.56"/>
		</g>
		<g>
			<path class="st3" d="M993.36,582.67h-26.54v-2.76l0.27-0.06c1.44-0.32,2.45-0.77,2.9-1.31c0.4-0.55,0.61-1.53,0.61-2.98v-71.12
				c0-1.58-0.21-2.58-0.67-3.14c-0.44-0.52-1.39-0.95-2.83-1.25l-0.27-0.06v-2.69h26.54v2.68l-0.27,0.06
				c-1.41,0.31-2.33,0.72-2.82,1.27c-0.44,0.55-0.66,1.58-0.66,3.12v71.12c0,1.57,0.21,2.57,0.63,3.04
				c0.32,0.35,1.08,0.87,2.87,1.34l0.26,0.07V582.67z M967.51,581.98h25.15v-1.44c-1.43-0.41-2.42-0.9-2.95-1.48
				c-0.55-0.62-0.81-1.73-0.81-3.51v-71.12c0-1.73,0.26-2.87,0.83-3.57c0.57-0.63,1.52-1.1,2.93-1.43V498h-25.15v1.43
				c1.47,0.34,2.43,0.81,2.95,1.43c0.56,0.69,0.82,1.83,0.82,3.58v71.12c0,1.6-0.25,2.72-0.75,3.41c-0.54,0.65-1.55,1.15-3.02,1.5
				V581.98z"/>
		</g>
	</g>
</g>
</svg>
