<?xml version="1.0" encoding="utf-8"?><svg version="1.1" id="Layer_1" xmlns="http://www.w3.org/2000/svg" x="0" y="0" viewBox="0 0 226 70" xml:space="preserve"><style>.st0{fill:#690a66}.st1{fill:#72bf44}</style><path class="st0" d="M47.7 8.2c0-2.5-2.6-8.2-9.1-8.2H0c0 2.5 2.7 8.2 9.1 8.2h38.6zM19.3 11.5h9v29.6h-9zM114.4 8.2c-2.8 0-4.4 2.1-4.4 4.1 0 .2 0 .5.1.8h-8.8v-.8c0-5.6 4.4-12.4 13.2-12.4H135c6.4 0 9 5.8 9 8.2h-29.6zM130.9 16.5h-29.1c1.8 5.3 7.1 8.3 12.6 8.3h16.2c2.6.1 4.5 1.7 4.5 4.1 0 2.5-2.2 4.1-4.6 4.1h-29.3c0 2.5 2.8 8.2 9 8.2h20.9c7.9 0 12.7-6.5 12.7-12.5.1-7.8-6.5-12.2-12.9-12.2M64.8 32.9c-1 0-1.7-.8-1.7-1.7v-6.5h23.5v-8.2H54.1v15.6c0 4.8 3.7 9.1 9.4 9.1h22.1c6.4 0 9.1-5.7 9.1-8.2H64.8zM85.6 0H63.4c-5.9 0-9.3 4.7-9.3 9.1v4.1h9V9.9c0-1 .8-1.6 1.6-1.6h29.9c0-2.5-2.7-8.3-9-8.3M160.9 5.7C157.8.8 155.5 0 150.7 0h-3.5l16.5 26.5 5-8.4c0 .1-6.4-10.2-7.8-12.4M190.2 0c-4.8 0-7.8 1.7-10.2 5.7-1.1 1.9-14.1 23.7-14.1 23.7v11.7h9.1v-11L193.5 0h-3.3z"/><path class="st1" d="M104.8 51.8h1.4v14.1h-1.4zM115.3 65.7c-.4.1-.7.2-1.1.2s-.6.1-.8.1c-1 0-1.8-.2-2.2-.7-.4-.5-.7-1.3-.7-2.4V57H109v-1.2h1.5l.3-2.4h1v2.4h2.9V57h-2.9v5.5c0 .8.1 1.4.4 1.7.3.3.7.5 1.3.5h.7c.3 0 .5-.1.8-.1l.3 1.1zM117.4 52.2c0-.3.1-.5.3-.7.2-.2.4-.3.7-.3.4 0 .7.1.9.4.2.3.3.6.3 1 0 .3-.1.6-.2.9-.1.3-.2.6-.4.8-.2.2-.4.5-.6.7-.2.2-.4.3-.7.5l-.5-.6c.3-.2.5-.5.7-.7.2-.3.3-.6.3-.9-.3 0-.5-.1-.6-.3-.1-.3-.2-.6-.2-.8M125.2 64.9c.3 0 .6 0 .9-.1.3-.1.5-.2.8-.3.2-.1.4-.3.6-.6.1-.2.2-.5.2-.9s-.1-.8-.4-1c-.3-.2-.7-.4-1.2-.5l-1.5-.3c-.5-.1-1-.2-1.5-.4-.4-.2-.8-.4-1.1-.8-.3-.3-.4-.8-.4-1.4 0-.4.1-.8.3-1.2.2-.4.4-.7.7-.9.3-.3.7-.5 1.1-.6.4-.1.9-.2 1.4-.2.7 0 1.4.1 1.9.2.6.1 1.1.4 1.6.7-.1.2-.2.3-.3.5-.1.2-.2.3-.3.5-.4-.3-.9-.5-1.4-.6-.5-.1-1-.2-1.5-.2-.7 0-1.3.2-1.7.5-.4.3-.6.8-.6 1.3 0 .2.1.5.2.6.1.2.3.3.5.4.2.1.5.2.8.3.3.1.6.1 1 .2s.9.2 1.3.3c.5.1.9.2 1.3.4s.7.5.9.8c.2.3.4.8.4 1.4 0 .4-.1.8-.3 1.2-.2.4-.4.7-.8.9-.3.3-.7.5-1.2.6-.5.1-1 .2-1.6.2-.7 0-1.4-.1-2-.2-.7-.2-1.3-.5-1.9-1l.7-1c.5.4 1 .7 1.6.8.3.3.8.4 1.5.4M138.1 52.6c0 .2-.1.4-.3.6-.2.2-.4.3-.6.3-.2 0-.4-.1-.6-.3-.2-.2-.3-.4-.3-.6 0-.2.1-.4.3-.6.2-.2.4-.2.6-.2.2 0 .4.1.6.2.3.2.3.4.3.6m-1.5 3.2h1.3v10.1h-1.3V55.8zM145.3 55.7c.7 0 1.3.2 1.7.5.4.3.7.7.9 1.2.4-.4.8-.6 1.1-.9.3-.2.7-.4.9-.5.3-.1.5-.2.7-.2h.6c1 0 1.7.3 2.2.8.5.6.8 1.4.8 2.5V66H153v-6.6c0-.8-.1-1.3-.4-1.7-.3-.4-.8-.6-1.5-.6-.4 0-.9.1-1.4.4-.5.3-1 .6-1.6 1.1v7.5h-1.3v-6.6c0-1.5-.6-2.3-1.8-2.3-.4 0-.9.1-1.3.3-.5.2-1 .5-1.7 1v7.6h-1.3V55.8h1.1l.2 1.3c.4-.3.7-.5 1-.7.3-.2.6-.3.9-.4.3-.1.5-.2.7-.2.3-.1.5-.1.7-.1M157.9 55.8l.2 1.2c.4-.3.8-.5 1.2-.7.4-.2.7-.3.9-.4.3-.1.5-.2.7-.2h.6c1 0 1.8.3 2.4.9.6.6.9 1.5.9 2.7v3.2c0 1.1-.3 2-.9 2.6-.6.6-1.5.9-2.6.9-.4 0-.8 0-1.4-.1-.5-.1-1.1-.3-1.9-.7V70h-1.3V55.8h1.2zm.2 8.1c.7.3 1.3.5 1.8.7.5.1.9.2 1.4.2.7 0 1.3-.2 1.7-.6.4-.4.6-1 .6-1.9v-2.9c0-.9-.2-1.5-.6-1.9-.4-.4-.9-.5-1.5-.5-.2 0-.4 0-.7.1l-.9.3c-.3.1-.6.3-.9.4-.3.2-.6.4-.9.5v5.6zM172.6 57.1c-.9.1-1.7.3-2.3.5-.6.3-1.1.5-1.4.7v7.5h-1.3v-10h1.2l.2 1.5c.2-.2.4-.4.7-.6.3-.2.6-.4.9-.5.3-.2.7-.3 1-.4.3-.1.7-.2 1-.2v1.5zM175.5 61.4v.8c0 .5.1.9.2 1.2.2.3.4.6.6.8.3.2.6.4.9.5.3.1.7.1 1.1.1.4 0 .9-.1 1.3-.2.5-.2.9-.4 1.3-.8l.8.9c-.5.5-1 .8-1.6 1-.6.2-1.2.3-1.9.3-.6 0-1.1-.1-1.6-.2-.5-.2-.9-.4-1.3-.7-.4-.3-.7-.7-.9-1.2-.2-.5-.3-1-.3-1.6v-2.7c0-.6.1-1.1.3-1.6.2-.5.5-.9.8-1.2.4-.3.8-.6 1.3-.8.5-.2 1-.3 1.6-.3.6 0 1.1.1 1.6.3.5.2.9.4 1.2.8.3.3.6.7.8 1.2.2.5.3 1 .3 1.6v1.9h-6.5zm5.3-1.8c0-.5-.1-.9-.2-1.2-.1-.3-.3-.6-.6-.8-.2-.2-.5-.4-.8-.5-.3-.1-.6-.2-1-.2-.3 0-.7.1-1 .2-.3.1-.6.3-.9.5-.2.2-.4.5-.6.8-.2.3-.2.7-.2 1.2v.7h5.3v-.7zM188.2 64.9c.3 0 .6 0 .9-.1.3-.1.5-.2.8-.3.2-.1.4-.3.6-.6.1-.2.2-.5.2-.9s-.1-.8-.4-1c-.3-.2-.7-.4-1.2-.5l-1.5-.3c-.5-.1-1-.2-1.5-.4-.4-.2-.8-.4-1.1-.8-.3-.3-.4-.8-.4-1.4 0-.4.1-.8.3-1.2.2-.4.4-.7.7-.9.3-.3.7-.5 1.1-.6.4-.1.9-.2 1.4-.2.7 0 1.4.1 1.9.2.6.1 1.1.4 1.6.7-.1.2-.2.3-.3.5-.1.2-.2.3-.3.5-.4-.3-.9-.5-1.4-.6-.5-.1-1-.2-1.5-.2-.7 0-1.3.2-1.7.5-.4.3-.6.8-.6 1.3 0 .2.1.5.2.6.1.2.3.3.5.4.2.1.5.2.8.3.3.1.6.1.9.2.4.1.9.2 1.3.3.5.1.9.2 1.3.4s.7.5.9.8c.2.3.4.8.4 1.4 0 .4-.1.8-.3 1.2-.2.4-.4.7-.8.9-.3.3-.7.5-1.2.6-.5.1-1 .2-1.6.2-.7 0-1.4-.1-2-.2-.7-.2-1.3-.5-1.9-1l.7-1c.5.4 1 .7 1.6.8.4.3.9.4 1.6.4M197.8 64.9c.3 0 .6 0 .9-.1.3-.1.6-.2.8-.3.2-.1.4-.3.6-.6.1-.2.2-.5.2-.9s-.1-.8-.4-1c-.3-.2-.7-.4-1.2-.5l-1.5-.3c-.5-.1-1-.2-1.5-.4-.4-.2-.8-.4-1.1-.8-.3-.3-.4-.8-.4-1.4 0-.4.1-.8.3-1.2.2-.4.4-.7.7-.9.3-.3.7-.5 1.1-.6.4-.1.9-.2 1.4-.2.7 0 1.4.1 1.9.2.6.1 1.1.4 1.6.7-.1.2-.2.3-.3.5-.1.2-.2.3-.3.5-.4-.3-.9-.5-1.4-.6-.5-.1-1-.2-1.5-.2-.7 0-1.3.2-1.7.5-.4.3-.6.8-.6 1.3 0 .2.1.5.2.6.1.2.3.3.5.4.2.1.5.2.8.3.3.1.6.1.9.2.4.1.9.2 1.3.3.5.1.9.2 1.3.4s.7.5.9.8c.2.3.4.8.4 1.4 0 .4-.1.8-.3 1.2-.2.4-.4.7-.8.9-.3.3-.7.5-1.2.6-.5.1-1 .2-1.6.2-.7 0-1.4-.1-2-.2-.7-.2-1.3-.5-1.9-1l.7-1c.5.4 1 .7 1.6.8.4.3 1 .4 1.6.4M205.7 52.6c0 .2-.1.4-.3.6-.2.2-.4.3-.6.3-.2 0-.4-.1-.6-.3-.2-.2-.3-.4-.3-.6 0-.2.1-.4.3-.6.2-.2.4-.2.6-.2.2 0 .4.1.6.2.2.2.3.4.3.6m-1.5 3.2h1.3v10.1h-1.3V55.8zM212 64.1l1.3-3.8 1.5-4.4h1.5L212.7 66h-1.4c-.6-1.7-1.2-3.4-1.8-5l-1.8-5.1h1.5l1.5 4.3c.1.4.3.8.4 1.2.1.4.3.8.4 1.1.1.4.2.7.3 1 .1.3.2.5.2.7zM219.4 61.4v.8c0 .5.1.9.2 1.2.2.3.4.6.6.8.3.2.6.4.9.5.3.1.7.1 1.1.1.4 0 .9-.1 1.3-.2.5-.2.9-.4 1.3-.8l.8.9c-.5.5-1 .8-1.6 1-.6.2-1.2.3-1.9.3-.6 0-1.1-.1-1.6-.2-.5-.2-.9-.4-1.3-.7-.4-.3-.7-.7-.9-1.2-.2-.5-.3-1-.3-1.6v-2.7c0-.6.1-1.1.3-1.6.2-.5.5-.9.8-1.2.3-.3.8-.6 1.3-.8.5-.2 1-.3 1.6-.3.6 0 1.1.1 1.6.3.5.2.9.4 1.2.8.3.3.6.7.8 1.2.2.5.3 1 .3 1.6v1.9h-6.5zm5.2-1.8c0-.5-.1-.9-.2-1.2-.1-.3-.3-.6-.6-.8-.3-.2-.5-.4-.8-.5-.3-.1-.6-.2-1-.2-.3 0-.7.1-1 .2-.3.1-.6.3-.9.5-.2.2-.4.5-.6.8-.2.3-.2.7-.2 1.2v.7h5.3v-.7z"/></svg>
